G04*
G04 #@! TF.GenerationSoftware,Altium Limited,Altium Designer,21.3.2 (30)*
G04*
G04 Layer_Physical_Order=1*
G04 Layer_Color=255*
%FSLAX25Y25*%
%MOIN*%
G70*
G04*
G04 #@! TF.SameCoordinates,0BA03C88-78D3-4CE0-B3B6-7A37467246DB*
G04*
G04*
G04 #@! TF.FilePolarity,Positive*
G04*
G01*
G75*
%ADD10C,0.00500*%
%ADD11C,0.00300*%
%ADD12C,0.00800*%
%ADD13C,0.01200*%
%ADD14C,0.00026*%
%ADD15C,0.00043*%
%ADD16C,0.00195*%
%ADD17C,0.00061*%
%ADD18C,0.00087*%
%ADD19C,0.00104*%
%ADD20C,0.00052*%
%ADD21C,0.00049*%
%ADD22C,0.00183*%
%ADD23C,0.00174*%
%ADD24C,0.00244*%
%ADD25C,0.00035*%
%ADD26C,0.01000*%
%ADD27R,0.06131X0.10864*%
%ADD28R,0.06131X0.02042*%
%ADD29R,0.01000X0.04000*%
%ADD35C,0.12000*%
%ADD36C,0.01800*%
%ADD37C,0.01600*%
G36*
X451894Y80872D02*
X451915Y80543D01*
X451923Y80502D01*
X451932Y80470D01*
X451942Y80445D01*
X451954Y80430D01*
X450834D01*
X450845Y80445D01*
X450855Y80470D01*
X450864Y80502D01*
X450872Y80543D01*
X450879Y80592D01*
X450888Y80716D01*
X450894Y80963D01*
X451894D01*
X451894Y80872D01*
D02*
G37*
G36*
X449894D02*
X449915Y80543D01*
X449923Y80502D01*
X449932Y80470D01*
X449942Y80445D01*
X449954Y80430D01*
X448834D01*
X448845Y80445D01*
X448855Y80470D01*
X448864Y80502D01*
X448872Y80543D01*
X448879Y80592D01*
X448888Y80716D01*
X448894Y80963D01*
X449894D01*
X449894Y80872D01*
D02*
G37*
G36*
X442052D02*
X442073Y80543D01*
X442081Y80502D01*
X442090Y80470D01*
X442100Y80445D01*
X442111Y80430D01*
X440991D01*
X441003Y80445D01*
X441013Y80470D01*
X441022Y80502D01*
X441030Y80543D01*
X441036Y80592D01*
X441046Y80716D01*
X441051Y80963D01*
X442051D01*
X442052Y80872D01*
D02*
G37*
G36*
X440052D02*
X440073Y80543D01*
X440081Y80502D01*
X440090Y80470D01*
X440100Y80445D01*
X440111Y80430D01*
X438991D01*
X439003Y80445D01*
X439013Y80470D01*
X439022Y80502D01*
X439030Y80543D01*
X439036Y80592D01*
X439046Y80716D01*
X439051Y80963D01*
X440051D01*
X440052Y80872D01*
D02*
G37*
G36*
X432209D02*
X432230Y80543D01*
X432238Y80502D01*
X432247Y80470D01*
X432257Y80445D01*
X432269Y80430D01*
X431149D01*
X431160Y80445D01*
X431170Y80470D01*
X431179Y80502D01*
X431187Y80543D01*
X431194Y80592D01*
X431203Y80716D01*
X431209Y80963D01*
X432209D01*
X432209Y80872D01*
D02*
G37*
G36*
X430209D02*
X430230Y80543D01*
X430238Y80502D01*
X430247Y80470D01*
X430257Y80445D01*
X430269Y80430D01*
X429149D01*
X429160Y80445D01*
X429170Y80470D01*
X429179Y80502D01*
X429187Y80543D01*
X429194Y80592D01*
X429203Y80716D01*
X429209Y80963D01*
X430209D01*
X430209Y80872D01*
D02*
G37*
G36*
X422367D02*
X422388Y80543D01*
X422396Y80502D01*
X422405Y80470D01*
X422415Y80445D01*
X422426Y80430D01*
X421306D01*
X421318Y80445D01*
X421328Y80470D01*
X421337Y80502D01*
X421345Y80543D01*
X421351Y80592D01*
X421361Y80716D01*
X421366Y80963D01*
X422366D01*
X422367Y80872D01*
D02*
G37*
G36*
X420367D02*
X420388Y80543D01*
X420396Y80502D01*
X420405Y80470D01*
X420415Y80445D01*
X420426Y80430D01*
X419306D01*
X419318Y80445D01*
X419328Y80470D01*
X419337Y80502D01*
X419345Y80543D01*
X419351Y80592D01*
X419361Y80716D01*
X419366Y80963D01*
X420366D01*
X420367Y80872D01*
D02*
G37*
G36*
X412524D02*
X412545Y80543D01*
X412553Y80502D01*
X412562Y80470D01*
X412572Y80445D01*
X412584Y80430D01*
X411464D01*
X411475Y80445D01*
X411485Y80470D01*
X411494Y80502D01*
X411502Y80543D01*
X411509Y80592D01*
X411518Y80716D01*
X411524Y80963D01*
X412524D01*
X412524Y80872D01*
D02*
G37*
G36*
X410524D02*
X410545Y80543D01*
X410553Y80502D01*
X410562Y80470D01*
X410572Y80445D01*
X410584Y80430D01*
X409464D01*
X409475Y80445D01*
X409485Y80470D01*
X409494Y80502D01*
X409502Y80543D01*
X409509Y80592D01*
X409518Y80716D01*
X409524Y80963D01*
X410524D01*
X410524Y80872D01*
D02*
G37*
G36*
X402682D02*
X402703Y80543D01*
X402710Y80502D01*
X402719Y80470D01*
X402730Y80445D01*
X402741Y80430D01*
X401621D01*
X401632Y80445D01*
X401643Y80470D01*
X401652Y80502D01*
X401659Y80543D01*
X401666Y80592D01*
X401676Y80716D01*
X401681Y80963D01*
X402681D01*
X402682Y80872D01*
D02*
G37*
G36*
X400682D02*
X400703Y80543D01*
X400710Y80502D01*
X400719Y80470D01*
X400730Y80445D01*
X400741Y80430D01*
X399621D01*
X399633Y80445D01*
X399643Y80470D01*
X399652Y80502D01*
X399659Y80543D01*
X399666Y80592D01*
X399676Y80716D01*
X399681Y80963D01*
X400681D01*
X400682Y80872D01*
D02*
G37*
G36*
X392839D02*
X392860Y80543D01*
X392868Y80502D01*
X392877Y80470D01*
X392887Y80445D01*
X392899Y80430D01*
X391779D01*
X391790Y80445D01*
X391800Y80470D01*
X391809Y80502D01*
X391817Y80543D01*
X391824Y80592D01*
X391833Y80716D01*
X391839Y80963D01*
X392839D01*
X392839Y80872D01*
D02*
G37*
G36*
X390839D02*
X390860Y80543D01*
X390868Y80502D01*
X390877Y80470D01*
X390887Y80445D01*
X390899Y80430D01*
X389779D01*
X389790Y80445D01*
X389800Y80470D01*
X389809Y80502D01*
X389817Y80543D01*
X389824Y80592D01*
X389833Y80716D01*
X389839Y80963D01*
X390839D01*
X390839Y80872D01*
D02*
G37*
G36*
X382997D02*
X383018Y80543D01*
X383026Y80502D01*
X383034Y80470D01*
X383045Y80445D01*
X383056Y80430D01*
X381936D01*
X381947Y80445D01*
X381958Y80470D01*
X381967Y80502D01*
X381975Y80543D01*
X381981Y80592D01*
X381991Y80716D01*
X381996Y80963D01*
X382996D01*
X382997Y80872D01*
D02*
G37*
G36*
X380997D02*
X381018Y80543D01*
X381026Y80502D01*
X381034Y80470D01*
X381045Y80445D01*
X381056Y80430D01*
X379936D01*
X379947Y80445D01*
X379958Y80470D01*
X379967Y80502D01*
X379975Y80543D01*
X379981Y80592D01*
X379991Y80716D01*
X379996Y80963D01*
X380996D01*
X380997Y80872D01*
D02*
G37*
G36*
X446973Y61187D02*
X446994Y60858D01*
X447002Y60817D01*
X447011Y60785D01*
X447021Y60760D01*
X447032Y60745D01*
X445912D01*
X445924Y60760D01*
X445934Y60785D01*
X445943Y60817D01*
X445951Y60858D01*
X445957Y60907D01*
X445967Y61031D01*
X445972Y61278D01*
X446973D01*
X446973Y61187D01*
D02*
G37*
G36*
X444973D02*
X444994Y60858D01*
X445002Y60817D01*
X445011Y60785D01*
X445021Y60760D01*
X445032Y60745D01*
X443912D01*
X443924Y60760D01*
X443934Y60785D01*
X443943Y60817D01*
X443951Y60858D01*
X443957Y60907D01*
X443967Y61031D01*
X443972Y61278D01*
X444973D01*
X444973Y61187D01*
D02*
G37*
G36*
X437130D02*
X437151Y60858D01*
X437159Y60817D01*
X437168Y60785D01*
X437179Y60760D01*
X437190Y60745D01*
X436070D01*
X436081Y60760D01*
X436092Y60785D01*
X436100Y60817D01*
X436108Y60858D01*
X436115Y60907D01*
X436125Y61031D01*
X436130Y61278D01*
X437130D01*
X437130Y61187D01*
D02*
G37*
G36*
X435131D02*
X435151Y60858D01*
X435159Y60817D01*
X435168Y60785D01*
X435179Y60760D01*
X435190Y60745D01*
X434070D01*
X434081Y60760D01*
X434092Y60785D01*
X434100Y60817D01*
X434108Y60858D01*
X434115Y60907D01*
X434125Y61031D01*
X434130Y61278D01*
X435130D01*
X435131Y61187D01*
D02*
G37*
G36*
X427288D02*
X427309Y60858D01*
X427317Y60817D01*
X427326Y60785D01*
X427336Y60760D01*
X427347Y60745D01*
X426227D01*
X426239Y60760D01*
X426249Y60785D01*
X426258Y60817D01*
X426266Y60858D01*
X426272Y60907D01*
X426282Y61031D01*
X426287Y61278D01*
X427287D01*
X427288Y61187D01*
D02*
G37*
G36*
X425288D02*
X425309Y60858D01*
X425317Y60817D01*
X425326Y60785D01*
X425336Y60760D01*
X425347Y60745D01*
X424227D01*
X424239Y60760D01*
X424249Y60785D01*
X424258Y60817D01*
X424266Y60858D01*
X424272Y60907D01*
X424282Y61031D01*
X424287Y61278D01*
X425287D01*
X425288Y61187D01*
D02*
G37*
G36*
X417446D02*
X417466Y60858D01*
X417474Y60817D01*
X417483Y60785D01*
X417493Y60760D01*
X417505Y60745D01*
X416385D01*
X416396Y60760D01*
X416406Y60785D01*
X416416Y60817D01*
X416423Y60858D01*
X416430Y60907D01*
X416439Y61031D01*
X416445Y61278D01*
X417445D01*
X417446Y61187D01*
D02*
G37*
G36*
X415446D02*
X415466Y60858D01*
X415474Y60817D01*
X415483Y60785D01*
X415493Y60760D01*
X415505Y60745D01*
X414385D01*
X414396Y60760D01*
X414406Y60785D01*
X414416Y60817D01*
X414423Y60858D01*
X414430Y60907D01*
X414439Y61031D01*
X414445Y61278D01*
X415445D01*
X415446Y61187D01*
D02*
G37*
G36*
X407603D02*
X407624Y60858D01*
X407632Y60817D01*
X407641Y60785D01*
X407651Y60760D01*
X407662Y60745D01*
X406542D01*
X406554Y60760D01*
X406564Y60785D01*
X406573Y60817D01*
X406581Y60858D01*
X406587Y60907D01*
X406597Y61031D01*
X406602Y61278D01*
X407602D01*
X407603Y61187D01*
D02*
G37*
G36*
X405603D02*
X405624Y60858D01*
X405632Y60817D01*
X405641Y60785D01*
X405651Y60760D01*
X405662Y60745D01*
X404542D01*
X404554Y60760D01*
X404564Y60785D01*
X404573Y60817D01*
X404581Y60858D01*
X404587Y60907D01*
X404597Y61031D01*
X404602Y61278D01*
X405602D01*
X405603Y61187D01*
D02*
G37*
G36*
X397760D02*
X397781Y60858D01*
X397789Y60817D01*
X397798Y60785D01*
X397808Y60760D01*
X397820Y60745D01*
X396700D01*
X396711Y60760D01*
X396722Y60785D01*
X396730Y60817D01*
X396738Y60858D01*
X396745Y60907D01*
X396754Y61031D01*
X396760Y61278D01*
X397760D01*
X397760Y61187D01*
D02*
G37*
G36*
X395760D02*
X395781Y60858D01*
X395789Y60817D01*
X395798Y60785D01*
X395808Y60760D01*
X395820Y60745D01*
X394700D01*
X394711Y60760D01*
X394722Y60785D01*
X394730Y60817D01*
X394738Y60858D01*
X394745Y60907D01*
X394754Y61031D01*
X394760Y61278D01*
X395760D01*
X395760Y61187D01*
D02*
G37*
G36*
X387918D02*
X387939Y60858D01*
X387947Y60817D01*
X387956Y60785D01*
X387966Y60760D01*
X387977Y60745D01*
X386857D01*
X386869Y60760D01*
X386879Y60785D01*
X386888Y60817D01*
X386896Y60858D01*
X386902Y60907D01*
X386912Y61031D01*
X386917Y61278D01*
X387917D01*
X387918Y61187D01*
D02*
G37*
G36*
X385918D02*
X385939Y60858D01*
X385947Y60817D01*
X385956Y60785D01*
X385966Y60760D01*
X385977Y60745D01*
X384857D01*
X384869Y60760D01*
X384879Y60785D01*
X384888Y60817D01*
X384896Y60858D01*
X384902Y60907D01*
X384912Y61031D01*
X384917Y61278D01*
X385917D01*
X385918Y61187D01*
D02*
G37*
G36*
X378075D02*
X378096Y60858D01*
X378104Y60817D01*
X378113Y60785D01*
X378123Y60760D01*
X378135Y60745D01*
X377015D01*
X377026Y60760D01*
X377036Y60785D01*
X377045Y60817D01*
X377053Y60858D01*
X377060Y60907D01*
X377069Y61031D01*
X377075Y61278D01*
X378075D01*
X378075Y61187D01*
D02*
G37*
G36*
X376075D02*
X376096Y60858D01*
X376104Y60817D01*
X376113Y60785D01*
X376123Y60760D01*
X376135Y60745D01*
X375015D01*
X375026Y60760D01*
X375036Y60785D01*
X375045Y60817D01*
X375053Y60858D01*
X375060Y60907D01*
X375069Y61031D01*
X375075Y61278D01*
X376075D01*
X376075Y61187D01*
D02*
G37*
G36*
X451894Y41502D02*
X451915Y41173D01*
X451923Y41132D01*
X451932Y41100D01*
X451942Y41075D01*
X451954Y41059D01*
X450834D01*
X450845Y41075D01*
X450855Y41100D01*
X450864Y41132D01*
X450872Y41173D01*
X450879Y41222D01*
X450888Y41346D01*
X450894Y41593D01*
X451894D01*
X451894Y41502D01*
D02*
G37*
G36*
X449894D02*
X449915Y41173D01*
X449923Y41132D01*
X449932Y41100D01*
X449942Y41075D01*
X449954Y41059D01*
X448834D01*
X448845Y41075D01*
X448855Y41100D01*
X448864Y41132D01*
X448872Y41173D01*
X448879Y41222D01*
X448888Y41346D01*
X448894Y41593D01*
X449894D01*
X449894Y41502D01*
D02*
G37*
G36*
X442052D02*
X442073Y41173D01*
X442081Y41132D01*
X442090Y41100D01*
X442100Y41075D01*
X442111Y41059D01*
X440991D01*
X441003Y41075D01*
X441013Y41100D01*
X441022Y41132D01*
X441030Y41173D01*
X441036Y41222D01*
X441046Y41346D01*
X441051Y41593D01*
X442051D01*
X442052Y41502D01*
D02*
G37*
G36*
X440052D02*
X440073Y41173D01*
X440081Y41132D01*
X440090Y41100D01*
X440100Y41075D01*
X440111Y41059D01*
X438991D01*
X439003Y41075D01*
X439013Y41100D01*
X439022Y41132D01*
X439030Y41173D01*
X439036Y41222D01*
X439046Y41346D01*
X439051Y41593D01*
X440051D01*
X440052Y41502D01*
D02*
G37*
G36*
X432209Y41502D02*
X432230Y41173D01*
X432238Y41132D01*
X432247Y41100D01*
X432257Y41075D01*
X432269Y41059D01*
X431149D01*
X431160Y41075D01*
X431170Y41100D01*
X431179Y41132D01*
X431187Y41173D01*
X431194Y41222D01*
X431203Y41346D01*
X431209Y41593D01*
X432209D01*
X432209Y41502D01*
D02*
G37*
G36*
X430209D02*
X430230Y41173D01*
X430238Y41132D01*
X430247Y41100D01*
X430257Y41075D01*
X430269Y41059D01*
X429149D01*
X429160Y41075D01*
X429170Y41100D01*
X429179Y41132D01*
X429187Y41173D01*
X429194Y41222D01*
X429203Y41346D01*
X429209Y41593D01*
X430209D01*
X430209Y41502D01*
D02*
G37*
G36*
X422367D02*
X422388Y41173D01*
X422396Y41132D01*
X422405Y41100D01*
X422415Y41075D01*
X422426Y41059D01*
X421306D01*
X421318Y41075D01*
X421328Y41100D01*
X421337Y41132D01*
X421345Y41173D01*
X421351Y41222D01*
X421361Y41346D01*
X421366Y41593D01*
X422366D01*
X422367Y41502D01*
D02*
G37*
G36*
X420367D02*
X420388Y41173D01*
X420396Y41132D01*
X420405Y41100D01*
X420415Y41075D01*
X420426Y41059D01*
X419306D01*
X419318Y41075D01*
X419328Y41100D01*
X419337Y41132D01*
X419345Y41173D01*
X419351Y41222D01*
X419361Y41346D01*
X419366Y41593D01*
X420366D01*
X420367Y41502D01*
D02*
G37*
G36*
X412524D02*
X412545Y41173D01*
X412553Y41132D01*
X412562Y41100D01*
X412572Y41075D01*
X412584Y41059D01*
X411464D01*
X411475Y41075D01*
X411485Y41100D01*
X411494Y41132D01*
X411502Y41173D01*
X411509Y41222D01*
X411518Y41346D01*
X411524Y41593D01*
X412524D01*
X412524Y41502D01*
D02*
G37*
G36*
X410524D02*
X410545Y41173D01*
X410553Y41132D01*
X410562Y41100D01*
X410572Y41075D01*
X410584Y41059D01*
X409464D01*
X409475Y41075D01*
X409485Y41100D01*
X409494Y41132D01*
X409502Y41173D01*
X409509Y41222D01*
X409518Y41346D01*
X409524Y41593D01*
X410524D01*
X410524Y41502D01*
D02*
G37*
G36*
X402682D02*
X402703Y41173D01*
X402710Y41132D01*
X402719Y41100D01*
X402730Y41075D01*
X402741Y41059D01*
X401621D01*
X401632Y41075D01*
X401643Y41100D01*
X401652Y41132D01*
X401659Y41173D01*
X401666Y41222D01*
X401676Y41346D01*
X401681Y41593D01*
X402681D01*
X402682Y41502D01*
D02*
G37*
G36*
X400682D02*
X400703Y41173D01*
X400710Y41132D01*
X400719Y41100D01*
X400730Y41075D01*
X400741Y41059D01*
X399621D01*
X399633Y41075D01*
X399643Y41100D01*
X399652Y41132D01*
X399659Y41173D01*
X399666Y41222D01*
X399676Y41346D01*
X399681Y41593D01*
X400681D01*
X400682Y41502D01*
D02*
G37*
G36*
X392839D02*
X392860Y41173D01*
X392868Y41132D01*
X392877Y41100D01*
X392887Y41075D01*
X392899Y41059D01*
X391779D01*
X391790Y41075D01*
X391800Y41100D01*
X391809Y41132D01*
X391817Y41173D01*
X391824Y41222D01*
X391833Y41346D01*
X391839Y41593D01*
X392839D01*
X392839Y41502D01*
D02*
G37*
G36*
X390839D02*
X390860Y41173D01*
X390868Y41132D01*
X390877Y41100D01*
X390887Y41075D01*
X390899Y41059D01*
X389779D01*
X389790Y41075D01*
X389800Y41100D01*
X389809Y41132D01*
X389817Y41173D01*
X389824Y41222D01*
X389833Y41346D01*
X389839Y41593D01*
X390839D01*
X390839Y41502D01*
D02*
G37*
G36*
X382997D02*
X383018Y41173D01*
X383026Y41132D01*
X383034Y41100D01*
X383045Y41075D01*
X383056Y41059D01*
X381936D01*
X381947Y41075D01*
X381958Y41100D01*
X381967Y41132D01*
X381975Y41173D01*
X381981Y41222D01*
X381991Y41346D01*
X381996Y41593D01*
X382996D01*
X382997Y41502D01*
D02*
G37*
G36*
X380997D02*
X381018Y41173D01*
X381026Y41132D01*
X381034Y41100D01*
X381045Y41075D01*
X381056Y41059D01*
X379936D01*
X379947Y41075D01*
X379958Y41100D01*
X379967Y41132D01*
X379975Y41173D01*
X379981Y41222D01*
X379991Y41346D01*
X379996Y41593D01*
X380996D01*
X380997Y41502D01*
D02*
G37*
G36*
X446973Y21817D02*
X446994Y21488D01*
X447002Y21447D01*
X447011Y21415D01*
X447021Y21390D01*
X447032Y21374D01*
X445912D01*
X445924Y21390D01*
X445934Y21415D01*
X445943Y21447D01*
X445951Y21488D01*
X445957Y21537D01*
X445967Y21660D01*
X445972Y21908D01*
X446973D01*
X446973Y21817D01*
D02*
G37*
G36*
X444973D02*
X444994Y21488D01*
X445002Y21447D01*
X445011Y21415D01*
X445021Y21390D01*
X445032Y21374D01*
X443912D01*
X443924Y21390D01*
X443934Y21415D01*
X443943Y21447D01*
X443951Y21488D01*
X443957Y21537D01*
X443967Y21660D01*
X443972Y21908D01*
X444973D01*
X444973Y21817D01*
D02*
G37*
G36*
X437130D02*
X437151Y21488D01*
X437159Y21447D01*
X437168Y21415D01*
X437179Y21390D01*
X437190Y21374D01*
X436070D01*
X436081Y21390D01*
X436092Y21415D01*
X436100Y21447D01*
X436108Y21488D01*
X436115Y21537D01*
X436125Y21660D01*
X436130Y21908D01*
X437130D01*
X437130Y21817D01*
D02*
G37*
G36*
X435131D02*
X435151Y21488D01*
X435159Y21447D01*
X435168Y21415D01*
X435179Y21390D01*
X435190Y21374D01*
X434070D01*
X434081Y21390D01*
X434092Y21415D01*
X434100Y21447D01*
X434108Y21488D01*
X434115Y21537D01*
X434125Y21660D01*
X434130Y21908D01*
X435130D01*
X435131Y21817D01*
D02*
G37*
G36*
X427288D02*
X427309Y21488D01*
X427317Y21447D01*
X427326Y21415D01*
X427336Y21390D01*
X427347Y21374D01*
X426227D01*
X426239Y21390D01*
X426249Y21415D01*
X426258Y21447D01*
X426266Y21488D01*
X426272Y21537D01*
X426282Y21660D01*
X426287Y21908D01*
X427287D01*
X427288Y21817D01*
D02*
G37*
G36*
X425288D02*
X425309Y21488D01*
X425317Y21447D01*
X425326Y21415D01*
X425336Y21390D01*
X425347Y21374D01*
X424227D01*
X424239Y21390D01*
X424249Y21415D01*
X424258Y21447D01*
X424266Y21488D01*
X424272Y21537D01*
X424282Y21660D01*
X424287Y21908D01*
X425287D01*
X425288Y21817D01*
D02*
G37*
G36*
X417446D02*
X417466Y21488D01*
X417474Y21447D01*
X417483Y21415D01*
X417493Y21390D01*
X417505Y21374D01*
X416385D01*
X416396Y21390D01*
X416406Y21415D01*
X416416Y21447D01*
X416423Y21488D01*
X416430Y21537D01*
X416439Y21660D01*
X416445Y21908D01*
X417445D01*
X417446Y21817D01*
D02*
G37*
G36*
X415446D02*
X415466Y21488D01*
X415474Y21447D01*
X415483Y21415D01*
X415493Y21390D01*
X415505Y21374D01*
X414385D01*
X414396Y21390D01*
X414406Y21415D01*
X414416Y21447D01*
X414423Y21488D01*
X414430Y21537D01*
X414439Y21660D01*
X414445Y21908D01*
X415445D01*
X415446Y21817D01*
D02*
G37*
G36*
X407603D02*
X407624Y21488D01*
X407632Y21447D01*
X407641Y21415D01*
X407651Y21390D01*
X407662Y21374D01*
X406542D01*
X406554Y21390D01*
X406564Y21415D01*
X406573Y21447D01*
X406581Y21488D01*
X406587Y21537D01*
X406597Y21660D01*
X406602Y21908D01*
X407602D01*
X407603Y21817D01*
D02*
G37*
G36*
X405603D02*
X405624Y21488D01*
X405632Y21447D01*
X405641Y21415D01*
X405651Y21390D01*
X405662Y21374D01*
X404542D01*
X404554Y21390D01*
X404564Y21415D01*
X404573Y21447D01*
X404581Y21488D01*
X404587Y21537D01*
X404597Y21660D01*
X404602Y21908D01*
X405602D01*
X405603Y21817D01*
D02*
G37*
G36*
X397760D02*
X397781Y21488D01*
X397789Y21447D01*
X397798Y21415D01*
X397808Y21390D01*
X397820Y21374D01*
X396700D01*
X396711Y21390D01*
X396722Y21415D01*
X396730Y21447D01*
X396738Y21488D01*
X396745Y21537D01*
X396754Y21660D01*
X396760Y21908D01*
X397760D01*
X397760Y21817D01*
D02*
G37*
G36*
X395760D02*
X395781Y21488D01*
X395789Y21447D01*
X395798Y21415D01*
X395808Y21390D01*
X395820Y21374D01*
X394700D01*
X394711Y21390D01*
X394722Y21415D01*
X394730Y21447D01*
X394738Y21488D01*
X394745Y21537D01*
X394754Y21660D01*
X394760Y21908D01*
X395760D01*
X395760Y21817D01*
D02*
G37*
G36*
X388902D02*
X388923Y21488D01*
X388931Y21447D01*
X388940Y21415D01*
X388950Y21390D01*
X388962Y21374D01*
X387842D01*
X387853Y21390D01*
X387863Y21415D01*
X387872Y21447D01*
X387880Y21488D01*
X387887Y21537D01*
X387896Y21660D01*
X387902Y21908D01*
X388902D01*
X388902Y21817D01*
D02*
G37*
G36*
X386902D02*
X386923Y21488D01*
X386931Y21447D01*
X386940Y21415D01*
X386950Y21390D01*
X386962Y21374D01*
X385842D01*
X385853Y21390D01*
X385863Y21415D01*
X385872Y21447D01*
X385880Y21488D01*
X385887Y21537D01*
X385896Y21660D01*
X385902Y21908D01*
X386902D01*
X386902Y21817D01*
D02*
G37*
G36*
X379060D02*
X379081Y21488D01*
X379088Y21447D01*
X379098Y21415D01*
X379108Y21390D01*
X379119Y21374D01*
X377999D01*
X378011Y21390D01*
X378021Y21415D01*
X378030Y21447D01*
X378038Y21488D01*
X378044Y21537D01*
X378054Y21660D01*
X378059Y21908D01*
X379059D01*
X379060Y21817D01*
D02*
G37*
G36*
X377060D02*
X377081Y21488D01*
X377088Y21447D01*
X377098Y21415D01*
X377108Y21390D01*
X377119Y21374D01*
X375999D01*
X376010Y21390D01*
X376021Y21415D01*
X376030Y21447D01*
X376038Y21488D01*
X376044Y21537D01*
X376054Y21660D01*
X376059Y21908D01*
X377059D01*
X377060Y21817D01*
D02*
G37*
G36*
X172474Y-39383D02*
X172578D01*
X172692Y-39393D01*
X172828Y-39414D01*
X172963Y-39424D01*
X173265Y-39487D01*
X173567Y-39570D01*
X173869Y-39674D01*
X174004Y-39747D01*
X174129Y-39830D01*
X174139D01*
X174160Y-39851D01*
X174191Y-39882D01*
X174233Y-39914D01*
X174285Y-39966D01*
X174337Y-40028D01*
X174400Y-40091D01*
X174472Y-40174D01*
X174535Y-40268D01*
X174597Y-40382D01*
X174670Y-40497D01*
X174722Y-40622D01*
X174785Y-40767D01*
X174826Y-40923D01*
X174868Y-41090D01*
X174899Y-41267D01*
X173057Y-41371D01*
Y-41350D01*
X173036Y-41298D01*
X173015Y-41225D01*
X172984Y-41132D01*
X172942Y-41028D01*
X172890Y-40923D01*
X172817Y-40830D01*
X172734Y-40747D01*
X172724Y-40736D01*
X172692Y-40715D01*
X172640Y-40684D01*
X172567Y-40642D01*
X172474Y-40611D01*
X172359Y-40580D01*
X172234Y-40559D01*
X172078Y-40549D01*
X172026D01*
X171964Y-40559D01*
X171880Y-40569D01*
X171714Y-40611D01*
X171631Y-40642D01*
X171558Y-40694D01*
X171547Y-40705D01*
X171537Y-40715D01*
X171506Y-40747D01*
X171474Y-40788D01*
X171422Y-40903D01*
X171402Y-40975D01*
X171391Y-41048D01*
Y-41059D01*
Y-41069D01*
X171412Y-41142D01*
X171453Y-41225D01*
X171485Y-41277D01*
X171537Y-41319D01*
X171547Y-41329D01*
X171568Y-41340D01*
X171610Y-41361D01*
X171672Y-41392D01*
X171755Y-41434D01*
X171870Y-41475D01*
X172016Y-41517D01*
X172193Y-41558D01*
X172203D01*
X172245Y-41569D01*
X172318Y-41590D01*
X172401Y-41600D01*
X172505Y-41631D01*
X172630Y-41662D01*
X172765Y-41694D01*
X172911Y-41725D01*
X173213Y-41819D01*
X173515Y-41912D01*
X173660Y-41964D01*
X173796Y-42017D01*
X173921Y-42068D01*
X174035Y-42121D01*
X174046D01*
X174056Y-42131D01*
X174087Y-42152D01*
X174129Y-42173D01*
X174223Y-42235D01*
X174347Y-42308D01*
X174483Y-42412D01*
X174618Y-42537D01*
X174743Y-42672D01*
X174847Y-42818D01*
X174858Y-42839D01*
X174889Y-42891D01*
X174931Y-42974D01*
X174983Y-43089D01*
X175024Y-43234D01*
X175066Y-43391D01*
X175097Y-43568D01*
X175107Y-43755D01*
Y-43765D01*
Y-43786D01*
Y-43817D01*
Y-43859D01*
X175087Y-43974D01*
X175066Y-44130D01*
X175024Y-44296D01*
X174962Y-44484D01*
X174878Y-44681D01*
X174764Y-44879D01*
Y-44890D01*
X174753Y-44900D01*
X174701Y-44962D01*
X174629Y-45056D01*
X174524Y-45171D01*
X174389Y-45296D01*
X174223Y-45421D01*
X174035Y-45546D01*
X173817Y-45660D01*
X173806D01*
X173785Y-45670D01*
X173754Y-45681D01*
X173713Y-45702D01*
X173650Y-45722D01*
X173577Y-45743D01*
X173494Y-45764D01*
X173400Y-45785D01*
X173296Y-45816D01*
X173182Y-45837D01*
X172921Y-45879D01*
X172619Y-45910D01*
X172286Y-45920D01*
X172130D01*
X172026Y-45910D01*
X171891Y-45899D01*
X171745Y-45889D01*
X171578Y-45868D01*
X171402Y-45847D01*
X171027Y-45774D01*
X170839Y-45722D01*
X170652Y-45660D01*
X170475Y-45587D01*
X170319Y-45504D01*
X170163Y-45410D01*
X170038Y-45306D01*
X170027Y-45296D01*
X170007Y-45275D01*
X169975Y-45244D01*
X169944Y-45191D01*
X169892Y-45129D01*
X169840Y-45056D01*
X169778Y-44973D01*
X169715Y-44869D01*
X169653Y-44765D01*
X169590Y-44640D01*
X169476Y-44380D01*
X169392Y-44067D01*
X169361Y-43901D01*
X169340Y-43724D01*
X171204Y-43599D01*
Y-43620D01*
X171214Y-43672D01*
X171235Y-43755D01*
X171256Y-43859D01*
X171287Y-43974D01*
X171329Y-44088D01*
X171381Y-44192D01*
X171443Y-44296D01*
X171453Y-44317D01*
X171506Y-44359D01*
X171568Y-44411D01*
X171672Y-44484D01*
X171797Y-44556D01*
X171943Y-44609D01*
X172120Y-44650D01*
X172318Y-44671D01*
X172390D01*
X172463Y-44661D01*
X172557Y-44650D01*
X172661Y-44629D01*
X172776Y-44588D01*
X172880Y-44546D01*
X172973Y-44484D01*
X172984Y-44473D01*
X173005Y-44452D01*
X173046Y-44411D01*
X173088Y-44348D01*
X173129Y-44286D01*
X173171Y-44203D01*
X173192Y-44119D01*
X173202Y-44026D01*
Y-44015D01*
Y-43984D01*
X173192Y-43932D01*
X173171Y-43880D01*
X173150Y-43807D01*
X173109Y-43734D01*
X173057Y-43661D01*
X172984Y-43588D01*
X172973Y-43578D01*
X172942Y-43557D01*
X172869Y-43516D01*
X172776Y-43464D01*
X172640Y-43411D01*
X172557Y-43380D01*
X172463Y-43349D01*
X172359Y-43318D01*
X172245Y-43276D01*
X172120Y-43245D01*
X171974Y-43214D01*
X171964D01*
X171922Y-43203D01*
X171849Y-43182D01*
X171766Y-43162D01*
X171662Y-43130D01*
X171537Y-43099D01*
X171402Y-43058D01*
X171256Y-43016D01*
X170954Y-42901D01*
X170652Y-42776D01*
X170506Y-42704D01*
X170371Y-42620D01*
X170246Y-42537D01*
X170132Y-42454D01*
X170121Y-42443D01*
X170111Y-42433D01*
X170079Y-42402D01*
X170048Y-42370D01*
X169955Y-42266D01*
X169861Y-42121D01*
X169757Y-41944D01*
X169663Y-41735D01*
X169600Y-41496D01*
X169590Y-41361D01*
X169580Y-41225D01*
Y-41215D01*
Y-41205D01*
Y-41142D01*
X169590Y-41048D01*
X169611Y-40923D01*
X169653Y-40788D01*
X169694Y-40632D01*
X169767Y-40476D01*
X169861Y-40309D01*
X169871Y-40288D01*
X169913Y-40236D01*
X169975Y-40153D01*
X170069Y-40059D01*
X170194Y-39945D01*
X170340Y-39830D01*
X170517Y-39726D01*
X170714Y-39622D01*
X170725D01*
X170746Y-39612D01*
X170777Y-39601D01*
X170818Y-39581D01*
X170881Y-39560D01*
X170943Y-39539D01*
X171027Y-39518D01*
X171120Y-39497D01*
X171235Y-39476D01*
X171349Y-39456D01*
X171474Y-39435D01*
X171620Y-39414D01*
X171766Y-39393D01*
X171922Y-39383D01*
X172276Y-39372D01*
X172390D01*
X172474Y-39383D01*
D02*
G37*
G36*
X26368Y-33752D02*
X27377Y-33850D01*
X28659Y-34051D01*
X29751Y-34308D01*
X30805Y-34635D01*
X31823Y-35030D01*
X32803Y-35491D01*
X33746Y-36018D01*
X34651Y-36607D01*
X35518Y-37257D01*
X32333Y-41875D01*
X31340Y-41241D01*
X30805Y-40905D01*
X30278Y-40630D01*
X29393Y-40169D01*
X28659Y-39882D01*
X27942Y-39602D01*
X27222Y-39398D01*
X26864Y-39323D01*
X26437Y-39240D01*
X26046Y-39191D01*
X25795Y-39159D01*
X25481Y-39145D01*
X25167Y-39131D01*
X24752Y-39144D01*
X24379Y-39165D01*
X23701Y-39281D01*
X23124Y-39462D01*
X22812Y-39593D01*
X22645Y-39695D01*
X22415Y-39835D01*
X22090Y-40117D01*
X21829Y-40447D01*
X21639Y-40830D01*
X21536Y-41216D01*
X21505Y-41557D01*
X21536Y-42107D01*
X21639Y-42524D01*
X21835Y-42913D01*
X22098Y-43235D01*
X22477Y-43545D01*
X22970Y-43835D01*
X23588Y-44116D01*
X24341Y-44394D01*
X26296Y-44977D01*
X15810D01*
X15479Y-43405D01*
X15414Y-42114D01*
X15533Y-40650D01*
X15881Y-39299D01*
X16444Y-38070D01*
X17207Y-36973D01*
X18156Y-36018D01*
X19275Y-35215D01*
X20550Y-34573D01*
X21901Y-34124D01*
X23701Y-33802D01*
X25167Y-33714D01*
X26368Y-33752D01*
D02*
G37*
G36*
X99391Y-33119D02*
X100884Y-33248D01*
X102383Y-33540D01*
X103722Y-33941D01*
X105051Y-34490D01*
X106309Y-35164D01*
X107489Y-35954D01*
X108583Y-36854D01*
X109583Y-37855D01*
X105845Y-42174D01*
X104761Y-41040D01*
X104028Y-40444D01*
X103234Y-39928D01*
X102383Y-39500D01*
X101483Y-39164D01*
X100539Y-38927D01*
X99556Y-38796D01*
X98434Y-38782D01*
X97125Y-38947D01*
X95883Y-39298D01*
X94724Y-39820D01*
X93661Y-40498D01*
X92696Y-41333D01*
X91885Y-42263D01*
X91200Y-43321D01*
X90669Y-44477D01*
X84804D01*
X84866Y-44089D01*
X85197Y-42950D01*
X85616Y-41853D01*
X86120Y-40800D01*
X86704Y-39796D01*
X87035Y-39321D01*
X87365Y-38846D01*
X88098Y-37953D01*
X88898Y-37122D01*
X89763Y-36357D01*
X90687Y-35662D01*
X91666Y-35042D01*
X92711Y-34494D01*
X93774Y-34041D01*
X94894Y-33669D01*
X96053Y-33388D01*
X97246Y-33202D01*
X98434Y-33119D01*
X99391Y-33119D01*
D02*
G37*
G36*
X242710Y-45816D02*
X240867D01*
X238494Y-42339D01*
Y-45816D01*
X236651D01*
Y-39476D01*
X238473D01*
X240867Y-42985D01*
Y-39476D01*
X242710D01*
Y-45816D01*
D02*
G37*
G36*
X228979D02*
X227376D01*
Y-40986D01*
X226137Y-45816D01*
X224680D01*
X223451Y-40986D01*
Y-45816D01*
X221848D01*
Y-39476D01*
X224430D01*
X225409Y-43339D01*
X226397Y-39476D01*
X228979D01*
Y-45816D01*
D02*
G37*
G36*
X165447Y-43255D02*
Y-43266D01*
Y-43276D01*
Y-43307D01*
Y-43349D01*
X165437Y-43464D01*
X165426Y-43599D01*
X165405Y-43765D01*
X165374Y-43942D01*
X165332Y-44130D01*
X165270Y-44317D01*
Y-44328D01*
X165260Y-44338D01*
X165239Y-44400D01*
X165197Y-44494D01*
X165135Y-44609D01*
X165062Y-44754D01*
X164968Y-44900D01*
X164854Y-45046D01*
X164718Y-45191D01*
X164697Y-45212D01*
X164656Y-45254D01*
X164583Y-45316D01*
X164479Y-45400D01*
X164364Y-45483D01*
X164229Y-45566D01*
X164083Y-45650D01*
X163927Y-45712D01*
X163917D01*
X163906Y-45722D01*
X163875Y-45733D01*
X163823Y-45743D01*
X163771Y-45764D01*
X163708Y-45774D01*
X163542Y-45816D01*
X163344Y-45858D01*
X163115Y-45889D01*
X162855Y-45910D01*
X162563Y-45920D01*
X162386D01*
X162261Y-45910D01*
X162105D01*
X161939Y-45889D01*
X161741Y-45879D01*
X161543Y-45858D01*
X161522D01*
X161491Y-45847D01*
X161450D01*
X161356Y-45827D01*
X161231Y-45806D01*
X161085Y-45764D01*
X160929Y-45722D01*
X160773Y-45670D01*
X160627Y-45608D01*
X160606Y-45597D01*
X160565Y-45566D01*
X160492Y-45525D01*
X160408Y-45462D01*
X160304Y-45389D01*
X160190Y-45296D01*
X160075Y-45181D01*
X159961Y-45056D01*
X159950Y-45035D01*
X159909Y-44994D01*
X159857Y-44921D01*
X159794Y-44827D01*
X159732Y-44723D01*
X159659Y-44598D01*
X159597Y-44463D01*
X159545Y-44328D01*
Y-44317D01*
X159534Y-44296D01*
X159524Y-44265D01*
X159513Y-44223D01*
X159492Y-44109D01*
X159461Y-43963D01*
X159420Y-43797D01*
X159399Y-43620D01*
X159378Y-43432D01*
X159368Y-43255D01*
Y-39476D01*
X161325D01*
Y-43349D01*
Y-43359D01*
Y-43370D01*
Y-43432D01*
X161335Y-43526D01*
X161356Y-43640D01*
X161398Y-43765D01*
X161439Y-43901D01*
X161512Y-44036D01*
X161606Y-44151D01*
X161616Y-44161D01*
X161658Y-44192D01*
X161720Y-44244D01*
X161814Y-44296D01*
X161928Y-44348D01*
X162064Y-44400D01*
X162230Y-44432D01*
X162407Y-44442D01*
X162490D01*
X162584Y-44432D01*
X162699Y-44411D01*
X162824Y-44369D01*
X162949Y-44328D01*
X163084Y-44255D01*
X163198Y-44161D01*
X163209Y-44151D01*
X163240Y-44109D01*
X163292Y-44036D01*
X163344Y-43953D01*
X163396Y-43838D01*
X163448Y-43692D01*
X163479Y-43536D01*
X163490Y-43349D01*
Y-39476D01*
X165447D01*
Y-43255D01*
D02*
G37*
G36*
X80045Y-44477D02*
X64977D01*
X69685Y-33414D01*
X75337D01*
X80045Y-44477D01*
D02*
G37*
G36*
X265612Y-40840D02*
X262728D01*
Y-41944D01*
X265196D01*
Y-43224D01*
X262728D01*
Y-45816D01*
X260761D01*
Y-39476D01*
X265612D01*
Y-40840D01*
D02*
G37*
G36*
X249529Y-41038D02*
X247530D01*
Y-45816D01*
X245573D01*
Y-41038D01*
X243574D01*
Y-39476D01*
X249529D01*
Y-41038D01*
D02*
G37*
G36*
X235485Y-40830D02*
X232196D01*
Y-41840D01*
X235246D01*
Y-43130D01*
X232196D01*
Y-44380D01*
X235579D01*
Y-45816D01*
X230228D01*
Y-39476D01*
X235485D01*
Y-40830D01*
D02*
G37*
G36*
X220984Y-41038D02*
X218986D01*
Y-45816D01*
X217028D01*
Y-41038D01*
X215030D01*
Y-39476D01*
X220984D01*
Y-41038D01*
D02*
G37*
G36*
X212177Y-39487D02*
X212386Y-39497D01*
X212604Y-39518D01*
X212844Y-39539D01*
X213062Y-39581D01*
X213260Y-39633D01*
X213270D01*
X213281Y-39643D01*
X213343Y-39664D01*
X213427Y-39706D01*
X213541Y-39768D01*
X213656Y-39841D01*
X213791Y-39945D01*
X213916Y-40070D01*
X214030Y-40216D01*
X214041Y-40236D01*
X214083Y-40288D01*
X214124Y-40382D01*
X214187Y-40497D01*
X214239Y-40653D01*
X214291Y-40830D01*
X214322Y-41028D01*
X214332Y-41246D01*
Y-41256D01*
Y-41267D01*
Y-41329D01*
X214322Y-41434D01*
X214301Y-41558D01*
X214280Y-41694D01*
X214239Y-41850D01*
X214176Y-42006D01*
X214103Y-42152D01*
X214093Y-42173D01*
X214062Y-42214D01*
X214010Y-42287D01*
X213937Y-42370D01*
X213854Y-42474D01*
X213739Y-42579D01*
X213624Y-42683D01*
X213479Y-42776D01*
X213468Y-42787D01*
X213437Y-42797D01*
X213375Y-42829D01*
X213302Y-42860D01*
X213198Y-42901D01*
X213083Y-42943D01*
X212948Y-42985D01*
X212792Y-43026D01*
X212802D01*
X212844Y-43047D01*
X212906Y-43068D01*
X212979Y-43099D01*
X213146Y-43172D01*
X213229Y-43214D01*
X213291Y-43255D01*
X213302D01*
X213312Y-43276D01*
X213343Y-43297D01*
X213375Y-43328D01*
X213416Y-43380D01*
X213468Y-43432D01*
X213531Y-43505D01*
X213604Y-43599D01*
X213614Y-43609D01*
X213635Y-43640D01*
X213677Y-43682D01*
X213718Y-43745D01*
X213812Y-43870D01*
X213854Y-43932D01*
X213885Y-43984D01*
X214842Y-45816D01*
X212625D01*
X211574Y-43890D01*
X211563Y-43870D01*
X211542Y-43828D01*
X211501Y-43765D01*
X211459Y-43682D01*
X211397Y-43599D01*
X211345Y-43526D01*
X211282Y-43453D01*
X211220Y-43401D01*
X211209Y-43391D01*
X211189Y-43380D01*
X211137Y-43349D01*
X211084Y-43318D01*
X211012Y-43297D01*
X210928Y-43266D01*
X210835Y-43255D01*
X210741Y-43245D01*
X210574D01*
Y-45816D01*
X208607D01*
Y-39476D01*
X212094D01*
X212177Y-39487D01*
D02*
G37*
G36*
X207951Y-45816D02*
X205890D01*
X205577Y-44765D01*
X203360D01*
X203048Y-45816D01*
X201049D01*
X203423Y-39476D01*
X205577D01*
X207951Y-45816D01*
D02*
G37*
G36*
X198707Y-39487D02*
X198790D01*
X198894Y-39508D01*
X199009Y-39518D01*
X199134Y-39539D01*
X199394Y-39601D01*
X199654Y-39695D01*
X199790Y-39747D01*
X199915Y-39820D01*
X200029Y-39893D01*
X200133Y-39987D01*
X200144Y-39997D01*
X200154Y-40007D01*
X200185Y-40039D01*
X200216Y-40080D01*
X200258Y-40132D01*
X200300Y-40195D01*
X200352Y-40268D01*
X200404Y-40361D01*
X200445Y-40455D01*
X200497Y-40559D01*
X200539Y-40684D01*
X200581Y-40809D01*
X200643Y-41090D01*
X200654Y-41256D01*
X200664Y-41423D01*
Y-41434D01*
Y-41465D01*
Y-41517D01*
X200654Y-41579D01*
X200643Y-41662D01*
X200633Y-41756D01*
X200612Y-41860D01*
X200591Y-41975D01*
X200518Y-42214D01*
X200414Y-42464D01*
X200352Y-42589D01*
X200279Y-42714D01*
X200185Y-42829D01*
X200081Y-42933D01*
X200071Y-42943D01*
X200050Y-42953D01*
X200019Y-42985D01*
X199977Y-43016D01*
X199915Y-43058D01*
X199842Y-43099D01*
X199748Y-43151D01*
X199644Y-43193D01*
X199529Y-43245D01*
X199404Y-43297D01*
X199259Y-43339D01*
X199102Y-43380D01*
X198925Y-43411D01*
X198738Y-43443D01*
X198540Y-43453D01*
X198322Y-43464D01*
X197249D01*
Y-45816D01*
X195282D01*
Y-39476D01*
X198634D01*
X198707Y-39487D01*
D02*
G37*
G36*
X194137Y-40830D02*
X190847D01*
Y-41840D01*
X193897D01*
Y-43130D01*
X190847D01*
Y-44380D01*
X194231D01*
Y-45816D01*
X188880D01*
Y-39476D01*
X194137D01*
Y-40830D01*
D02*
G37*
G36*
X185143Y-39487D02*
X185226D01*
X185413Y-39508D01*
X185642Y-39539D01*
X185871Y-39581D01*
X186100Y-39633D01*
X186309Y-39716D01*
X186319D01*
X186329Y-39726D01*
X186402Y-39757D01*
X186496Y-39810D01*
X186621Y-39882D01*
X186756Y-39976D01*
X186902Y-40091D01*
X187048Y-40226D01*
X187183Y-40382D01*
X187204Y-40403D01*
X187246Y-40455D01*
X187308Y-40549D01*
X187381Y-40674D01*
X187464Y-40819D01*
X187547Y-40996D01*
X187631Y-41194D01*
X187693Y-41402D01*
Y-41413D01*
X187704Y-41423D01*
Y-41465D01*
X187714Y-41506D01*
X187735Y-41558D01*
X187745Y-41621D01*
X187776Y-41777D01*
X187797Y-41954D01*
X187829Y-42162D01*
X187839Y-42391D01*
X187849Y-42631D01*
Y-42641D01*
Y-42672D01*
Y-42724D01*
Y-42797D01*
X187839Y-42880D01*
Y-42985D01*
X187829Y-43089D01*
X187818Y-43214D01*
X187787Y-43464D01*
X187745Y-43724D01*
X187693Y-43984D01*
X187652Y-44098D01*
X187610Y-44213D01*
Y-44223D01*
X187599Y-44234D01*
X187589Y-44265D01*
X187568Y-44307D01*
X187516Y-44411D01*
X187443Y-44536D01*
X187350Y-44681D01*
X187246Y-44838D01*
X187110Y-44994D01*
X186964Y-45150D01*
X186944Y-45171D01*
X186892Y-45212D01*
X186808Y-45275D01*
X186704Y-45348D01*
X186569Y-45441D01*
X186423Y-45514D01*
X186267Y-45587D01*
X186090Y-45650D01*
X186080D01*
X186059Y-45660D01*
X186028D01*
X185986Y-45670D01*
X185923Y-45691D01*
X185861Y-45702D01*
X185705Y-45733D01*
X185517Y-45764D01*
X185330Y-45785D01*
X185122Y-45806D01*
X184924Y-45816D01*
X182020D01*
Y-39476D01*
X185070D01*
X185143Y-39487D01*
D02*
G37*
G36*
X177866Y-45816D02*
X175982D01*
Y-44046D01*
X177866D01*
Y-45816D01*
D02*
G37*
G36*
X168518D02*
X166634D01*
Y-44046D01*
X168518D01*
Y-45816D01*
D02*
G37*
G36*
X256555Y-39383D02*
X256659D01*
X256795Y-39393D01*
X256941Y-39414D01*
X257117Y-39445D01*
X257294Y-39476D01*
X257492Y-39529D01*
X257690Y-39581D01*
X257888Y-39653D01*
X258096Y-39737D01*
X258294Y-39830D01*
X258481Y-39945D01*
X258668Y-40080D01*
X258835Y-40226D01*
X258845Y-40236D01*
X258877Y-40268D01*
X258918Y-40309D01*
X258970Y-40382D01*
X259033Y-40465D01*
X259106Y-40580D01*
X259189Y-40705D01*
X259272Y-40840D01*
X259345Y-41007D01*
X259428Y-41184D01*
X259501Y-41371D01*
X259564Y-41590D01*
X259616Y-41819D01*
X259658Y-42058D01*
X259689Y-42318D01*
X259699Y-42599D01*
Y-42610D01*
Y-42652D01*
Y-42704D01*
X259689Y-42787D01*
Y-42880D01*
X259678Y-42985D01*
X259668Y-43110D01*
X259658Y-43245D01*
X259605Y-43536D01*
X259543Y-43838D01*
X259449Y-44151D01*
X259324Y-44432D01*
Y-44442D01*
X259303Y-44463D01*
X259283Y-44494D01*
X259251Y-44546D01*
X259220Y-44609D01*
X259168Y-44671D01*
X259054Y-44838D01*
X258897Y-45015D01*
X258710Y-45191D01*
X258491Y-45379D01*
X258242Y-45535D01*
X258231D01*
X258210Y-45556D01*
X258169Y-45566D01*
X258117Y-45597D01*
X258044Y-45629D01*
X257961Y-45660D01*
X257867Y-45691D01*
X257752Y-45722D01*
X257638Y-45764D01*
X257503Y-45795D01*
X257357Y-45827D01*
X257201Y-45858D01*
X256857Y-45899D01*
X256472Y-45920D01*
X256368D01*
X256295Y-45910D01*
X256201D01*
X256097Y-45899D01*
X255972Y-45889D01*
X255847Y-45879D01*
X255566Y-45837D01*
X255264Y-45774D01*
X254973Y-45702D01*
X254692Y-45587D01*
X254681D01*
X254661Y-45566D01*
X254629Y-45546D01*
X254577Y-45525D01*
X254515Y-45483D01*
X254452Y-45441D01*
X254286Y-45327D01*
X254109Y-45171D01*
X253922Y-44983D01*
X253734Y-44765D01*
X253557Y-44504D01*
Y-44494D01*
X253536Y-44473D01*
X253516Y-44432D01*
X253495Y-44369D01*
X253464Y-44296D01*
X253422Y-44213D01*
X253380Y-44109D01*
X253349Y-43994D01*
X253307Y-43870D01*
X253266Y-43724D01*
X253235Y-43578D01*
X253193Y-43411D01*
X253172Y-43234D01*
X253151Y-43047D01*
X253130Y-42652D01*
Y-42631D01*
Y-42579D01*
X253141Y-42506D01*
Y-42391D01*
X253162Y-42266D01*
X253172Y-42110D01*
X253203Y-41944D01*
X253235Y-41767D01*
X253287Y-41579D01*
X253339Y-41381D01*
X253412Y-41184D01*
X253495Y-40975D01*
X253599Y-40778D01*
X253713Y-40590D01*
X253838Y-40403D01*
X253994Y-40236D01*
X254005Y-40226D01*
X254036Y-40195D01*
X254088Y-40153D01*
X254151Y-40101D01*
X254244Y-40039D01*
X254348Y-39966D01*
X254473Y-39882D01*
X254619Y-39799D01*
X254786Y-39726D01*
X254963Y-39643D01*
X255160Y-39570D01*
X255379Y-39508D01*
X255608Y-39456D01*
X255858Y-39414D01*
X256118Y-39383D01*
X256399Y-39372D01*
X256472D01*
X256555Y-39383D01*
D02*
G37*
G36*
X90170Y-46521D02*
X90144Y-46916D01*
X90119Y-47284D01*
Y-48003D01*
X90170Y-48542D01*
X84488D01*
X84469Y-47901D01*
X84451Y-47465D01*
X84454Y-47261D01*
X84488Y-46521D01*
X90170Y-46521D01*
D02*
G37*
G36*
X31849Y-47174D02*
X32165Y-47416D01*
X32482Y-47658D01*
X32863Y-48004D01*
X33375Y-48562D01*
X18203D01*
X17875Y-48392D01*
X17547Y-48222D01*
X17185Y-47998D01*
X16824Y-47774D01*
X16398Y-47436D01*
X15973Y-47097D01*
X15425Y-46520D01*
X30766D01*
X31849Y-47174D01*
D02*
G37*
G36*
X81784Y-48562D02*
X63238D01*
X64107Y-46520D01*
X80916D01*
X81784Y-48562D01*
D02*
G37*
G36*
X100020Y-43855D02*
X100717Y-44143D01*
X101343Y-44562D01*
X101876Y-45095D01*
X102295Y-45721D01*
X102583Y-46417D01*
X102730Y-47157D01*
Y-47533D01*
Y-47537D01*
Y-47913D01*
X102583Y-48652D01*
X102295Y-49349D01*
X101876Y-49975D01*
X101343Y-50508D01*
X100717Y-50927D01*
X100020Y-51215D01*
X99281Y-51362D01*
X98528D01*
X97790Y-51215D01*
X97095Y-50927D01*
X96469Y-50509D01*
X95937Y-49977D01*
X95519Y-49351D01*
X95231Y-48656D01*
X95085Y-47918D01*
Y-47542D01*
Y-47528D01*
Y-47152D01*
X95231Y-46414D01*
X95519Y-45719D01*
X95937Y-45093D01*
X96469Y-44561D01*
X97095Y-44143D01*
X97790Y-43855D01*
X98528Y-43708D01*
X99281D01*
X100020Y-43855D01*
D02*
G37*
G36*
X34673Y-51361D02*
X34760Y-51806D01*
X34820Y-52328D01*
X34837Y-52784D01*
X34854Y-53239D01*
X34790Y-54059D01*
X34730Y-54826D01*
X34550Y-55538D01*
X34367Y-56262D01*
X34000Y-57116D01*
X33781Y-57546D01*
X33382Y-58108D01*
X32984Y-58671D01*
X32489Y-59152D01*
X31993Y-59634D01*
X30821Y-60431D01*
X30152Y-60744D01*
X29484Y-61058D01*
X29123Y-61168D01*
X28621Y-61320D01*
X27976Y-61514D01*
X27693Y-61562D01*
X27119Y-61659D01*
X26717Y-61727D01*
X26335Y-61787D01*
X26123Y-61799D01*
X25464Y-61833D01*
X25103Y-61853D01*
X24588Y-61877D01*
X24195Y-61863D01*
X23803Y-61849D01*
X23356Y-61834D01*
X22895Y-61785D01*
X22494Y-61743D01*
X22014Y-61687D01*
X21587Y-61611D01*
X21160Y-61536D01*
X20840Y-61479D01*
X20328Y-61351D01*
X19964Y-61260D01*
X19517Y-61141D01*
X19120Y-61010D01*
X18723Y-60880D01*
X18382Y-60768D01*
X17945Y-60588D01*
X17567Y-60433D01*
X16806Y-60086D01*
X16422Y-59895D01*
X16030Y-59699D01*
X15469Y-59364D01*
X14908Y-59029D01*
X13829Y-58269D01*
X12799Y-57419D01*
X16422Y-53080D01*
X17190Y-53658D01*
X17567Y-53943D01*
X17945Y-54227D01*
X18382Y-54506D01*
X18723Y-54724D01*
X19120Y-54945D01*
X19601Y-55205D01*
X19964Y-55377D01*
X20328Y-55549D01*
X20584Y-55647D01*
X21000Y-55808D01*
X21587Y-55997D01*
X22094Y-56141D01*
X22494Y-56226D01*
X23125Y-56340D01*
X23580Y-56397D01*
X24195Y-56441D01*
X24682Y-56462D01*
X25103Y-56449D01*
X25464Y-56435D01*
X26123Y-56348D01*
X26352Y-56293D01*
X26717Y-56205D01*
X26997Y-56100D01*
X27387Y-55929D01*
X27693Y-55762D01*
X28070Y-55467D01*
X28368Y-55124D01*
X28546Y-54806D01*
X28621Y-54621D01*
X28728Y-54200D01*
X28763Y-53836D01*
X28738Y-53361D01*
X28621Y-52915D01*
X28438Y-52560D01*
X28278Y-52338D01*
X28033Y-52108D01*
X27825Y-51946D01*
X27534Y-51746D01*
X27241Y-51592D01*
X26857Y-51403D01*
X26543Y-51270D01*
X26229Y-51147D01*
X26123Y-51112D01*
X25464Y-50894D01*
X24622Y-50605D01*
X34485D01*
X34673Y-51361D01*
D02*
G37*
G36*
X222879Y-54883D02*
X222983D01*
X223087Y-54893D01*
X223212D01*
X223462Y-54924D01*
X223722Y-54956D01*
X223972Y-55008D01*
X224087Y-55039D01*
X224191Y-55070D01*
X224201D01*
X224212Y-55080D01*
X224285Y-55101D01*
X224378Y-55153D01*
X224503Y-55216D01*
X224639Y-55299D01*
X224784Y-55403D01*
X224930Y-55518D01*
X225065Y-55664D01*
X225076Y-55684D01*
X225117Y-55736D01*
X225180Y-55820D01*
X225263Y-55934D01*
X225346Y-56080D01*
X225430Y-56257D01*
X225513Y-56455D01*
X225586Y-56673D01*
X223691Y-57006D01*
X223681Y-56986D01*
X223670Y-56944D01*
X223639Y-56881D01*
X223598Y-56809D01*
X223535Y-56715D01*
X223473Y-56632D01*
X223379Y-56538D01*
X223285Y-56465D01*
X223275Y-56455D01*
X223233Y-56434D01*
X223181Y-56403D01*
X223098Y-56361D01*
X222994Y-56330D01*
X222869Y-56299D01*
X222733Y-56278D01*
X222577Y-56267D01*
X222515D01*
X222473Y-56278D01*
X222348Y-56288D01*
X222203Y-56319D01*
X222046Y-56371D01*
X221869Y-56455D01*
X221703Y-56569D01*
X221620Y-56632D01*
X221547Y-56715D01*
X221526Y-56736D01*
X221515Y-56767D01*
X221484Y-56798D01*
X221463Y-56850D01*
X221432Y-56902D01*
X221391Y-56975D01*
X221359Y-57058D01*
X221328Y-57152D01*
X221287Y-57256D01*
X221255Y-57371D01*
X221234Y-57496D01*
X221203Y-57641D01*
X221193Y-57787D01*
X221172Y-57954D01*
Y-58131D01*
Y-58141D01*
Y-58172D01*
Y-58224D01*
X221182Y-58297D01*
Y-58381D01*
X221193Y-58485D01*
X221224Y-58703D01*
X221266Y-58943D01*
X221339Y-59182D01*
X221432Y-59411D01*
X221495Y-59505D01*
X221557Y-59598D01*
X221578Y-59619D01*
X221630Y-59671D01*
X221713Y-59734D01*
X221838Y-59817D01*
X221984Y-59900D01*
X222171Y-59963D01*
X222390Y-60015D01*
X222629Y-60036D01*
X222681D01*
X222754Y-60025D01*
X222838D01*
X222931Y-60015D01*
X223035Y-59994D01*
X223254Y-59942D01*
X223264D01*
X223306Y-59921D01*
X223369Y-59900D01*
X223452Y-59869D01*
X223556Y-59817D01*
X223681Y-59765D01*
X223806Y-59703D01*
X223952Y-59619D01*
Y-59026D01*
X222640D01*
Y-57704D01*
X225669D01*
Y-60410D01*
X225659Y-60421D01*
X225627Y-60431D01*
X225586Y-60462D01*
X225523Y-60504D01*
X225450Y-60556D01*
X225357Y-60608D01*
X225253Y-60671D01*
X225149Y-60733D01*
X224909Y-60858D01*
X224649Y-60993D01*
X224378Y-61118D01*
X224118Y-61212D01*
X224108D01*
X224087Y-61222D01*
X224056Y-61233D01*
X224004Y-61243D01*
X223941Y-61264D01*
X223858Y-61274D01*
X223775Y-61295D01*
X223670Y-61316D01*
X223556Y-61337D01*
X223441Y-61358D01*
X223171Y-61389D01*
X222869Y-61410D01*
X222536Y-61420D01*
X222432D01*
X222348Y-61410D01*
X222255D01*
X222140Y-61399D01*
X222015Y-61389D01*
X221880Y-61368D01*
X221588Y-61326D01*
X221287Y-61264D01*
X220974Y-61170D01*
X220693Y-61045D01*
X220683D01*
X220662Y-61025D01*
X220631Y-61004D01*
X220579Y-60973D01*
X220516Y-60931D01*
X220454Y-60879D01*
X220287Y-60754D01*
X220110Y-60598D01*
X219933Y-60400D01*
X219746Y-60171D01*
X219590Y-59900D01*
Y-59890D01*
X219569Y-59869D01*
X219558Y-59828D01*
X219527Y-59765D01*
X219496Y-59692D01*
X219465Y-59609D01*
X219433Y-59505D01*
X219402Y-59401D01*
X219361Y-59276D01*
X219329Y-59140D01*
X219267Y-58838D01*
X219225Y-58505D01*
X219204Y-58152D01*
Y-58141D01*
Y-58110D01*
Y-58047D01*
X219215Y-57974D01*
Y-57891D01*
X219225Y-57777D01*
X219236Y-57662D01*
X219257Y-57537D01*
X219309Y-57256D01*
X219381Y-56954D01*
X219486Y-56642D01*
X219631Y-56351D01*
X219642Y-56340D01*
X219652Y-56319D01*
X219673Y-56278D01*
X219715Y-56226D01*
X219756Y-56163D01*
X219808Y-56090D01*
X219944Y-55913D01*
X220121Y-55726D01*
X220339Y-55528D01*
X220589Y-55351D01*
X220881Y-55185D01*
X220891D01*
X220912Y-55174D01*
X220943Y-55153D01*
X220995Y-55133D01*
X221068Y-55112D01*
X221141Y-55080D01*
X221234Y-55060D01*
X221339Y-55028D01*
X221463Y-54997D01*
X221588Y-54966D01*
X221734Y-54945D01*
X221890Y-54924D01*
X222057Y-54904D01*
X222234Y-54883D01*
X222421Y-54872D01*
X222796D01*
X222879Y-54883D01*
D02*
G37*
G36*
X230624Y-58662D02*
Y-61316D01*
X228657D01*
Y-58662D01*
X226190Y-54976D01*
X228365D01*
X229646Y-57121D01*
X230916Y-54976D01*
X233091D01*
X230624Y-58662D01*
D02*
G37*
G36*
X204849Y-61316D02*
X203007D01*
X200633Y-57839D01*
Y-61316D01*
X198791D01*
Y-54976D01*
X200612D01*
X203007Y-58485D01*
Y-54976D01*
X204849D01*
Y-61316D01*
D02*
G37*
G36*
X216154Y-54987D02*
X216363Y-54997D01*
X216581Y-55018D01*
X216821Y-55039D01*
X217039Y-55080D01*
X217237Y-55133D01*
X217247D01*
X217258Y-55143D01*
X217320Y-55164D01*
X217404Y-55206D01*
X217518Y-55268D01*
X217633Y-55341D01*
X217768Y-55445D01*
X217893Y-55570D01*
X218007Y-55716D01*
X218018Y-55736D01*
X218059Y-55788D01*
X218101Y-55882D01*
X218163Y-55997D01*
X218215Y-56153D01*
X218268Y-56330D01*
X218299Y-56528D01*
X218309Y-56746D01*
Y-56757D01*
Y-56767D01*
Y-56829D01*
X218299Y-56933D01*
X218278Y-57058D01*
X218257Y-57194D01*
X218215Y-57350D01*
X218153Y-57506D01*
X218080Y-57652D01*
X218070Y-57673D01*
X218039Y-57714D01*
X217986Y-57787D01*
X217914Y-57870D01*
X217830Y-57974D01*
X217716Y-58079D01*
X217601Y-58183D01*
X217456Y-58276D01*
X217445Y-58287D01*
X217414Y-58297D01*
X217352Y-58328D01*
X217279Y-58360D01*
X217175Y-58401D01*
X217060Y-58443D01*
X216925Y-58485D01*
X216769Y-58526D01*
X216779D01*
X216821Y-58547D01*
X216883Y-58568D01*
X216956Y-58599D01*
X217123Y-58672D01*
X217206Y-58714D01*
X217268Y-58755D01*
X217279D01*
X217289Y-58776D01*
X217320Y-58797D01*
X217352Y-58828D01*
X217393Y-58880D01*
X217445Y-58932D01*
X217508Y-59005D01*
X217581Y-59099D01*
X217591Y-59109D01*
X217612Y-59140D01*
X217653Y-59182D01*
X217695Y-59245D01*
X217789Y-59369D01*
X217830Y-59432D01*
X217862Y-59484D01*
X218819Y-61316D01*
X216602D01*
X215551Y-59390D01*
X215540Y-59369D01*
X215519Y-59328D01*
X215478Y-59265D01*
X215436Y-59182D01*
X215374Y-59099D01*
X215322Y-59026D01*
X215259Y-58953D01*
X215197Y-58901D01*
X215186Y-58891D01*
X215165Y-58880D01*
X215113Y-58849D01*
X215061Y-58818D01*
X214988Y-58797D01*
X214905Y-58766D01*
X214811Y-58755D01*
X214718Y-58745D01*
X214551D01*
Y-61316D01*
X212584D01*
Y-54976D01*
X216071D01*
X216154Y-54987D01*
D02*
G37*
G36*
X211407Y-56330D02*
X208118D01*
Y-57340D01*
X211168D01*
Y-58630D01*
X208118D01*
Y-59879D01*
X211501D01*
Y-61316D01*
X206150D01*
Y-54976D01*
X211407D01*
Y-56330D01*
D02*
G37*
G36*
X197625D02*
X194335D01*
Y-57340D01*
X197385D01*
Y-58630D01*
X194335D01*
Y-59879D01*
X197718D01*
Y-61316D01*
X192367D01*
Y-54976D01*
X197625D01*
Y-56330D01*
D02*
G37*
G36*
X42613Y-55906D02*
X56506D01*
Y-61479D01*
X36481D01*
Y-50605D01*
X42613D01*
Y-55906D01*
D02*
G37*
G36*
X87283Y-61480D02*
X80871D01*
X78324Y-55230D01*
X66540D01*
X63991Y-61480D01*
X57742D01*
X62369Y-50605D01*
X82654D01*
X87283Y-61480D01*
D02*
G37*
G36*
X90910Y-51195D02*
X91215Y-51750D01*
X91519Y-52306D01*
X91970Y-52903D01*
X92277Y-53312D01*
X92693Y-53727D01*
X93167Y-54198D01*
X93469Y-54423D01*
X93771Y-54648D01*
X94176Y-54950D01*
X94534Y-55144D01*
X94892Y-55338D01*
X95289Y-55553D01*
X95670Y-55692D01*
X96051Y-55831D01*
X96492Y-55992D01*
X97771Y-56253D01*
X98434Y-56312D01*
X98942Y-56305D01*
X99573Y-56296D01*
X100578Y-56159D01*
X101544Y-55910D01*
X102463Y-55558D01*
X103329Y-55109D01*
X103732Y-54839D01*
X104135Y-54569D01*
X104390Y-54355D01*
X104645Y-54141D01*
X104875Y-53946D01*
X105100Y-53711D01*
X105325Y-53475D01*
X105543Y-53246D01*
X105754Y-53003D01*
X105964Y-52760D01*
X109964Y-56798D01*
X108955Y-57888D01*
X107840Y-58868D01*
X106627Y-59732D01*
X105325Y-60469D01*
X104645Y-60787D01*
X103732Y-61129D01*
X103228Y-61318D01*
X101744Y-61699D01*
X100204Y-61923D01*
X99415Y-61974D01*
X98942Y-61975D01*
X98469Y-61977D01*
X98102Y-61951D01*
X97245Y-61891D01*
X96051Y-61705D01*
X95289Y-61520D01*
X94892Y-61424D01*
X93973Y-61119D01*
X93771Y-61052D01*
X93167Y-60794D01*
X92693Y-60592D01*
X91970Y-60211D01*
X91662Y-60049D01*
X91215Y-59766D01*
X90665Y-59415D01*
X90212Y-59074D01*
X89759Y-58733D01*
X89326Y-58350D01*
X88894Y-57967D01*
X88093Y-57135D01*
X87727Y-56688D01*
X87361Y-56242D01*
X87030Y-55766D01*
X86700Y-55290D01*
X86408Y-54788D01*
X86116Y-54286D01*
X85864Y-53759D01*
X85613Y-53232D01*
X85403Y-52682D01*
X85194Y-52133D01*
X84864Y-50993D01*
X84803Y-50605D01*
X90665D01*
X90910Y-51195D01*
D02*
G37*
%LPC*%
G36*
X211428Y-40757D02*
X210574D01*
Y-42048D01*
X211459D01*
X211511Y-42037D01*
X211584Y-42027D01*
X211678Y-42017D01*
X211782Y-41996D01*
X211917Y-41964D01*
X211928D01*
X211948Y-41954D01*
X211990Y-41944D01*
X212032Y-41923D01*
X212136Y-41860D01*
X212188Y-41819D01*
X212240Y-41767D01*
X212250Y-41756D01*
X212261Y-41735D01*
X212282Y-41704D01*
X212302Y-41662D01*
X212344Y-41548D01*
X212365Y-41475D01*
Y-41402D01*
Y-41392D01*
Y-41350D01*
X212354Y-41298D01*
X212344Y-41225D01*
X212313Y-41152D01*
X212282Y-41069D01*
X212229Y-40996D01*
X212167Y-40923D01*
X212157Y-40913D01*
X212125Y-40892D01*
X212073Y-40871D01*
X212000Y-40840D01*
X211896Y-40809D01*
X211771Y-40778D01*
X211615Y-40767D01*
X211428Y-40757D01*
D02*
G37*
G36*
X204474Y-41121D02*
X203787Y-43391D01*
X205161D01*
X204474Y-41121D01*
D02*
G37*
G36*
X197801Y-40767D02*
X197249D01*
Y-42183D01*
X197822D01*
X197916Y-42173D01*
X198041Y-42162D01*
X198166Y-42141D01*
X198301Y-42100D01*
X198415Y-42058D01*
X198520Y-41996D01*
X198530Y-41985D01*
X198561Y-41964D01*
X198592Y-41912D01*
X198644Y-41860D01*
X198686Y-41787D01*
X198717Y-41694D01*
X198749Y-41600D01*
X198759Y-41486D01*
Y-41475D01*
Y-41434D01*
X198749Y-41381D01*
X198738Y-41309D01*
X198707Y-41225D01*
X198676Y-41142D01*
X198624Y-41059D01*
X198551Y-40975D01*
X198540Y-40965D01*
X198509Y-40944D01*
X198457Y-40913D01*
X198384Y-40871D01*
X198280Y-40830D01*
X198155Y-40799D01*
X197989Y-40778D01*
X197801Y-40767D01*
D02*
G37*
G36*
X184456Y-40913D02*
X183977D01*
Y-44380D01*
X184549D01*
X184664Y-44369D01*
X184789Y-44359D01*
X184934Y-44348D01*
X185080Y-44317D01*
X185205Y-44286D01*
X185320Y-44244D01*
X185330Y-44234D01*
X185361Y-44213D01*
X185413Y-44182D01*
X185465Y-44130D01*
X185538Y-44067D01*
X185601Y-43984D01*
X185663Y-43890D01*
X185726Y-43776D01*
X185736Y-43755D01*
X185747Y-43713D01*
X185778Y-43630D01*
X185809Y-43505D01*
X185830Y-43359D01*
X185861Y-43162D01*
X185871Y-42933D01*
X185882Y-42672D01*
Y-42662D01*
Y-42631D01*
Y-42579D01*
Y-42506D01*
X185871Y-42423D01*
X185861Y-42329D01*
X185840Y-42121D01*
X185799Y-41892D01*
X185747Y-41662D01*
X185663Y-41454D01*
X185611Y-41361D01*
X185549Y-41288D01*
X185538Y-41267D01*
X185486Y-41225D01*
X185403Y-41173D01*
X185288Y-41100D01*
X185132Y-41028D01*
X184945Y-40975D01*
X184726Y-40934D01*
X184456Y-40913D01*
D02*
G37*
G36*
X256399Y-40861D02*
X256347D01*
X256305Y-40871D01*
X256191Y-40882D01*
X256056Y-40913D01*
X255910Y-40965D01*
X255743Y-41038D01*
X255587Y-41142D01*
X255441Y-41288D01*
X255431Y-41309D01*
X255410Y-41329D01*
X255389Y-41371D01*
X255358Y-41413D01*
X255327Y-41465D01*
X255296Y-41538D01*
X255264Y-41611D01*
X255233Y-41704D01*
X255202Y-41808D01*
X255171Y-41923D01*
X255139Y-42048D01*
X255119Y-42183D01*
X255098Y-42329D01*
X255087Y-42485D01*
Y-42662D01*
Y-42672D01*
Y-42704D01*
Y-42756D01*
X255098Y-42818D01*
Y-42901D01*
X255108Y-42985D01*
X255129Y-43193D01*
X255171Y-43422D01*
X255233Y-43640D01*
X255327Y-43859D01*
X255379Y-43953D01*
X255441Y-44036D01*
X255462Y-44057D01*
X255504Y-44098D01*
X255587Y-44171D01*
X255691Y-44244D01*
X255837Y-44317D01*
X256003Y-44390D01*
X256191Y-44432D01*
X256410Y-44452D01*
X256472D01*
X256514Y-44442D01*
X256628Y-44432D01*
X256774Y-44400D01*
X256930Y-44348D01*
X257086Y-44286D01*
X257253Y-44182D01*
X257388Y-44046D01*
X257399Y-44026D01*
X257419Y-44005D01*
X257440Y-43963D01*
X257471Y-43922D01*
X257503Y-43859D01*
X257534Y-43797D01*
X257565Y-43713D01*
X257596Y-43620D01*
X257628Y-43505D01*
X257659Y-43391D01*
X257690Y-43255D01*
X257711Y-43110D01*
X257732Y-42943D01*
X257742Y-42766D01*
Y-42579D01*
Y-42568D01*
Y-42537D01*
Y-42495D01*
X257732Y-42433D01*
Y-42360D01*
X257721Y-42277D01*
X257700Y-42079D01*
X257648Y-41871D01*
X257586Y-41652D01*
X257503Y-41454D01*
X257440Y-41361D01*
X257378Y-41277D01*
X257357Y-41256D01*
X257315Y-41215D01*
X257232Y-41142D01*
X257117Y-41069D01*
X256982Y-40996D01*
X256816Y-40923D01*
X256618Y-40882D01*
X256399Y-40861D01*
D02*
G37*
G36*
X215405Y-56257D02*
X214551D01*
Y-57548D01*
X215436D01*
X215488Y-57537D01*
X215561Y-57527D01*
X215655Y-57516D01*
X215759Y-57496D01*
X215894Y-57464D01*
X215904D01*
X215925Y-57454D01*
X215967Y-57444D01*
X216009Y-57423D01*
X216113Y-57360D01*
X216165Y-57319D01*
X216217Y-57267D01*
X216227Y-57256D01*
X216238Y-57235D01*
X216259Y-57204D01*
X216279Y-57162D01*
X216321Y-57048D01*
X216342Y-56975D01*
Y-56902D01*
Y-56892D01*
Y-56850D01*
X216331Y-56798D01*
X216321Y-56725D01*
X216290Y-56652D01*
X216259Y-56569D01*
X216206Y-56496D01*
X216144Y-56423D01*
X216134Y-56413D01*
X216102Y-56392D01*
X216050Y-56371D01*
X215977Y-56340D01*
X215873Y-56309D01*
X215748Y-56278D01*
X215592Y-56267D01*
X215405Y-56257D01*
D02*
G37*
%LPD*%
D10*
X490560Y-36265D02*
X490988Y-36051D01*
X491631Y-35408D01*
Y-39907D01*
X303400Y-35468D02*
Y-39967D01*
X305971D01*
X309034Y-36968D02*
Y-39967D01*
Y-37611D02*
X308606Y-37182D01*
X308178Y-36968D01*
X307535D01*
X307106Y-37182D01*
X306678Y-37611D01*
X306464Y-38254D01*
Y-38682D01*
X306678Y-39325D01*
X307106Y-39753D01*
X307535Y-39967D01*
X308178D01*
X308606Y-39753D01*
X309034Y-39325D01*
X310449Y-36968D02*
X311734Y-39967D01*
X313019Y-36968D02*
X311734Y-39967D01*
X311305Y-40824D01*
X310877Y-41253D01*
X310449Y-41467D01*
X310234D01*
X313769Y-38254D02*
X316340D01*
Y-37825D01*
X316126Y-37396D01*
X315912Y-37182D01*
X315483Y-36968D01*
X314840D01*
X314412Y-37182D01*
X313983Y-37611D01*
X313769Y-38254D01*
Y-38682D01*
X313983Y-39325D01*
X314412Y-39753D01*
X314840Y-39967D01*
X315483D01*
X315912Y-39753D01*
X316340Y-39325D01*
X317304Y-36968D02*
Y-39967D01*
Y-38254D02*
X317518Y-37611D01*
X317947Y-37182D01*
X318375Y-36968D01*
X319018D01*
X319425Y-41467D02*
X322853D01*
X323431Y-36325D02*
X323860Y-36111D01*
X324503Y-35468D01*
Y-39967D01*
X331765Y-35468D02*
Y-39967D01*
X330266Y-35468D02*
X333265D01*
X334872Y-36968D02*
X334443Y-37182D01*
X334015Y-37611D01*
X333801Y-38254D01*
Y-38682D01*
X334015Y-39325D01*
X334443Y-39753D01*
X334872Y-39967D01*
X335515D01*
X335943Y-39753D01*
X336371Y-39325D01*
X336586Y-38682D01*
Y-38254D01*
X336371Y-37611D01*
X335943Y-37182D01*
X335515Y-36968D01*
X334872D01*
X337571D02*
Y-41467D01*
Y-37611D02*
X338000Y-37182D01*
X338428Y-36968D01*
X339071D01*
X339499Y-37182D01*
X339928Y-37611D01*
X340142Y-38254D01*
Y-38682D01*
X339928Y-39325D01*
X339499Y-39753D01*
X339071Y-39967D01*
X338428D01*
X338000Y-39753D01*
X337571Y-39325D01*
X368725Y-135134D02*
Y-134920D01*
X368939Y-134491D01*
X369153Y-134277D01*
X369582Y-134063D01*
X370439D01*
X370867Y-134277D01*
X371082Y-134491D01*
X371296Y-134920D01*
Y-135348D01*
X371082Y-135777D01*
X370653Y-136420D01*
X368511Y-138562D01*
X371510D01*
X372731Y-135563D02*
X372517Y-135777D01*
X372731Y-135991D01*
X372946Y-135777D01*
X372731Y-135563D01*
Y-138134D02*
X372517Y-138348D01*
X372731Y-138562D01*
X372946Y-138348D01*
X372731Y-138134D01*
X376074Y-134063D02*
X373931Y-137062D01*
X377145D01*
X376074Y-134063D02*
Y-138562D01*
X380937Y-134063D02*
X378794Y-138562D01*
X377937Y-134063D02*
X380937D01*
X382158Y-135563D02*
X381944Y-135777D01*
X382158Y-135991D01*
X382372Y-135777D01*
X382158Y-135563D01*
Y-138134D02*
X381944Y-138348D01*
X382158Y-138562D01*
X382372Y-138348D01*
X382158Y-138134D01*
X383786Y-134063D02*
X386143D01*
X384857Y-135777D01*
X385500D01*
X385929Y-135991D01*
X386143Y-136205D01*
X386357Y-136848D01*
Y-137276D01*
X386143Y-137919D01*
X385714Y-138348D01*
X385071Y-138562D01*
X384429D01*
X383786Y-138348D01*
X383572Y-138134D01*
X383358Y-137705D01*
X387364Y-134920D02*
X387792Y-134706D01*
X388435Y-134063D01*
Y-138562D01*
X394198Y-136420D02*
X396126D01*
X396769Y-136205D01*
X396983Y-135991D01*
X397198Y-135563D01*
Y-134920D01*
X396983Y-134491D01*
X396769Y-134277D01*
X396126Y-134063D01*
X394198D01*
Y-138562D01*
X398204Y-134063D02*
Y-138562D01*
Y-134063D02*
X399918Y-138562D01*
X401632Y-134063D02*
X399918Y-138562D01*
X401632Y-134063D02*
Y-138562D01*
X323225Y-135634D02*
Y-135420D01*
X323439Y-134991D01*
X323654Y-134777D01*
X324082Y-134563D01*
X324939D01*
X325367Y-134777D01*
X325582Y-134991D01*
X325796Y-135420D01*
Y-135848D01*
X325582Y-136277D01*
X325153Y-136920D01*
X323011Y-139062D01*
X326010D01*
X327017Y-139705D02*
X330016Y-134563D01*
X330316Y-135420D02*
X330745Y-135206D01*
X331388Y-134563D01*
Y-139062D01*
X336615Y-134563D02*
X334473Y-139062D01*
X333616Y-134563D02*
X336615D01*
X337622Y-139705D02*
X340621Y-134563D01*
X341136Y-135634D02*
Y-135420D01*
X341350Y-134991D01*
X341564Y-134777D01*
X341992Y-134563D01*
X342849D01*
X343278Y-134777D01*
X343492Y-134991D01*
X343706Y-135420D01*
Y-135848D01*
X343492Y-136277D01*
X343064Y-136920D01*
X340921Y-139062D01*
X343921D01*
X346213Y-134563D02*
X345570Y-134777D01*
X345142Y-135420D01*
X344928Y-136491D01*
Y-137134D01*
X345142Y-138205D01*
X345570Y-138848D01*
X346213Y-139062D01*
X346641D01*
X347284Y-138848D01*
X347713Y-138205D01*
X347927Y-137134D01*
Y-136491D01*
X347713Y-135420D01*
X347284Y-134777D01*
X346641Y-134563D01*
X346213D01*
X349148Y-135634D02*
Y-135420D01*
X349362Y-134991D01*
X349576Y-134777D01*
X350005Y-134563D01*
X350862D01*
X351290Y-134777D01*
X351505Y-134991D01*
X351719Y-135420D01*
Y-135848D01*
X351505Y-136277D01*
X351076Y-136920D01*
X348934Y-139062D01*
X351933D01*
X353154Y-135634D02*
Y-135420D01*
X353369Y-134991D01*
X353583Y-134777D01*
X354011Y-134563D01*
X354868D01*
X355297Y-134777D01*
X355511Y-134991D01*
X355725Y-135420D01*
Y-135848D01*
X355511Y-136277D01*
X355083Y-136920D01*
X352940Y-139062D01*
X355939D01*
X166453Y-121817D02*
X165810Y-122031D01*
X165382Y-122674D01*
X165167Y-123745D01*
Y-124388D01*
X165382Y-125459D01*
X165810Y-126102D01*
X166453Y-126316D01*
X166881D01*
X167524Y-126102D01*
X167953Y-125459D01*
X168167Y-124388D01*
Y-123745D01*
X167953Y-122674D01*
X167524Y-122031D01*
X166881Y-121817D01*
X166453D01*
X169388Y-122888D02*
Y-122674D01*
X169602Y-122246D01*
X169817Y-122031D01*
X170245Y-121817D01*
X171102D01*
X171530Y-122031D01*
X171745Y-122246D01*
X171959Y-122674D01*
Y-123102D01*
X171745Y-123531D01*
X171316Y-124174D01*
X169174Y-126316D01*
X172173D01*
X173180Y-124388D02*
X177036D01*
X178365Y-122674D02*
X178793Y-122460D01*
X179436Y-121817D01*
Y-126316D01*
X184663Y-121817D02*
X182521Y-126316D01*
X181664Y-121817D02*
X184663D01*
X185670Y-124388D02*
X189526D01*
X191069Y-122888D02*
Y-122674D01*
X191283Y-122246D01*
X191498Y-122031D01*
X191926Y-121817D01*
X192783D01*
X193211Y-122031D01*
X193426Y-122246D01*
X193640Y-122674D01*
Y-123102D01*
X193426Y-123531D01*
X192997Y-124174D01*
X190855Y-126316D01*
X193854D01*
X196147Y-121817D02*
X195504Y-122031D01*
X195075Y-122674D01*
X194861Y-123745D01*
Y-124388D01*
X195075Y-125459D01*
X195504Y-126102D01*
X196147Y-126316D01*
X196575D01*
X197218Y-126102D01*
X197646Y-125459D01*
X197860Y-124388D01*
Y-123745D01*
X197646Y-122674D01*
X197218Y-122031D01*
X196575Y-121817D01*
X196147D01*
X199082Y-122888D02*
Y-122674D01*
X199296Y-122246D01*
X199510Y-122031D01*
X199939Y-121817D01*
X200796D01*
X201224Y-122031D01*
X201438Y-122246D01*
X201653Y-122674D01*
Y-123102D01*
X201438Y-123531D01*
X201010Y-124174D01*
X198867Y-126316D01*
X201867D01*
X203088Y-122888D02*
Y-122674D01*
X203302Y-122246D01*
X203516Y-122031D01*
X203945Y-121817D01*
X204802D01*
X205230Y-122031D01*
X205445Y-122246D01*
X205659Y-122674D01*
Y-123102D01*
X205445Y-123531D01*
X205016Y-124174D01*
X202874Y-126316D01*
X205873D01*
X166053Y-106817D02*
X165410Y-107031D01*
X164982Y-107674D01*
X164768Y-108745D01*
Y-109388D01*
X164982Y-110459D01*
X165410Y-111102D01*
X166053Y-111316D01*
X166481D01*
X167124Y-111102D01*
X167553Y-110459D01*
X167767Y-109388D01*
Y-108745D01*
X167553Y-107674D01*
X167124Y-107031D01*
X166481Y-106817D01*
X166053D01*
X168988Y-107888D02*
Y-107674D01*
X169202Y-107246D01*
X169416Y-107031D01*
X169845Y-106817D01*
X170702D01*
X171130Y-107031D01*
X171345Y-107246D01*
X171559Y-107674D01*
Y-108103D01*
X171345Y-108531D01*
X170916Y-109174D01*
X168774Y-111316D01*
X171773D01*
X172780Y-109388D02*
X176636D01*
X177965Y-107674D02*
X178393Y-107460D01*
X179036Y-106817D01*
Y-111316D01*
X184263Y-106817D02*
X182121Y-111316D01*
X181264Y-106817D02*
X184263D01*
X185270Y-109388D02*
X189127D01*
X190669Y-107888D02*
Y-107674D01*
X190883Y-107246D01*
X191097Y-107031D01*
X191526Y-106817D01*
X192383D01*
X192811Y-107031D01*
X193026Y-107246D01*
X193240Y-107674D01*
Y-108103D01*
X193026Y-108531D01*
X192597Y-109174D01*
X190455Y-111316D01*
X193454D01*
X195747Y-106817D02*
X195104Y-107031D01*
X194675Y-107674D01*
X194461Y-108745D01*
Y-109388D01*
X194675Y-110459D01*
X195104Y-111102D01*
X195747Y-111316D01*
X196175D01*
X196818Y-111102D01*
X197246Y-110459D01*
X197460Y-109388D01*
Y-108745D01*
X197246Y-107674D01*
X196818Y-107031D01*
X196175Y-106817D01*
X195747D01*
X198682Y-107888D02*
Y-107674D01*
X198896Y-107246D01*
X199110Y-107031D01*
X199539Y-106817D01*
X200395D01*
X200824Y-107031D01*
X201038Y-107246D01*
X201253Y-107674D01*
Y-108103D01*
X201038Y-108531D01*
X200610Y-109174D01*
X198467Y-111316D01*
X201467D01*
X202688Y-107888D02*
Y-107674D01*
X202902Y-107246D01*
X203116Y-107031D01*
X203545Y-106817D01*
X204402D01*
X204830Y-107031D01*
X205045Y-107246D01*
X205259Y-107674D01*
Y-108103D01*
X205045Y-108531D01*
X204616Y-109174D01*
X202474Y-111316D01*
X205473D01*
X140167Y-106817D02*
Y-111316D01*
Y-106817D02*
X141667D01*
X142310Y-107031D01*
X142738Y-107460D01*
X142953Y-107888D01*
X143167Y-108531D01*
Y-109602D01*
X142953Y-110245D01*
X142738Y-110673D01*
X142310Y-111102D01*
X141667Y-111316D01*
X140167D01*
X147602D02*
X145888Y-106817D01*
X144174Y-111316D01*
X144817Y-109816D02*
X146959D01*
X150151Y-106817D02*
Y-111316D01*
X148651Y-106817D02*
X151651D01*
X154971D02*
X152186D01*
Y-111316D01*
X154971D01*
X152186Y-108959D02*
X153900D01*
X155936Y-108317D02*
X155721Y-108531D01*
X155936Y-108745D01*
X156150Y-108531D01*
X155936Y-108317D01*
Y-110888D02*
X155721Y-111102D01*
X155936Y-111316D01*
X156150Y-111102D01*
X155936Y-110888D01*
X49195Y-111316D02*
X47481Y-106817D01*
X45768Y-111316D01*
X46410Y-109816D02*
X48553D01*
X50459Y-110888D02*
X50245Y-111102D01*
X50459Y-111316D01*
X50674Y-111102D01*
X50459Y-110888D01*
X55194Y-106817D02*
X56908Y-108959D01*
Y-111316D01*
X58622Y-106817D02*
X56908Y-108959D01*
X60272Y-108317D02*
X59843Y-108531D01*
X59414Y-108959D01*
X59200Y-109602D01*
Y-110031D01*
X59414Y-110673D01*
X59843Y-111102D01*
X60272Y-111316D01*
X60914D01*
X61343Y-111102D01*
X61771Y-110673D01*
X61985Y-110031D01*
Y-109602D01*
X61771Y-108959D01*
X61343Y-108531D01*
X60914Y-108317D01*
X60272D01*
X62971D02*
Y-110459D01*
X63185Y-111102D01*
X63614Y-111316D01*
X64256D01*
X64685Y-111102D01*
X65328Y-110459D01*
Y-108317D02*
Y-111316D01*
X66506Y-108317D02*
Y-111316D01*
Y-109174D02*
X67149Y-108531D01*
X67577Y-108317D01*
X68220D01*
X68648Y-108531D01*
X68862Y-109174D01*
Y-111316D01*
X72612Y-108317D02*
Y-111745D01*
X72398Y-112387D01*
X72183Y-112601D01*
X71755Y-112816D01*
X71112D01*
X70684Y-112601D01*
X72612Y-108959D02*
X72183Y-108531D01*
X71755Y-108317D01*
X71112D01*
X70684Y-108531D01*
X70255Y-108959D01*
X70041Y-109602D01*
Y-110031D01*
X70255Y-110673D01*
X70684Y-111102D01*
X71112Y-111316D01*
X71755D01*
X72183Y-111102D01*
X72612Y-110673D01*
X21081Y-107888D02*
X20867Y-107460D01*
X20438Y-107031D01*
X20010Y-106817D01*
X19153D01*
X18724Y-107031D01*
X18296Y-107460D01*
X18082Y-107888D01*
X17867Y-108531D01*
Y-109602D01*
X18082Y-110245D01*
X18296Y-110673D01*
X18724Y-111102D01*
X19153Y-111316D01*
X20010D01*
X20438Y-111102D01*
X20867Y-110673D01*
X21081Y-110245D01*
X22345Y-106817D02*
Y-111316D01*
X25344Y-106817D02*
Y-111316D01*
X22345Y-108959D02*
X25344D01*
X26587Y-106817D02*
Y-111316D01*
X29586Y-106817D02*
X26587Y-109816D01*
X27658Y-108745D02*
X29586Y-111316D01*
X30593Y-106817D02*
Y-111316D01*
Y-106817D02*
X32522D01*
X33164Y-107031D01*
X33378Y-107246D01*
X33593Y-107674D01*
Y-108103D01*
X33378Y-108531D01*
X33164Y-108745D01*
X32522Y-108959D01*
X30593D01*
X32093D02*
X33593Y-111316D01*
X34814Y-108317D02*
X34600Y-108531D01*
X34814Y-108745D01*
X35028Y-108531D01*
X34814Y-108317D01*
Y-110888D02*
X34600Y-111102D01*
X34814Y-111316D01*
X35028Y-111102D01*
X34814Y-110888D01*
X140468Y-121817D02*
Y-126316D01*
Y-121817D02*
X141967D01*
X142610Y-122031D01*
X143038Y-122460D01*
X143253Y-122888D01*
X143467Y-123531D01*
Y-124602D01*
X143253Y-125245D01*
X143038Y-125673D01*
X142610Y-126102D01*
X141967Y-126316D01*
X140468D01*
X147902D02*
X146188Y-121817D01*
X144474Y-126316D01*
X145116Y-124816D02*
X147259D01*
X150451Y-121817D02*
Y-126316D01*
X148951Y-121817D02*
X151951D01*
X155271D02*
X152486D01*
Y-126316D01*
X155271D01*
X152486Y-123959D02*
X154200D01*
X156236Y-123317D02*
X156021Y-123531D01*
X156236Y-123745D01*
X156450Y-123531D01*
X156236Y-123317D01*
Y-125888D02*
X156021Y-126102D01*
X156236Y-126316D01*
X156450Y-126102D01*
X156236Y-125888D01*
X428796Y-134563D02*
X426011D01*
Y-139062D01*
X428796D01*
X426011Y-136705D02*
X427725D01*
X429546Y-134563D02*
Y-139062D01*
Y-134563D02*
X431474D01*
X432117Y-134777D01*
X432331Y-134991D01*
X432545Y-135420D01*
Y-135848D01*
X432331Y-136277D01*
X432117Y-136491D01*
X431474Y-136705D01*
X429546D01*
X431045D02*
X432545Y-139062D01*
X433552Y-134563D02*
Y-139062D01*
Y-134563D02*
X435266Y-139062D01*
X436980Y-134563D02*
X435266Y-139062D01*
X436980Y-134563D02*
Y-139062D01*
X438265Y-140562D02*
X441693D01*
X443557Y-134563D02*
X443129Y-134777D01*
X442700Y-135206D01*
X442486Y-135634D01*
X442272Y-136277D01*
Y-137348D01*
X442486Y-137991D01*
X442700Y-138419D01*
X443129Y-138848D01*
X443557Y-139062D01*
X444414D01*
X444842Y-138848D01*
X445271Y-138419D01*
X445485Y-137991D01*
X445700Y-137348D01*
Y-136277D01*
X445485Y-135634D01*
X445271Y-135206D01*
X444842Y-134777D01*
X444414Y-134563D01*
X443557D01*
X446749Y-136919D02*
X448677D01*
X449320Y-136705D01*
X449534Y-136491D01*
X449749Y-136063D01*
Y-135420D01*
X449534Y-134991D01*
X449320Y-134777D01*
X448677Y-134563D01*
X446749D01*
Y-139062D01*
X452255Y-134563D02*
Y-139062D01*
X450756Y-134563D02*
X453755D01*
X455576D02*
X455147Y-134777D01*
X454719Y-135206D01*
X454505Y-135634D01*
X454290Y-136277D01*
Y-137348D01*
X454505Y-137991D01*
X454719Y-138419D01*
X455147Y-138848D01*
X455576Y-139062D01*
X456433D01*
X456861Y-138848D01*
X457290Y-138419D01*
X457504Y-137991D01*
X457718Y-137348D01*
Y-136277D01*
X457504Y-135634D01*
X457290Y-135206D01*
X456861Y-134777D01*
X456433Y-134563D01*
X455576D01*
X458768Y-140562D02*
X462196D01*
X462774Y-134563D02*
Y-139062D01*
X465345D01*
X466909Y-136063D02*
X466481Y-136277D01*
X466052Y-136705D01*
X465838Y-137348D01*
Y-137777D01*
X466052Y-138419D01*
X466481Y-138848D01*
X466909Y-139062D01*
X467552D01*
X467980Y-138848D01*
X468409Y-138419D01*
X468623Y-137777D01*
Y-137348D01*
X468409Y-136705D01*
X467980Y-136277D01*
X467552Y-136063D01*
X466909D01*
X469609D02*
Y-139062D01*
Y-136919D02*
X470251Y-136277D01*
X470680Y-136063D01*
X471322D01*
X471751Y-136277D01*
X471965Y-136919D01*
Y-139062D01*
X475714Y-136063D02*
Y-139490D01*
X475500Y-140133D01*
X475286Y-140347D01*
X474858Y-140562D01*
X474215D01*
X473786Y-140347D01*
X475714Y-136705D02*
X475286Y-136277D01*
X474858Y-136063D01*
X474215D01*
X473786Y-136277D01*
X473358Y-136705D01*
X473144Y-137348D01*
Y-137777D01*
X473358Y-138419D01*
X473786Y-138848D01*
X474215Y-139062D01*
X474858D01*
X475286Y-138848D01*
X475714Y-138419D01*
X165753Y-91817D02*
X165110Y-92031D01*
X164682Y-92674D01*
X164468Y-93745D01*
Y-94388D01*
X164682Y-95459D01*
X165110Y-96102D01*
X165753Y-96316D01*
X166181D01*
X166824Y-96102D01*
X167253Y-95459D01*
X167467Y-94388D01*
Y-93745D01*
X167253Y-92674D01*
X166824Y-92031D01*
X166181Y-91817D01*
X165753D01*
X170616D02*
X168474Y-94816D01*
X171687D01*
X170616Y-91817D02*
Y-96316D01*
X172480Y-94388D02*
X176336D01*
X177665Y-92674D02*
X178093Y-92460D01*
X178736Y-91817D01*
Y-96316D01*
X183106Y-91817D02*
X180964Y-94816D01*
X184177D01*
X183106Y-91817D02*
Y-96316D01*
X184970Y-94388D02*
X188827D01*
X190369Y-92888D02*
Y-92674D01*
X190583Y-92246D01*
X190797Y-92031D01*
X191226Y-91817D01*
X192083D01*
X192511Y-92031D01*
X192726Y-92246D01*
X192940Y-92674D01*
Y-93103D01*
X192726Y-93531D01*
X192297Y-94174D01*
X190155Y-96316D01*
X193154D01*
X195447Y-91817D02*
X194804Y-92031D01*
X194375Y-92674D01*
X194161Y-93745D01*
Y-94388D01*
X194375Y-95459D01*
X194804Y-96102D01*
X195447Y-96316D01*
X195875D01*
X196518Y-96102D01*
X196946Y-95459D01*
X197160Y-94388D01*
Y-93745D01*
X196946Y-92674D01*
X196518Y-92031D01*
X195875Y-91817D01*
X195447D01*
X198382Y-92888D02*
Y-92674D01*
X198596Y-92246D01*
X198810Y-92031D01*
X199239Y-91817D01*
X200096D01*
X200524Y-92031D01*
X200738Y-92246D01*
X200953Y-92674D01*
Y-93103D01*
X200738Y-93531D01*
X200310Y-94174D01*
X198167Y-96316D01*
X201167D01*
X203459Y-91817D02*
X202816Y-92031D01*
X202388Y-92674D01*
X202174Y-93745D01*
Y-94388D01*
X202388Y-95459D01*
X202816Y-96102D01*
X203459Y-96316D01*
X203888D01*
X204530Y-96102D01*
X204959Y-95459D01*
X205173Y-94388D01*
Y-93745D01*
X204959Y-92674D01*
X204530Y-92031D01*
X203888Y-91817D01*
X203459D01*
X49195Y-126316D02*
X47481Y-121817D01*
X45768Y-126316D01*
X46410Y-124816D02*
X48553D01*
X50459Y-125888D02*
X50245Y-126102D01*
X50459Y-126316D01*
X50674Y-126102D01*
X50459Y-125888D01*
X55194Y-121817D02*
X56908Y-123959D01*
Y-126316D01*
X58622Y-121817D02*
X56908Y-123959D01*
X60272Y-123317D02*
X59843Y-123531D01*
X59414Y-123959D01*
X59200Y-124602D01*
Y-125031D01*
X59414Y-125673D01*
X59843Y-126102D01*
X60272Y-126316D01*
X60914D01*
X61343Y-126102D01*
X61771Y-125673D01*
X61985Y-125031D01*
Y-124602D01*
X61771Y-123959D01*
X61343Y-123531D01*
X60914Y-123317D01*
X60272D01*
X62971D02*
Y-125459D01*
X63185Y-126102D01*
X63614Y-126316D01*
X64256D01*
X64685Y-126102D01*
X65328Y-125459D01*
Y-123317D02*
Y-126316D01*
X66506Y-123317D02*
Y-126316D01*
Y-124174D02*
X67149Y-123531D01*
X67577Y-123317D01*
X68220D01*
X68648Y-123531D01*
X68862Y-124174D01*
Y-126316D01*
X72612Y-123317D02*
Y-126745D01*
X72398Y-127387D01*
X72183Y-127602D01*
X71755Y-127816D01*
X71112D01*
X70684Y-127602D01*
X72612Y-123959D02*
X72183Y-123531D01*
X71755Y-123317D01*
X71112D01*
X70684Y-123531D01*
X70255Y-123959D01*
X70041Y-124602D01*
Y-125031D01*
X70255Y-125673D01*
X70684Y-126102D01*
X71112Y-126316D01*
X71755D01*
X72183Y-126102D01*
X72612Y-125673D01*
X73812Y-126959D02*
X76811Y-121817D01*
X80324Y-122888D02*
X80110Y-122460D01*
X79682Y-122031D01*
X79253Y-121817D01*
X78396D01*
X77968Y-122031D01*
X77539Y-122460D01*
X77325Y-122888D01*
X77111Y-123531D01*
Y-124602D01*
X77325Y-125245D01*
X77539Y-125673D01*
X77968Y-126102D01*
X78396Y-126316D01*
X79253D01*
X79682Y-126102D01*
X80110Y-125673D01*
X80324Y-125245D01*
X81803Y-125888D02*
X81588Y-126102D01*
X81803Y-126316D01*
X82017Y-126102D01*
X81803Y-125888D01*
X83002Y-121817D02*
X84716Y-123959D01*
Y-126316D01*
X86430Y-121817D02*
X84716Y-123959D01*
X87009Y-124602D02*
X89579D01*
Y-124174D01*
X89365Y-123745D01*
X89151Y-123531D01*
X88722Y-123317D01*
X88080D01*
X87651Y-123531D01*
X87223Y-123959D01*
X87009Y-124602D01*
Y-125031D01*
X87223Y-125673D01*
X87651Y-126102D01*
X88080Y-126316D01*
X88722D01*
X89151Y-126102D01*
X89579Y-125673D01*
X90544Y-124602D02*
X93115D01*
Y-124174D01*
X92900Y-123745D01*
X92686Y-123531D01*
X92257Y-123317D01*
X91615D01*
X91186Y-123531D01*
X90758Y-123959D01*
X90544Y-124602D01*
Y-125031D01*
X90758Y-125673D01*
X91186Y-126102D01*
X91615Y-126316D01*
X92257D01*
X92686Y-126102D01*
X93115Y-125673D01*
X48895Y-96316D02*
X47181Y-91817D01*
X45467Y-96316D01*
X46110Y-94816D02*
X48253D01*
X50159Y-95888D02*
X49945Y-96102D01*
X50159Y-96316D01*
X50374Y-96102D01*
X50159Y-95888D01*
X54894Y-91817D02*
X56608Y-93959D01*
Y-96316D01*
X58322Y-91817D02*
X56608Y-93959D01*
X59971Y-93317D02*
X59543Y-93531D01*
X59114Y-93959D01*
X58900Y-94602D01*
Y-95031D01*
X59114Y-95673D01*
X59543Y-96102D01*
X59971Y-96316D01*
X60614D01*
X61043Y-96102D01*
X61471Y-95673D01*
X61685Y-95031D01*
Y-94602D01*
X61471Y-93959D01*
X61043Y-93531D01*
X60614Y-93317D01*
X59971D01*
X62671D02*
Y-95459D01*
X62885Y-96102D01*
X63314Y-96316D01*
X63956D01*
X64385Y-96102D01*
X65028Y-95459D01*
Y-93317D02*
Y-96316D01*
X66206Y-93317D02*
Y-96316D01*
Y-94174D02*
X66849Y-93531D01*
X67277Y-93317D01*
X67920D01*
X68348Y-93531D01*
X68563Y-94174D01*
Y-96316D01*
X72312Y-93317D02*
Y-96745D01*
X72097Y-97387D01*
X71883Y-97601D01*
X71455Y-97816D01*
X70812D01*
X70384Y-97601D01*
X72312Y-93959D02*
X71883Y-93531D01*
X71455Y-93317D01*
X70812D01*
X70384Y-93531D01*
X69955Y-93959D01*
X69741Y-94602D01*
Y-95031D01*
X69955Y-95673D01*
X70384Y-96102D01*
X70812Y-96316D01*
X71455D01*
X71883Y-96102D01*
X72312Y-95673D01*
X509153Y-36317D02*
X508724Y-36531D01*
X508296Y-36960D01*
X508082Y-37388D01*
X507867Y-38031D01*
Y-39102D01*
X508082Y-39745D01*
X508296Y-40173D01*
X508724Y-40602D01*
X509153Y-40816D01*
X510010D01*
X510438Y-40602D01*
X510867Y-40173D01*
X511081Y-39745D01*
X511295Y-39102D01*
Y-38031D01*
X511081Y-37388D01*
X510867Y-36960D01*
X510438Y-36531D01*
X510010Y-36317D01*
X509153D01*
X512345D02*
Y-40816D01*
Y-36317D02*
X515130D01*
X512345Y-38460D02*
X514059D01*
X465867Y-36460D02*
X465438Y-36031D01*
X464796Y-35817D01*
X463939D01*
X463296Y-36031D01*
X462867Y-36460D01*
Y-36888D01*
X463082Y-37317D01*
X463296Y-37531D01*
X463725Y-37745D01*
X465010Y-38174D01*
X465438Y-38388D01*
X465653Y-38602D01*
X465867Y-39031D01*
Y-39673D01*
X465438Y-40102D01*
X464796Y-40316D01*
X463939D01*
X463296Y-40102D01*
X462867Y-39673D01*
X466874Y-35817D02*
Y-40316D01*
X469873Y-35817D02*
Y-40316D01*
X466874Y-37960D02*
X469873D01*
X472615Y-35817D02*
Y-40316D01*
X471116Y-35817D02*
X474115D01*
X317701Y-119984D02*
Y-119651D01*
X318034Y-118984D01*
X318367Y-118651D01*
X319034Y-118318D01*
X320367D01*
X321033Y-118651D01*
X321367Y-118984D01*
X321700Y-119651D01*
Y-120317D01*
X321367Y-120984D01*
X320700Y-121984D01*
X317368Y-125316D01*
X322033D01*
X327599Y-118318D02*
X324266D01*
X323933Y-121317D01*
X324266Y-120984D01*
X325266Y-120650D01*
X326266D01*
X327265Y-120984D01*
X327932Y-121650D01*
X328265Y-122650D01*
Y-123317D01*
X327932Y-124316D01*
X327265Y-124983D01*
X326266Y-125316D01*
X325266D01*
X324266Y-124983D01*
X323933Y-124650D01*
X323600Y-123983D01*
X333831Y-119317D02*
X333497Y-118651D01*
X332498Y-118318D01*
X331831D01*
X330831Y-118651D01*
X330165Y-119651D01*
X329832Y-121317D01*
Y-122983D01*
X330165Y-124316D01*
X330831Y-124983D01*
X331831Y-125316D01*
X332164D01*
X333164Y-124983D01*
X333831Y-124316D01*
X334164Y-123317D01*
Y-122983D01*
X333831Y-121984D01*
X333164Y-121317D01*
X332164Y-120984D01*
X331831D01*
X330831Y-121317D01*
X330165Y-121984D01*
X329832Y-122983D01*
X335697Y-122317D02*
X341696D01*
X343762Y-119651D02*
X344428Y-119317D01*
X345428Y-118318D01*
Y-125316D01*
X350894Y-118318D02*
X349894Y-118651D01*
X349227Y-119651D01*
X348894Y-121317D01*
Y-122317D01*
X349227Y-123983D01*
X349894Y-124983D01*
X350894Y-125316D01*
X351560D01*
X352560Y-124983D01*
X353226Y-123983D01*
X353560Y-122317D01*
Y-121317D01*
X353226Y-119651D01*
X352560Y-118651D01*
X351560Y-118318D01*
X350894D01*
X355126Y-119651D02*
X355793Y-119317D01*
X356792Y-118318D01*
Y-125316D01*
X360258Y-122317D02*
X366257D01*
X368323Y-119651D02*
X368990Y-119317D01*
X369990Y-118318D01*
Y-125316D01*
X375455Y-118318D02*
X374455Y-118651D01*
X373789Y-119651D01*
X373456Y-121317D01*
Y-122317D01*
X373789Y-123983D01*
X374455Y-124983D01*
X375455Y-125316D01*
X376122D01*
X377121Y-124983D01*
X377788Y-123983D01*
X378121Y-122317D01*
Y-121317D01*
X377788Y-119651D01*
X377121Y-118651D01*
X376122Y-118318D01*
X375455D01*
X140867Y-91817D02*
Y-96316D01*
Y-91817D02*
X142367D01*
X143010Y-92031D01*
X143438Y-92460D01*
X143653Y-92888D01*
X143867Y-93531D01*
Y-94602D01*
X143653Y-95245D01*
X143438Y-95673D01*
X143010Y-96102D01*
X142367Y-96316D01*
X140867D01*
X148302D02*
X146588Y-91817D01*
X144874Y-96316D01*
X145517Y-94816D02*
X147659D01*
X150851Y-91817D02*
Y-96316D01*
X149351Y-91817D02*
X152351D01*
X155671D02*
X152886D01*
Y-96316D01*
X155671D01*
X152886Y-93959D02*
X154600D01*
X156635Y-93317D02*
X156421Y-93531D01*
X156635Y-93745D01*
X156850Y-93531D01*
X156635Y-93317D01*
Y-95888D02*
X156421Y-96102D01*
X156635Y-96316D01*
X156850Y-96102D01*
X156635Y-95888D01*
X20653Y-91817D02*
X17867D01*
Y-96316D01*
X20653D01*
X17867Y-93959D02*
X19581D01*
X21402Y-91817D02*
Y-96316D01*
Y-91817D02*
X24402Y-96316D01*
Y-91817D02*
Y-96316D01*
X28858Y-92888D02*
X28644Y-92460D01*
X28215Y-92031D01*
X27787Y-91817D01*
X26930D01*
X26501Y-92031D01*
X26073Y-92460D01*
X25859Y-92888D01*
X25644Y-93531D01*
Y-94602D01*
X25859Y-95245D01*
X26073Y-95673D01*
X26501Y-96102D01*
X26930Y-96316D01*
X27787D01*
X28215Y-96102D01*
X28644Y-95673D01*
X28858Y-95245D01*
Y-94602D01*
X27787D02*
X28858D01*
X29886Y-91817D02*
Y-96316D01*
Y-91817D02*
X31815D01*
X32457Y-92031D01*
X32671Y-92246D01*
X32886Y-92674D01*
Y-93103D01*
X32671Y-93531D01*
X32457Y-93745D01*
X31815Y-93959D01*
X29886D01*
X31386D02*
X32886Y-96316D01*
X34107Y-93317D02*
X33893Y-93531D01*
X34107Y-93745D01*
X34321Y-93531D01*
X34107Y-93317D01*
Y-95888D02*
X33893Y-96102D01*
X34107Y-96316D01*
X34321Y-96102D01*
X34107Y-95888D01*
X17867Y-121817D02*
Y-126316D01*
Y-121817D02*
X19367D01*
X20010Y-122031D01*
X20438Y-122460D01*
X20653Y-122888D01*
X20867Y-123531D01*
Y-124602D01*
X20653Y-125245D01*
X20438Y-125673D01*
X20010Y-126102D01*
X19367Y-126316D01*
X17867D01*
X24873Y-122460D02*
X24445Y-122031D01*
X23802Y-121817D01*
X22945D01*
X22302Y-122031D01*
X21874Y-122460D01*
Y-122888D01*
X22088Y-123317D01*
X22302Y-123531D01*
X22731Y-123745D01*
X24016Y-124174D01*
X24445Y-124388D01*
X24659Y-124602D01*
X24873Y-125031D01*
Y-125673D01*
X24445Y-126102D01*
X23802Y-126316D01*
X22945D01*
X22302Y-126102D01*
X21874Y-125673D01*
X29094Y-122888D02*
X28879Y-122460D01*
X28451Y-122031D01*
X28022Y-121817D01*
X27165D01*
X26737Y-122031D01*
X26309Y-122460D01*
X26094Y-122888D01*
X25880Y-123531D01*
Y-124602D01*
X26094Y-125245D01*
X26309Y-125673D01*
X26737Y-126102D01*
X27165Y-126316D01*
X28022D01*
X28451Y-126102D01*
X28879Y-125673D01*
X29094Y-125245D01*
Y-124602D01*
X28022D02*
X29094D01*
X30122Y-121817D02*
Y-126316D01*
Y-121817D02*
X33121Y-126316D01*
Y-121817D02*
Y-126316D01*
X34578Y-123317D02*
X34364Y-123531D01*
X34578Y-123745D01*
X34792Y-123531D01*
X34578Y-123317D01*
Y-125888D02*
X34364Y-126102D01*
X34578Y-126316D01*
X34792Y-126102D01*
X34578Y-125888D01*
X298700Y-63316D02*
X296034Y-56318D01*
X293368Y-63316D01*
X294367Y-60983D02*
X297700D01*
X302665Y-56318D02*
Y-63316D01*
X300333Y-56318D02*
X304998D01*
X305832D02*
Y-63316D01*
X309831D01*
X315929D02*
X313263Y-56318D01*
X310597Y-63316D01*
X311597Y-60983D02*
X314930D01*
X322228Y-57317D02*
X321562Y-56651D01*
X320562Y-56318D01*
X319229D01*
X318229Y-56651D01*
X317562Y-57317D01*
Y-57984D01*
X317896Y-58650D01*
X318229Y-58984D01*
X318895Y-59317D01*
X320895Y-59983D01*
X321562Y-60317D01*
X321895Y-60650D01*
X322228Y-61317D01*
Y-62316D01*
X321562Y-62983D01*
X320562Y-63316D01*
X319229D01*
X318229Y-62983D01*
X317562Y-62316D01*
X296960Y-71230D02*
X296294Y-71563D01*
X295627Y-72230D01*
X295294Y-72896D01*
X294961Y-73896D01*
Y-75562D01*
X295294Y-76562D01*
X295627Y-77229D01*
X296294Y-77895D01*
X296960Y-78228D01*
X298293D01*
X298960Y-77895D01*
X299626Y-77229D01*
X299960Y-76562D01*
X300293Y-75562D01*
Y-73896D01*
X299960Y-72896D01*
X299626Y-72230D01*
X298960Y-71563D01*
X298293Y-71230D01*
X296960D01*
X301926Y-74896D02*
X304925D01*
X305925Y-74563D01*
X306258Y-74229D01*
X306592Y-73563D01*
Y-72563D01*
X306258Y-71896D01*
X305925Y-71563D01*
X304925Y-71230D01*
X301926D01*
Y-78228D01*
X310491Y-71230D02*
Y-78228D01*
X308158Y-71230D02*
X312824D01*
X315656D02*
X314990Y-71563D01*
X314323Y-72230D01*
X313990Y-72896D01*
X313657Y-73896D01*
Y-75562D01*
X313990Y-76562D01*
X314323Y-77229D01*
X314990Y-77895D01*
X315656Y-78228D01*
X316989D01*
X317656Y-77895D01*
X318322Y-77229D01*
X318655Y-76562D01*
X318989Y-75562D01*
Y-73896D01*
X318655Y-72896D01*
X318322Y-72230D01*
X317656Y-71563D01*
X316989Y-71230D01*
X315656D01*
X326121D02*
Y-78228D01*
Y-71230D02*
X329120D01*
X330120Y-71563D01*
X330453Y-71896D01*
X330786Y-72563D01*
Y-73229D01*
X330453Y-73896D01*
X330120Y-74229D01*
X329120Y-74563D01*
X326121D02*
X329120D01*
X330120Y-74896D01*
X330453Y-75229D01*
X330786Y-75896D01*
Y-76895D01*
X330453Y-77562D01*
X330120Y-77895D01*
X329120Y-78228D01*
X326121D01*
X334019Y-73563D02*
X333352Y-73896D01*
X332686Y-74563D01*
X332353Y-75562D01*
Y-76229D01*
X332686Y-77229D01*
X333352Y-77895D01*
X334019Y-78228D01*
X335019D01*
X335685Y-77895D01*
X336352Y-77229D01*
X336685Y-76229D01*
Y-75562D01*
X336352Y-74563D01*
X335685Y-73896D01*
X335019Y-73563D01*
X334019D01*
X342217D02*
Y-78228D01*
Y-74563D02*
X341551Y-73896D01*
X340884Y-73563D01*
X339884D01*
X339218Y-73896D01*
X338551Y-74563D01*
X338218Y-75562D01*
Y-76229D01*
X338551Y-77229D01*
X339218Y-77895D01*
X339884Y-78228D01*
X340884D01*
X341551Y-77895D01*
X342217Y-77229D01*
X344083Y-73563D02*
Y-78228D01*
Y-75562D02*
X344417Y-74563D01*
X345083Y-73896D01*
X345750Y-73563D01*
X346749D01*
X351382Y-71230D02*
Y-78228D01*
Y-74563D02*
X350715Y-73896D01*
X350049Y-73563D01*
X349049D01*
X348382Y-73896D01*
X347716Y-74563D01*
X347383Y-75562D01*
Y-76229D01*
X347716Y-77229D01*
X348382Y-77895D01*
X349049Y-78228D01*
X350049D01*
X350715Y-77895D01*
X351382Y-77229D01*
X298232Y-87249D02*
X293900D01*
Y-94247D01*
X298232D01*
X293900Y-90582D02*
X296566D01*
X299399Y-87249D02*
Y-94247D01*
Y-87249D02*
X302398D01*
X303398Y-87582D01*
X303731Y-87915D01*
X304064Y-88582D01*
Y-89249D01*
X303731Y-89915D01*
X303398Y-90248D01*
X302398Y-90582D01*
X299399D01*
X301732D02*
X304064Y-94247D01*
X305631Y-87249D02*
Y-94247D01*
Y-87249D02*
X308297Y-94247D01*
X310963Y-87249D02*
X308297Y-94247D01*
X310963Y-87249D02*
Y-94247D01*
X318461Y-87249D02*
Y-94247D01*
X322461D01*
X324893Y-89582D02*
X324227Y-89915D01*
X323560Y-90582D01*
X323227Y-91581D01*
Y-92248D01*
X323560Y-93248D01*
X324227Y-93914D01*
X324893Y-94247D01*
X325893D01*
X326560Y-93914D01*
X327226Y-93248D01*
X327559Y-92248D01*
Y-91581D01*
X327226Y-90582D01*
X326560Y-89915D01*
X325893Y-89582D01*
X324893D01*
X329093D02*
Y-94247D01*
Y-90915D02*
X330092Y-89915D01*
X330759Y-89582D01*
X331759D01*
X332425Y-89915D01*
X332758Y-90915D01*
Y-94247D01*
X338590Y-89582D02*
Y-94914D01*
X338257Y-95914D01*
X337924Y-96247D01*
X337257Y-96580D01*
X336258D01*
X335591Y-96247D01*
X338590Y-90582D02*
X337924Y-89915D01*
X337257Y-89582D01*
X336258D01*
X335591Y-89915D01*
X334925Y-90582D01*
X334591Y-91581D01*
Y-92248D01*
X334925Y-93248D01*
X335591Y-93914D01*
X336258Y-94247D01*
X337257D01*
X337924Y-93914D01*
X338590Y-93248D01*
X525367Y-119318D02*
Y-126316D01*
Y-119318D02*
X528367D01*
X529367Y-119651D01*
X529700Y-119984D01*
X530033Y-120651D01*
Y-121317D01*
X529700Y-121984D01*
X529367Y-122317D01*
X528367Y-122650D01*
X525367D02*
X528367D01*
X529367Y-122984D01*
X529700Y-123317D01*
X530033Y-123983D01*
Y-124983D01*
X529700Y-125650D01*
X529367Y-125983D01*
X528367Y-126316D01*
X525367D01*
X490367Y-120318D02*
X489367Y-120651D01*
X488701Y-121651D01*
X488368Y-123317D01*
Y-124317D01*
X488701Y-125983D01*
X489367Y-126983D01*
X490367Y-127316D01*
X491034D01*
X492033Y-126983D01*
X492700Y-125983D01*
X493033Y-124317D01*
Y-123317D01*
X492700Y-121651D01*
X492033Y-120651D01*
X491034Y-120318D01*
X490367D01*
X494933Y-121984D02*
Y-121651D01*
X495266Y-120984D01*
X495599Y-120651D01*
X496266Y-120318D01*
X497599D01*
X498265Y-120651D01*
X498599Y-120984D01*
X498932Y-121651D01*
Y-122317D01*
X498599Y-122984D01*
X497932Y-123984D01*
X494599Y-127316D01*
X499265D01*
X482368Y-113317D02*
Y-117316D01*
Y-113317D02*
X484081D01*
X484653Y-113507D01*
X484843Y-113698D01*
X485034Y-114079D01*
Y-114460D01*
X484843Y-114840D01*
X484653Y-115031D01*
X484081Y-115221D01*
X482368D01*
X483701D02*
X485034Y-117316D01*
X488404Y-113317D02*
X485929D01*
Y-117316D01*
X488404D01*
X485929Y-115221D02*
X487452D01*
X489071Y-113317D02*
X490594Y-117316D01*
X492118Y-113317D02*
X490594Y-117316D01*
X492632Y-113317D02*
Y-117316D01*
X496136Y-113888D02*
X495755Y-113507D01*
X495184Y-113317D01*
X494422D01*
X493851Y-113507D01*
X493470Y-113888D01*
Y-114269D01*
X493660Y-114650D01*
X493851Y-114840D01*
X494232Y-115031D01*
X495374Y-115412D01*
X495755Y-115602D01*
X495946Y-115793D01*
X496136Y-116174D01*
Y-116745D01*
X495755Y-117126D01*
X495184Y-117316D01*
X494422D01*
X493851Y-117126D01*
X493470Y-116745D01*
X497031Y-113317D02*
Y-117316D01*
X499012Y-113317D02*
X498631Y-113507D01*
X498250Y-113888D01*
X498059Y-114269D01*
X497869Y-114840D01*
Y-115793D01*
X498059Y-116364D01*
X498250Y-116745D01*
X498631Y-117126D01*
X499012Y-117316D01*
X499773D01*
X500154Y-117126D01*
X500535Y-116745D01*
X500726Y-116364D01*
X500916Y-115793D01*
Y-114840D01*
X500726Y-114269D01*
X500535Y-113888D01*
X500154Y-113507D01*
X499773Y-113317D01*
X499012D01*
X501849D02*
Y-117316D01*
Y-113317D02*
X504515Y-117316D01*
Y-113317D02*
Y-117316D01*
X294560Y-121795D02*
X297559D01*
X298559Y-121461D01*
X298892Y-121128D01*
X299226Y-120462D01*
Y-119462D01*
X298892Y-118795D01*
X298559Y-118462D01*
X297559Y-118129D01*
X294560D01*
Y-125127D01*
X305791Y-119795D02*
X305458Y-119129D01*
X304791Y-118462D01*
X304125Y-118129D01*
X302792D01*
X302125Y-118462D01*
X301459Y-119129D01*
X301125Y-119795D01*
X300792Y-120795D01*
Y-122461D01*
X301125Y-123461D01*
X301459Y-124128D01*
X302125Y-124794D01*
X302792Y-125127D01*
X304125D01*
X304791Y-124794D01*
X305458Y-124128D01*
X305791Y-123461D01*
X307757Y-122128D02*
X313756D01*
X523300Y-36865D02*
X523729Y-36651D01*
X524371Y-36008D01*
Y-40507D01*
X528742Y-36008D02*
X526599Y-39008D01*
X529813D01*
X528742Y-36008D02*
Y-40507D01*
D11*
X353937Y55118D02*
G03*
X358268Y59808I-404J4718D01*
G01*
X0Y-0D02*
X460630D01*
Y110236D01*
X358268Y110236D02*
X460630Y110236D01*
X358268Y59836D02*
Y110236D01*
X0Y55118D02*
X353937D01*
X0Y-0D02*
Y55118D01*
D12*
X8367Y-131316D02*
X278367D01*
X117868D02*
Y-86316D01*
X7868Y-101316D02*
X277868D01*
X7868Y-116316D02*
X277868D01*
Y-131316D02*
X547867D01*
D13*
Y-131816D02*
Y-26816D01*
X7868Y-86316D02*
X277868D01*
X455368Y-46316D02*
Y-26316D01*
X277868Y-131316D02*
Y-26316D01*
X7868D02*
X547867D01*
X7868Y-131316D02*
Y-26316D01*
X277868Y-46316D02*
X547867D01*
X277868Y-111316D02*
X547867D01*
X512867Y-131316D02*
Y-111316D01*
X474867Y-131816D02*
Y-111816D01*
D14*
X136248Y-56805D02*
X136314Y-56998D01*
X136218Y-56468D02*
X136248Y-56805D01*
X136218Y-56468D02*
X136254Y-56095D01*
X136362Y-55939D01*
X136434Y-56035D01*
X136507Y-56276D01*
D15*
X136410Y-56613D02*
X136700D01*
X135254Y-56853D02*
X135495Y-56805D01*
X135013Y-54640D02*
X135061Y-54735D01*
X135013Y-54640D02*
X135061Y-54495D01*
Y-54640D02*
Y-54495D01*
Y-54735D02*
Y-54640D01*
X134244Y-47462D02*
X134386Y-47564D01*
X134121Y-47185D02*
X134244Y-47462D01*
X134034Y-46772D02*
X134121Y-47185D01*
X134000Y-46264D02*
X134034Y-46772D01*
X134000Y-46264D02*
X134034Y-45757D01*
X134121Y-45344D01*
X134244Y-45066D01*
X134386Y-44965D01*
X134528Y-45066D01*
X134651Y-45344D01*
X134739Y-45757D01*
X134772Y-46264D01*
X134739Y-46772D02*
X134772Y-46264D01*
X134651Y-47185D02*
X134739Y-46772D01*
X134528Y-47462D02*
X134651Y-47185D01*
X134386Y-47564D02*
X134528Y-47462D01*
X134217D02*
X134386Y-47564D01*
X134079Y-47185D02*
X134217Y-47462D01*
X133986Y-46772D02*
X134079Y-47185D01*
X133952Y-46264D02*
X133986Y-46772D01*
X133952Y-46264D02*
X133986Y-45757D01*
X134079Y-45344D01*
X134217Y-45066D01*
X134386Y-44965D01*
X134520Y-45066D01*
X134627Y-45344D01*
X134698Y-45757D01*
X134724Y-46264D01*
X134698Y-46772D02*
X134724Y-46264D01*
X134627Y-47185D02*
X134698Y-46772D01*
X134520Y-47462D02*
X134627Y-47185D01*
X134386Y-47564D02*
X134520Y-47462D01*
X133440Y-47005D02*
X133470Y-47179D01*
X133440Y-47005D02*
X133549Y-46727D01*
X133775Y-46387D01*
X134097Y-46023D01*
X134489Y-45674D01*
X134844Y-45434D01*
X135127Y-45320D01*
X135302Y-45350D01*
X135333Y-45531D01*
X135224Y-45825D02*
X135333Y-45531D01*
X134997Y-46182D02*
X135224Y-45825D01*
X134675Y-46553D02*
X134997Y-46182D01*
X134284Y-46874D02*
X134675Y-46553D01*
X133928Y-47100D02*
X134284Y-46874D01*
X133645Y-47210D02*
X133928Y-47100D01*
X133470Y-47179D02*
X133645Y-47210D01*
X133433Y-46997D02*
X133470Y-47179D01*
X133433Y-46997D02*
X133531Y-46703D01*
X133755Y-46346D01*
X134097Y-45976D01*
X134461Y-45654D01*
X134808Y-45428D01*
X135100Y-45319D01*
X135302Y-45350D01*
X135332Y-45523D01*
X135218Y-45801D02*
X135332Y-45523D01*
X134976Y-46142D02*
X135218Y-45801D01*
X134627Y-46505D02*
X134976Y-46142D01*
X134263Y-46854D02*
X134627Y-46505D01*
X133922Y-47095D02*
X134263Y-46854D01*
X133644Y-47209D02*
X133922Y-47095D01*
X133470Y-47179D02*
X133644Y-47209D01*
X135586Y-46406D02*
X135688Y-46264D01*
X135308Y-46529D02*
X135586Y-46406D01*
X134895Y-46616D02*
X135308Y-46529D01*
X134386Y-46649D02*
X134895Y-46616D01*
X133878D02*
X134386Y-46649D01*
X133464Y-46529D02*
X133878Y-46616D01*
X133186Y-46406D02*
X133464Y-46529D01*
X133085Y-46264D02*
X133186Y-46406D01*
X133085Y-46264D02*
X133186Y-46095D01*
X133464Y-45957D01*
X133878Y-45865D01*
X134386Y-45831D01*
X134895Y-45865D01*
X135308Y-45957D01*
X135586Y-46095D01*
X135688Y-46264D01*
X135586Y-46433D02*
X135688Y-46264D01*
X135308Y-46571D02*
X135586Y-46433D01*
X134895Y-46663D02*
X135308Y-46571D01*
X134386Y-46698D02*
X134895Y-46663D01*
X133878D02*
X134386Y-46698D01*
X133464Y-46571D02*
X133878Y-46663D01*
X133186Y-46433D02*
X133464Y-46571D01*
X133085Y-46264D02*
X133186Y-46433D01*
X133085Y-46264D02*
X133186Y-46123D01*
X133464Y-46000D01*
X133878Y-45912D01*
X134386Y-45879D01*
X134895Y-45912D01*
X135308Y-46000D01*
X135586Y-46123D01*
X135688Y-46264D01*
X135127Y-47209D02*
X135302Y-47179D01*
X134844Y-47095D02*
X135127Y-47209D01*
X134489Y-46854D02*
X134844Y-47095D01*
X134097Y-46505D02*
X134489Y-46854D01*
X133775Y-46142D02*
X134097Y-46505D01*
X133549Y-45801D02*
X133775Y-46142D01*
X133440Y-45523D02*
X133549Y-45801D01*
X133440Y-45523D02*
X133470Y-45350D01*
X133645Y-45319D01*
X133928Y-45428D01*
X134284Y-45654D01*
X134675Y-45976D01*
X134997Y-46346D01*
X135224Y-46703D01*
X135333Y-46997D01*
X135302Y-47179D02*
X135333Y-46997D01*
X135100Y-47210D02*
X135302Y-47179D01*
X134808Y-47100D02*
X135100Y-47210D01*
X134461Y-46874D02*
X134808Y-47100D01*
X134097Y-46553D02*
X134461Y-46874D01*
X133755Y-46182D02*
X134097Y-46553D01*
X133531Y-45825D02*
X133755Y-46182D01*
X133433Y-45531D02*
X133531Y-45825D01*
X133433Y-45531D02*
X133470Y-45350D01*
X133644Y-45320D01*
X133922Y-45434D01*
X134263Y-45674D01*
X134627Y-46023D01*
X134976Y-46387D01*
X135218Y-46727D01*
X135332Y-47005D01*
X135302Y-47179D02*
X135332Y-47005D01*
D16*
X136459Y-56805D02*
X136700D01*
Y-57094D02*
Y-56805D01*
X136459Y-57094D02*
X136700D01*
X136459D02*
Y-56805D01*
X136218Y-57287D02*
X136507Y-56661D01*
X135977Y-57287D02*
X136218D01*
X135832Y-56853D02*
X135977Y-57287D01*
X135832Y-56853D02*
X135880D01*
X135977D01*
X135989Y-56938D01*
X136073Y-57094D01*
X136158Y-57154D01*
X136314Y-57142D01*
X136459Y-56998D01*
X136501Y-56866D01*
X136507Y-56661D01*
X136170Y-56468D02*
X136748Y-56516D01*
X136170Y-56468D02*
X136194Y-56577D01*
X136218Y-56757D01*
X136362Y-56950D01*
X136453Y-56853D01*
X136507Y-56757D01*
Y-56661D01*
X136362D02*
X136507D01*
X136314Y-56589D02*
X136362Y-56661D01*
X136266Y-56516D02*
X136314Y-56589D01*
X136266Y-56516D02*
X136748D01*
X134820Y-57527D02*
Y-56661D01*
Y-57527D02*
X135157Y-57239D01*
X135073Y-57257D02*
X135157Y-57239D01*
X134916Y-57094D02*
X135073Y-57257D01*
X134832Y-56823D02*
X134916Y-57094D01*
X134820Y-56661D02*
X134832Y-56823D01*
X134338Y-57479D02*
Y-56613D01*
Y-57479D02*
X134483Y-57383D01*
X134452Y-57317D02*
X134483Y-57383D01*
X134386Y-57142D02*
X134452Y-57317D01*
X134344Y-56805D02*
X134386Y-57142D01*
X134338Y-56613D02*
X134344Y-56805D01*
X136748Y-57142D02*
Y-56661D01*
X136459D02*
X136748D01*
X136459Y-57094D02*
Y-56661D01*
Y-57094D02*
X136748Y-57142D01*
X136314Y-56950D02*
X136362D01*
X136218Y-56661D02*
X136314Y-56950D01*
X136025Y-56661D02*
X136218D01*
X136025D02*
X136103Y-56926D01*
X136218Y-57046D01*
X136362Y-56950D01*
X135630Y-55449D02*
X135832Y-55217D01*
X135513Y-55771D02*
X135630Y-55449D01*
X135459Y-56056D02*
X135513Y-55771D01*
X135447Y-56180D02*
X135459Y-56056D01*
X135447Y-56180D02*
X135484Y-56731D01*
X135567Y-57052D01*
X135650Y-57202D01*
X135688Y-57239D01*
X135639Y-57257D02*
X135688Y-57239D01*
X135591D02*
X135639Y-57257D01*
X135444Y-57178D02*
X135591Y-57239D01*
X135350Y-57004D02*
X135444Y-57178D01*
X135293Y-56731D02*
X135350Y-57004D01*
X135254Y-56372D02*
X135293Y-56731D01*
X135254Y-56372D02*
X135288Y-55933D01*
X135380Y-55530D01*
X135518Y-55235D01*
X135688Y-55121D01*
X135832Y-55217D01*
X136989Y-56613D02*
X137085Y-56516D01*
X136844Y-56661D02*
X136989Y-56613D01*
X136796Y-56516D02*
X136844Y-56661D01*
X136796Y-56516D02*
X136844Y-56372D01*
Y-56516D02*
Y-56372D01*
Y-56516D02*
X137085D01*
X134772Y-39092D02*
X134820Y-39381D01*
X134868Y-39267D01*
X134772Y-38900D02*
X134868Y-39267D01*
X134754Y-38960D02*
X134772Y-38900D01*
X134754Y-38960D02*
X134772Y-39092D01*
X134290Y-41162D02*
X134296Y-41024D01*
X134338Y-40777D01*
X134320Y-40657D02*
X134338Y-40777D01*
X134320Y-40657D02*
X134338Y-40536D01*
X134386Y-40621D01*
X134434Y-40777D01*
X134362Y-41006D02*
X134434Y-40777D01*
X134290Y-41162D02*
X134362Y-41006D01*
X135157Y-39429D02*
X135212Y-39483D01*
X135302Y-39574D01*
X135404Y-39869D01*
X135398Y-40055D02*
X135404Y-39869D01*
X135314Y-39971D02*
X135398Y-40055D01*
X135302Y-39814D02*
X135314Y-39971D01*
X135212Y-39586D02*
X135302Y-39814D01*
X135157Y-39429D02*
X135212Y-39586D01*
X133229Y-40873D02*
Y-40681D01*
Y-41066D02*
Y-40873D01*
X133181Y-41258D02*
X133229Y-41066D01*
X133085Y-41306D02*
X133181Y-41258D01*
X133061Y-41325D02*
X133085Y-41306D01*
X133037D02*
X133061Y-41325D01*
X133037Y-41306D02*
Y-41210D01*
X133067Y-41198D01*
X133133Y-41114D01*
X133181Y-40879D01*
X133229Y-40681D01*
X134290Y-39959D02*
X134332Y-39995D01*
X134338Y-40103D01*
X134332Y-40139D02*
X134338Y-40103D01*
X134290Y-40248D02*
X134332Y-40139D01*
X134229Y-40338D02*
X134290Y-40248D01*
X134229Y-40338D02*
X134241Y-40103D01*
X134290Y-39959D01*
X132506Y-37696D02*
Y-37552D01*
X132410Y-37636D02*
X132506Y-37696D01*
X132313Y-37504D02*
X132410Y-37636D01*
X132313Y-37504D02*
X132392Y-37528D01*
X132506Y-37552D01*
X132651Y-37408D02*
X132844Y-37504D01*
X133085Y-37955D01*
X133326Y-38226D01*
X133314Y-38388D02*
X133326Y-38226D01*
X133258Y-38476D02*
X133314Y-38388D01*
X133229Y-38515D02*
X133258Y-38476D01*
X133229Y-38515D02*
X133410Y-38298D01*
X133338Y-38118D02*
X133410Y-38298D01*
X133175Y-37919D02*
X133338Y-38118D01*
X133085Y-37648D02*
X133175Y-37919D01*
X133085Y-37648D02*
X133145Y-37534D01*
X133277Y-37600D01*
X133259Y-37552D02*
X133277Y-37600D01*
X133259Y-37552D02*
X133277Y-37504D01*
X133374Y-37552D01*
X133283Y-37498D02*
X133374Y-37552D01*
X133229Y-37408D02*
X133283Y-37498D01*
X133229Y-37408D02*
X133320Y-37330D01*
X133374Y-37215D01*
X133597Y-37119D01*
X133856Y-37167D01*
X133760Y-37071D02*
X133856Y-37167D01*
X133760Y-37071D02*
X133826Y-37059D01*
X133711Y-37119D02*
X133826Y-37059D01*
X133537Y-37077D02*
X133711Y-37119D01*
X133470Y-37071D02*
X133537Y-37077D01*
X133314Y-37023D02*
X133470Y-37071D01*
X133085Y-36975D02*
X133314Y-37023D01*
X132976Y-36987D02*
X133085Y-36975D01*
X132796Y-37071D02*
X132976Y-36987D01*
X132579Y-37131D02*
X132796Y-37071D01*
X132506Y-36975D02*
X132579Y-37131D01*
X132506Y-36975D02*
X132707Y-36829D01*
X132998Y-36750D01*
X133349Y-36733D01*
X133729Y-36770D01*
X134107Y-36857D01*
X134452Y-36988D01*
X134732Y-37157D01*
X134916Y-37360D01*
X135139Y-37811D01*
X135254Y-38370D01*
X135302Y-38400D01*
X135350Y-38467D01*
X135362Y-38605D01*
X135302Y-38707D02*
X135362Y-38605D01*
X135254Y-38659D02*
X135302Y-38707D01*
X135254Y-38659D02*
X135356Y-39034D01*
X135531Y-39381D01*
X135688Y-39729D01*
X135736Y-40103D01*
X135591Y-40199D02*
X135736Y-40103D01*
X135591Y-40199D02*
X135736Y-40488D01*
X135784Y-40440D01*
X135989Y-41234D01*
X136266Y-42028D01*
X135892Y-41704D02*
X136266Y-42028D01*
X135591Y-41306D02*
X135892Y-41704D01*
X135442Y-41774D02*
X135591Y-41306D01*
X135302Y-42046D02*
X135442Y-41774D01*
X135157Y-42173D02*
X135302Y-42046D01*
X134983Y-41764D02*
X135157Y-42173D01*
X134627Y-41355D02*
X134983Y-41764D01*
X134536Y-41721D02*
X134627Y-41355D01*
X134368Y-41974D02*
X134536Y-41721D01*
X134173Y-42147D02*
X134368Y-41974D01*
X134000Y-42269D02*
X134173Y-42147D01*
X133966Y-42208D02*
X134000Y-42269D01*
X133904Y-41998D02*
X133966Y-42208D01*
X133770Y-41707D02*
X133904Y-41998D01*
X133519Y-41403D02*
X133770Y-41707D01*
X133485Y-41467D02*
X133519Y-41403D01*
X133398Y-41625D02*
X133485Y-41467D01*
X133274Y-41829D02*
X133398Y-41625D01*
X133133Y-42028D02*
X133274Y-41829D01*
X133032Y-42114D02*
X133133Y-42028D01*
X132904Y-42203D02*
X133032Y-42114D01*
X132747Y-42269D02*
X132904Y-42203D01*
X132699Y-41902D02*
X132747Y-42269D01*
X132651Y-41499D02*
X132699Y-41902D01*
X132507Y-41614D02*
X132651Y-41499D01*
X132404Y-41698D02*
X132507Y-41614D01*
X132292Y-41790D02*
X132404Y-41698D01*
X132121Y-41932D02*
X132292Y-41790D01*
X131880Y-42041D02*
X132121Y-41932D01*
X131783Y-42077D02*
X131880Y-42041D01*
X131783Y-42077D02*
X132121Y-41419D01*
X132458Y-40789D01*
X132759Y-40141D01*
X132988Y-39429D01*
Y-39279D01*
Y-39092D01*
X133017Y-39070D01*
X133165Y-39079D01*
X133085Y-38948D02*
X133165Y-39079D01*
X132801Y-38593D02*
X133085Y-38948D01*
X132410Y-38274D02*
X132801Y-38593D01*
X132410Y-38274D02*
X132717Y-38232D01*
X132988Y-38370D01*
X133063Y-38449D01*
X133104Y-38391D01*
X132988Y-38226D02*
X133104Y-38391D01*
X132559Y-38094D02*
X132988Y-38226D01*
X131976Y-38034D02*
X132559Y-38094D01*
X131429Y-38118D02*
X131976Y-38034D01*
X131109Y-38419D02*
X131429Y-38118D01*
X130929D02*
X131109Y-38419D01*
X130929Y-38118D02*
X130940Y-37781D01*
X131095Y-37498D01*
X131349Y-37360D01*
X131964Y-37330D01*
X132651Y-37408D01*
X135109Y-42462D02*
X135218Y-42341D01*
X135398Y-42221D01*
X135489Y-42101D01*
X135543Y-41980D01*
X135676Y-41722D01*
X135736Y-41643D01*
X135920Y-41883D01*
X136163Y-42113D01*
X136434Y-42253D01*
X136700Y-42221D01*
X136260Y-41619D02*
X136700Y-42221D01*
X136073Y-40873D02*
X136260Y-41619D01*
X135676Y-39195D02*
X136073Y-40873D01*
X135205Y-37552D02*
X135676Y-39195D01*
X134916Y-37167D02*
X135205Y-37552D01*
X134506Y-36847D02*
X134916Y-37167D01*
X134025Y-36662D02*
X134506Y-36847D01*
X133506Y-36585D02*
X134025Y-36662D01*
X132988Y-36590D02*
X133506Y-36585D01*
X132572Y-36740D02*
X132988Y-36590D01*
X132265Y-37071D02*
X132572Y-36740D01*
X132157Y-37137D02*
X132265Y-37071D01*
X131976Y-37167D02*
X132157Y-37137D01*
X131392Y-37173D02*
X131976Y-37167D01*
X130916Y-37504D02*
X131392Y-37173D01*
X130770Y-37815D02*
X130916Y-37504D01*
X130759Y-38148D02*
X130770Y-37815D01*
X130759Y-38148D02*
X130875Y-38472D01*
X131109Y-38756D01*
X131241Y-38449D01*
X131446Y-38322D01*
X131915Y-38259D01*
X132343Y-38394D01*
X132673Y-38674D01*
X132844Y-39044D01*
X132783Y-39754D02*
X132844Y-39044D01*
X132506Y-40392D02*
X132783Y-39754D01*
X131735Y-41788D02*
X132506Y-40392D01*
X131633Y-42022D02*
X131735Y-41788D01*
X131494Y-42221D02*
X131633Y-42022D01*
X131494Y-42221D02*
X132078Y-42095D01*
X132554Y-41788D01*
X132603Y-42149D01*
X132651Y-42510D01*
X133217Y-42095D01*
X133567Y-41643D01*
X133645Y-41772D01*
X133687Y-41842D01*
X133729Y-41921D01*
X133808Y-42077D01*
X133898Y-42287D01*
X133952Y-42462D01*
X134012Y-42417D01*
X134145Y-42317D01*
X134278Y-42218D01*
X134338Y-42173D01*
X134500Y-41989D01*
X134585Y-41890D01*
X134643Y-41800D01*
X134724Y-41643D01*
X134802Y-41770D01*
X134916Y-41932D01*
X135049Y-42197D01*
X135109Y-42462D01*
X148702Y-47516D02*
X148792Y-47714D01*
X148991Y-47805D01*
X149190Y-47714D01*
X149280Y-47516D01*
X149190Y-47317D02*
X149280Y-47516D01*
X148991Y-47227D02*
X149190Y-47317D01*
X148792D02*
X148991Y-47227D01*
X148702Y-47516D02*
X148792Y-47317D01*
X118191Y-47516D02*
X118281Y-47714D01*
X118480Y-47805D01*
X118679Y-47714D01*
X118769Y-47516D01*
X118679Y-47317D02*
X118769Y-47516D01*
X118480Y-47227D02*
X118679Y-47317D01*
X118281D02*
X118480Y-47227D01*
X118191Y-47516D02*
X118281Y-47317D01*
X145810Y-59790D02*
X145906Y-59693D01*
X144990Y-57720D02*
X145906Y-59693D01*
X144990Y-57720D02*
X146051Y-58731D01*
X146292Y-58971D01*
X146195Y-59212D02*
X146292Y-58971D01*
X146195Y-59212D02*
X146244Y-59308D01*
X146870Y-58635D01*
X146822Y-58538D02*
X146870Y-58635D01*
X146774Y-58586D02*
X146822Y-58538D01*
X146515Y-58665D02*
X146774Y-58586D01*
X146292Y-58490D02*
X146515Y-58665D01*
X145376Y-57672D02*
X146292Y-58490D01*
X145183Y-57479D02*
X145376Y-57672D01*
X145183Y-57479D02*
X145280Y-57239D01*
Y-57191D01*
X145231Y-57142D02*
X145280Y-57191D01*
X144701Y-57672D02*
X145231Y-57142D01*
X144701Y-57672D02*
X145472Y-59308D01*
X143833Y-58635D02*
X145472Y-59308D01*
X143303Y-59212D02*
X143833Y-58635D01*
X143303Y-59212D02*
X143351Y-59308D01*
X143400Y-59260D01*
X143659Y-59182D01*
X143882Y-59356D01*
X144798Y-60175D01*
X144990Y-60415D01*
X144978Y-60536D02*
X144990Y-60415D01*
X144894Y-60656D02*
X144978Y-60536D01*
X144894Y-60656D02*
X144942Y-60752D01*
X145520Y-60126D01*
X145424Y-60030D02*
X145520Y-60126D01*
X145376Y-60078D02*
X145424Y-60030D01*
X145292Y-60181D02*
X145376Y-60078D01*
X145135Y-60175D02*
X145292Y-60181D01*
X145032Y-60120D02*
X145135Y-60175D01*
X144894Y-60030D02*
X145032Y-60120D01*
X143737Y-58971D02*
X144894Y-60030D01*
X143737Y-58971D02*
X145810Y-59790D01*
X149184Y-49778D02*
X149232Y-49056D01*
X148268Y-49345D02*
X149184Y-49778D01*
X148268Y-49345D02*
X149232Y-49056D01*
X147979Y-49104D02*
X149762Y-48526D01*
X147979Y-49393D02*
Y-49104D01*
Y-49393D02*
X149328Y-50019D01*
X149810Y-50307D01*
X149961Y-50434D01*
X150003Y-50596D01*
Y-50644D02*
Y-50596D01*
Y-50644D02*
X150100D01*
X150196Y-49778D01*
X150100D02*
X150196D01*
X150015Y-49970D02*
X150100Y-49778D01*
X149859Y-50019D02*
X150015Y-49970D01*
X149569Y-49922D02*
X149859Y-50019D01*
X149328Y-49826D02*
X149569Y-49922D01*
X149328Y-49826D02*
X149377Y-49008D01*
X149810Y-48863D01*
X149955Y-48815D01*
X150087Y-48942D01*
X150148Y-49104D01*
X150244D01*
X150292Y-48190D01*
X150196D02*
X150292D01*
X150033Y-48430D02*
X150196Y-48190D01*
X149762Y-48526D02*
X150033Y-48430D01*
X147979Y-50452D02*
X148798Y-50500D01*
X147930Y-50548D02*
X147979Y-50452D01*
X147930Y-50548D02*
X148075Y-50692D01*
X147852Y-50945D02*
X148075Y-50692D01*
X147738Y-51270D02*
X147852Y-50945D01*
X147731Y-51724D02*
X147738Y-51270D01*
X147731Y-51724D02*
X147900Y-52118D01*
X148205Y-52414D01*
X148605Y-52570D01*
X149088Y-52590D01*
X149503Y-52443D01*
X149819Y-52143D01*
X150003Y-51703D01*
X149997Y-51095D02*
X150003Y-51703D01*
X149666Y-50596D02*
X149997Y-51095D01*
X149569Y-50740D02*
X149666Y-50596D01*
X149569Y-50740D02*
X149840Y-51138D01*
X149859Y-51607D01*
X149714Y-51950D02*
X149859Y-51607D01*
X149425Y-52185D02*
X149714Y-51950D01*
X149087Y-52263D02*
X149425Y-52185D01*
X148750Y-52233D02*
X149087Y-52263D01*
X148075Y-51896D02*
X148750Y-52233D01*
X147888Y-51601D02*
X148075Y-51896D01*
X147882Y-51270D02*
X147888Y-51601D01*
X147882Y-51270D02*
X147997Y-50975D01*
X148220Y-50789D01*
X148750Y-50596D01*
X148798Y-50500D01*
X147882Y-53051D02*
X149039Y-53388D01*
X149316Y-53502D01*
X149377Y-53725D01*
Y-53773D02*
Y-53725D01*
Y-53773D02*
X149473Y-53821D01*
X149714Y-52955D01*
X149617D02*
X149714D01*
X149617Y-53003D02*
Y-52955D01*
X149431Y-53141D02*
X149617Y-53003D01*
X149135Y-53099D02*
X149431Y-53141D01*
X147979Y-52762D02*
X149135Y-53099D01*
X147720Y-52624D02*
X147979Y-52762D01*
X147641Y-52377D02*
X147720Y-52624D01*
X147641Y-52377D02*
X147690D01*
X147593Y-52329D02*
X147690Y-52377D01*
X147304Y-53195D02*
X147593Y-52329D01*
X147304Y-53195D02*
X147400D01*
X147449Y-53147D01*
X147629Y-52991D01*
X147882Y-53051D01*
X147641Y-55024D02*
X147834Y-54591D01*
X147015Y-54735D02*
X147641Y-55024D01*
X146918Y-54591D02*
X147015Y-54735D01*
X146918Y-54591D02*
X146930Y-54399D01*
X147015Y-54206D01*
X147134Y-54025D01*
X147280Y-53875D01*
X147462Y-53807D01*
X147690Y-53869D01*
X147864Y-53977D01*
X147930Y-54158D01*
X147936Y-54393D01*
X147834Y-54591D02*
X147936Y-54393D01*
X148075Y-54351D02*
X148991Y-54158D01*
X148075Y-54351D02*
X148135Y-53869D01*
X147834Y-53532D02*
X148135Y-53869D01*
X147563Y-53479D02*
X147834Y-53532D01*
X147328Y-53574D02*
X147563Y-53479D01*
X147129Y-53769D02*
X147328Y-53574D01*
X146966Y-54014D02*
X147129Y-53769D01*
X146436Y-55169D02*
X146966Y-54014D01*
X146436Y-55169D02*
X146484Y-55217D01*
X146533Y-55169D01*
X146756Y-55018D01*
X147015Y-55121D01*
X148123Y-55650D01*
X148244Y-55704D01*
X148364Y-55795D01*
Y-56035D02*
Y-55795D01*
Y-56083D02*
Y-56035D01*
Y-56083D02*
X148413Y-56132D01*
X148846Y-55265D01*
X148750Y-55217D02*
X148846Y-55265D01*
X148750D02*
Y-55217D01*
X148527Y-55440D02*
X148750Y-55265D01*
X148268Y-55361D02*
X148527Y-55440D01*
X147738Y-55121D02*
X148268Y-55361D01*
X147738Y-55121D02*
X147979Y-54688D01*
X149232Y-54495D01*
X149473Y-54014D01*
X149377Y-53966D02*
X149473Y-54014D01*
X149220Y-54116D02*
X149377Y-53966D01*
X148991Y-54158D02*
X149220Y-54116D01*
X146388Y-55361D02*
X147015Y-55506D01*
X145376Y-56950D02*
X146388Y-55361D01*
X145376Y-56950D02*
X145424Y-56998D01*
X145472Y-56950D01*
X145695Y-56847D01*
X145954Y-56998D01*
X146966Y-57624D01*
X147207Y-57864D01*
X147220Y-57967D01*
X147159Y-58105D02*
X147220Y-57967D01*
X147159Y-58105D02*
X147256Y-58153D01*
X148268Y-56565D01*
X147882Y-55939D02*
X148268Y-56565D01*
X147786Y-55987D02*
X147882Y-55939D01*
X147786Y-55987D02*
X147882Y-56649D01*
X147690Y-57239D02*
X147882Y-56649D01*
X147545Y-57395D02*
X147690Y-57239D01*
X147400Y-57479D02*
X147545Y-57395D01*
X147207Y-57383D02*
X147400Y-57479D01*
X146629Y-57046D02*
X147207Y-57383D01*
X146629Y-57046D02*
X146774Y-56853D01*
X146882Y-56721D01*
X147063Y-56661D01*
X147352Y-56709D01*
X147400Y-56613D01*
X146581Y-56083D02*
X147400Y-56613D01*
X146533Y-56180D02*
X146581Y-56083D01*
X146533Y-56180D02*
X146744Y-56468D01*
X146629Y-56757D02*
X146744Y-56468D01*
X146533Y-56950D02*
X146629Y-56757D01*
X146099Y-56661D02*
X146533Y-56950D01*
X145966Y-56583D02*
X146099Y-56661D01*
X145906Y-56468D02*
X145966Y-56583D01*
X145906Y-56468D02*
X145960Y-56306D01*
X146051Y-56180D01*
X146454Y-55765D01*
X146966Y-55602D01*
X147015Y-55506D01*
X142966Y-61089D02*
X143544Y-60656D01*
X142629Y-60078D02*
X142966Y-61089D01*
X142629Y-60078D02*
X143544Y-60656D01*
X142629Y-59741D02*
X144219Y-60656D01*
X142387Y-59934D02*
X142629Y-59741D01*
X142387Y-59934D02*
X142821Y-61378D01*
X142912Y-61643D01*
X142966Y-61908D01*
X142972Y-62076D01*
X142870Y-62244D02*
X142972Y-62076D01*
X142870Y-62293D02*
Y-62244D01*
Y-62293D02*
X142918Y-62341D01*
X143593Y-61811D01*
X143544Y-61715D02*
X143593Y-61811D01*
X143358D02*
X143544Y-61715D01*
X143207Y-61763D02*
X143358Y-61811D01*
X143062Y-61474D02*
X143207Y-61763D01*
X143014Y-61234D02*
X143062Y-61474D01*
X143014Y-61234D02*
X143689Y-60704D01*
X144026Y-60945D01*
X144171Y-61041D01*
X144195Y-61185D01*
X144074Y-61330D02*
X144195Y-61185D01*
X144074Y-61330D02*
X144123Y-61426D01*
X144846Y-60849D01*
X144798Y-60752D02*
X144846Y-60849D01*
X144508Y-60812D02*
X144798Y-60752D01*
X144219Y-60656D02*
X144508Y-60812D01*
X141231Y-60849D02*
X141713Y-61234D01*
X139640Y-61667D02*
X141231Y-60849D01*
X139640Y-61763D02*
Y-61667D01*
Y-61763D02*
X139688D01*
X139864Y-61713D01*
X139977Y-61757D01*
X140054Y-61865D01*
X140122Y-62004D01*
X140652Y-63063D01*
X140718Y-63225D01*
X140749Y-63352D01*
X140604Y-63544D02*
X140749Y-63352D01*
X140604Y-63592D02*
Y-63544D01*
Y-63592D02*
X140652Y-63688D01*
X141472Y-63255D01*
X141423Y-63159D02*
X141472Y-63255D01*
X141375Y-63159D02*
X141423D01*
X141104Y-63165D02*
X141375Y-63159D01*
X140942Y-62918D02*
X141104Y-63165D01*
X140700Y-62389D02*
X140942Y-62918D01*
X140700Y-62389D02*
X140845Y-62293D01*
X141188Y-62226D01*
X141423Y-62485D01*
X141520Y-62437D01*
X141086Y-61570D02*
X141520Y-62437D01*
X140989Y-61619D02*
X141086Y-61570D01*
X140989Y-61619D02*
X141056Y-61938D01*
X140797Y-62148D02*
X141056Y-61938D01*
X140604Y-62244D02*
X140797Y-62148D01*
X140411Y-61860D02*
X140604Y-62244D01*
X140327Y-61697D02*
X140411Y-61860D01*
X140315Y-61570D02*
X140327Y-61697D01*
X140315Y-61570D02*
X140417Y-61432D01*
X140556Y-61330D01*
X141104Y-61221D01*
X141616Y-61330D01*
X141713Y-61234D01*
X138256Y-62940D02*
X138339Y-63352D01*
X138256Y-62940D02*
X138296Y-62587D01*
X138454Y-62316D01*
X138724Y-62148D01*
X139093Y-62105D01*
X139399Y-62238D01*
X139632Y-62507D01*
X139785Y-62870D01*
X139873Y-63234D01*
X139839Y-63580D02*
X139873Y-63234D01*
X139669Y-63872D02*
X139839Y-63580D01*
X139351Y-64073D02*
X139669Y-63872D01*
X138989Y-64082D02*
X139351Y-64073D01*
X138700Y-63929D02*
X138989Y-64082D01*
X138483Y-63667D02*
X138700Y-63929D01*
X138339Y-63352D02*
X138483Y-63667D01*
X139951Y-62335D02*
X140170Y-62774D01*
X139610Y-62040D02*
X139951Y-62335D01*
X139187Y-61908D02*
X139610Y-62040D01*
X138724Y-61955D02*
X139187Y-61908D01*
X138312Y-62202D02*
X138724Y-61955D01*
X138031Y-62557D02*
X138312Y-62202D01*
X137904Y-62984D02*
X138031Y-62557D01*
X137904Y-62984D02*
X137953Y-63448D01*
X138172Y-63859D01*
X138513Y-64140D01*
X138936Y-64267D01*
X139399Y-64218D01*
X139811Y-63999D01*
X140092Y-63658D01*
X140219Y-63236D01*
X140170Y-62774D02*
X140219Y-63236D01*
X136459Y-62678D02*
X136748Y-63255D01*
X136362Y-62678D02*
X136459D01*
X136314Y-62822D02*
X136362Y-62678D01*
X136019Y-62720D02*
X136314Y-62822D01*
X135688Y-62726D02*
X136019Y-62720D01*
X135447Y-62768D02*
X135688Y-62726D01*
X135205Y-62918D02*
X135447Y-62768D01*
X135055Y-63141D02*
X135205Y-62918D01*
X135013Y-63399D02*
X135055Y-63141D01*
X135013Y-63399D02*
X135121Y-63646D01*
X135302Y-63785D01*
X135543Y-63875D01*
X135784Y-63929D01*
X136170Y-63977D01*
X136507Y-64037D01*
X136700Y-64314D01*
X136561Y-64669D02*
X136700Y-64314D01*
X136170Y-64844D02*
X136561Y-64669D01*
X135855Y-64821D02*
X136170Y-64844D01*
X135573Y-64699D02*
X135855Y-64821D01*
X135336Y-64505D02*
X135573Y-64699D01*
X135157Y-64266D02*
X135336Y-64505D01*
X135013Y-64362D02*
X135157Y-64266D01*
X135013Y-64362D02*
X135350Y-65084D01*
X135447Y-65036D01*
X135495Y-64892D01*
X135838Y-64994D01*
X136218Y-64988D01*
X136535Y-64907D01*
X136802Y-64741D01*
X136970Y-64494D01*
X136989Y-64170D01*
X136896Y-63911D02*
X136989Y-64170D01*
X136712Y-63761D02*
X136896Y-63911D01*
X136474Y-63682D02*
X136712Y-63761D01*
X136218Y-63640D02*
X136474Y-63682D01*
X135880Y-63592D02*
X136218Y-63640D01*
X135696Y-63560D02*
X135880Y-63592D01*
X135525Y-63514D02*
X135696Y-63560D01*
X135399Y-63423D02*
X135525Y-63514D01*
X135350Y-63255D02*
X135399Y-63423D01*
X135350Y-63255D02*
X135459Y-62972D01*
X135784Y-62870D01*
X136254Y-62960D01*
X136652Y-63303D01*
X136748Y-63255D01*
X132410Y-62870D02*
X132458Y-63496D01*
X130530Y-62533D02*
X132410Y-62870D01*
X130241Y-63111D02*
X130530Y-62533D01*
X130241Y-63111D02*
X130337Y-63159D01*
X130693Y-62840D01*
X131157Y-62774D01*
X131241Y-62852D01*
X131253Y-62966D01*
X131012Y-64410D02*
X131253Y-62966D01*
X130964Y-64537D02*
X131012Y-64410D01*
X130916Y-64699D02*
X130964Y-64537D01*
X130626Y-64747D02*
X130916Y-64699D01*
X130578Y-64747D02*
X130626D01*
X130578Y-64844D02*
Y-64747D01*
Y-64844D02*
X131590Y-64988D01*
Y-64892D01*
X131542D02*
X131590D01*
X131386Y-64855D02*
X131542Y-64892D01*
X131301Y-64747D02*
X131386Y-64855D01*
X131283Y-64585D02*
X131301Y-64747D01*
X131283Y-64585D02*
X131301Y-64459D01*
X131542Y-63063D01*
X131603Y-62930D01*
X131735Y-62870D01*
X132121Y-63111D01*
X132362Y-63496D01*
X132458D01*
X128891Y-63399D02*
X129614Y-63640D01*
X128891Y-63399D02*
X129566Y-62581D01*
X129614Y-63640D01*
X129855Y-62389D02*
X130000Y-64218D01*
X129566Y-62293D02*
X129855Y-62389D01*
X128602Y-63448D02*
X129566Y-62293D01*
X128433Y-63682D02*
X128602Y-63448D01*
X128265Y-63881D02*
X128433Y-63682D01*
X128096Y-63983D02*
X128265Y-63881D01*
X127927Y-63977D02*
X128096Y-63983D01*
X127879Y-63977D02*
X127927D01*
X127831Y-64073D02*
X127879Y-63977D01*
X127831Y-64073D02*
X128699Y-64362D01*
Y-64266D01*
X128530Y-64158D02*
X128699Y-64266D01*
X128506Y-63977D02*
X128530Y-64158D01*
X128506Y-63977D02*
X128560Y-63839D01*
X128650Y-63737D01*
X128795Y-63544D01*
X129614Y-63785D01*
X129663Y-64170D01*
Y-64362D02*
Y-64170D01*
X129530Y-64465D02*
X129663Y-64362D01*
X129325Y-64459D02*
X129530Y-64465D01*
X129325Y-64555D02*
Y-64459D01*
Y-64555D02*
X130193Y-64844D01*
X130241Y-64747D01*
X130030Y-64537D02*
X130241Y-64747D01*
X130000Y-64218D02*
X130030Y-64537D01*
X128747Y-62678D02*
X128843Y-62052D01*
X127108Y-61234D02*
X128843Y-62052D01*
X126674Y-61715D02*
X127108Y-61234D01*
X126674Y-61715D02*
X126770Y-61763D01*
X127186Y-61565D01*
X127638Y-61619D01*
X127734Y-61739D01*
X127686Y-61860D02*
X127734Y-61739D01*
X127108Y-63159D02*
X127686Y-61860D01*
X127030Y-63279D02*
X127108Y-63159D01*
X126915Y-63399D02*
X127030Y-63279D01*
X126674Y-63399D02*
X126915D01*
X126626Y-63352D02*
X126674Y-63399D01*
X126578Y-63448D02*
X126626Y-63352D01*
X126578Y-63448D02*
X127493Y-63881D01*
X127542Y-63785D01*
X127445D02*
X127542D01*
X127355Y-63700D02*
X127445Y-63785D01*
X127301Y-63544D02*
X127355Y-63700D01*
X127301Y-63544D02*
X127331Y-63424D01*
X127397Y-63303D01*
X127975Y-62004D01*
X128054Y-61883D01*
X128168Y-61908D01*
X128500Y-62196D01*
X128650Y-62629D01*
X128747Y-62678D01*
X126578Y-61667D02*
X126722Y-61089D01*
X126626Y-60993D02*
X126722Y-61089D01*
X126529D02*
X126626Y-60993D01*
X126373Y-60812D02*
X126529Y-61089D01*
X126144Y-60608D02*
X126373Y-60812D01*
X125897Y-60482D02*
X126144Y-60608D01*
X125614Y-60464D02*
X125897Y-60482D01*
X125361Y-60530D02*
X125614Y-60464D01*
X125180Y-60704D02*
X125361Y-60530D01*
X125101Y-60945D02*
X125180Y-60704D01*
X125101Y-60945D02*
X125132Y-61185D01*
X125258Y-61396D01*
X125421Y-61570D01*
X125662Y-61860D01*
X125903Y-62130D01*
X125855Y-62437D02*
X125903Y-62130D01*
X125707Y-62594D02*
X125855Y-62437D01*
X125505Y-62647D02*
X125707Y-62594D01*
X125285Y-62620D02*
X125505Y-62647D01*
X125083Y-62533D02*
X125285Y-62620D01*
X124746Y-62058D02*
X125083Y-62533D01*
X124698Y-61474D02*
X124746Y-62058D01*
X124553Y-61426D02*
X124698Y-61474D01*
X124312Y-62148D02*
X124553Y-61426D01*
X124312Y-62148D02*
X124457Y-62244D01*
X124601Y-62148D01*
X124764Y-62449D01*
X125035Y-62678D01*
X125345Y-62818D01*
X125668Y-62864D01*
X125964Y-62793D01*
X126192Y-62581D01*
X126290Y-62309D01*
X126252Y-62064D02*
X126290Y-62309D01*
X126124Y-61837D02*
X126252Y-62064D01*
X125951Y-61619D02*
X126124Y-61837D01*
X125710Y-61378D02*
X125951Y-61619D01*
X125481Y-61107D02*
X125710Y-61378D01*
X125469Y-60800D02*
X125481Y-61107D01*
X125469Y-60800D02*
X125764Y-60668D01*
X126095Y-60752D01*
X126397Y-61137D01*
X126481Y-61667D01*
X126578D01*
X122239Y-59790D02*
X123155Y-58875D01*
X123258Y-58785D01*
X123396Y-58731D01*
X123559Y-58809D01*
X123686Y-58923D01*
X123926Y-59242D01*
X124023Y-59597D01*
X123902Y-59952D02*
X124023Y-59597D01*
X123637Y-60271D02*
X123902Y-59952D01*
X123304Y-60522D02*
X123637Y-60271D01*
X122962Y-60620D02*
X123304Y-60522D01*
X122621Y-60555D02*
X122962Y-60620D01*
X122288Y-60319D02*
X122621Y-60555D01*
X122173Y-60175D02*
X122288Y-60319D01*
X122095Y-60030D02*
X122173Y-60175D01*
X122095Y-60030D02*
X122149Y-59892D01*
X122239Y-59790D01*
X121468Y-59693D02*
X121517Y-59597D01*
X121468Y-59693D02*
X122143Y-60367D01*
X122523Y-60704D01*
X123011Y-60897D01*
X123505Y-60836D01*
X123927Y-60560D01*
X124204Y-60157D01*
X124264Y-59645D01*
X124071Y-59176D02*
X124264Y-59645D01*
X123734Y-58779D02*
X124071Y-59176D01*
X123059Y-58105D02*
X123734Y-58779D01*
X123011Y-58153D02*
X123059Y-58105D01*
X123011Y-58201D02*
Y-58153D01*
Y-58201D02*
X123089Y-58460D01*
X122914Y-58683D02*
X123089Y-58460D01*
X122047Y-59501D02*
X122914Y-58683D01*
X121944Y-59633D02*
X122047Y-59501D01*
X121806Y-59693D02*
X121944Y-59633D01*
X121667Y-59699D02*
X121806Y-59693D01*
X121565Y-59597D02*
X121667Y-59699D01*
X121517Y-59597D02*
X121565D01*
X122480Y-58297D02*
X122866Y-57816D01*
X121758Y-56276D02*
X122866Y-57816D01*
X121709Y-56324D02*
X121758Y-56276D01*
X121709Y-56372D02*
Y-56324D01*
Y-56372D02*
X121739Y-56607D01*
X121517Y-56805D02*
X121739Y-56607D01*
X120504Y-57479D02*
X121517Y-56805D01*
X120402Y-57570D02*
X120504Y-57479D01*
X120263Y-57624D02*
X120402Y-57570D01*
X120022Y-57527D02*
X120263Y-57624D01*
X120022Y-57527D02*
Y-57479D01*
X119926Y-57527D02*
X120022Y-57479D01*
X119926Y-57527D02*
X121035Y-59116D01*
X121758Y-58923D01*
Y-58827D01*
X121131Y-58706D02*
X121758Y-58827D01*
X120649Y-58297D02*
X121131Y-58706D01*
X120504Y-57960D02*
X120649Y-58297D01*
X120504Y-57960D02*
X120697Y-57768D01*
X121227Y-57383D01*
X121324Y-57576D01*
X121426Y-57750D01*
X121420Y-57960D02*
X121426Y-57750D01*
X121227Y-58201D02*
X121420Y-57960D01*
X121227Y-58201D02*
X121324Y-58249D01*
X122095Y-57720D01*
X122047Y-57624D02*
X122095Y-57720D01*
X121721Y-57714D02*
X122047Y-57624D01*
X121468Y-57479D02*
X121721Y-57714D01*
X121324Y-57335D02*
X121468Y-57479D01*
X121324Y-57335D02*
X121758Y-57046D01*
X121878Y-56944D01*
X121999Y-56950D01*
X122239Y-57191D01*
X122456Y-57702D01*
X122384Y-58249D02*
X122456Y-57702D01*
X122384Y-58249D02*
X122480Y-58297D01*
X121179Y-56516D02*
X121613Y-56083D01*
X120745Y-54399D02*
X121613Y-56083D01*
X120167Y-54495D02*
X120745Y-54399D01*
X120167Y-54591D02*
Y-54495D01*
Y-54591D02*
X120625Y-54700D01*
X120938Y-55024D01*
X120944Y-55157D01*
X120842Y-55217D02*
X120944Y-55157D01*
X119588Y-55891D02*
X120842Y-55217D01*
X119299Y-55987D02*
X119588Y-55891D01*
X119185Y-55927D02*
X119299Y-55987D01*
X119107Y-55795D02*
X119185Y-55927D01*
X119058Y-55746D02*
X119107Y-55795D01*
X118962D02*
X119058Y-55746D01*
X118962Y-55795D02*
X119444Y-56709D01*
X119492Y-56661D01*
Y-56613D01*
X119438Y-56468D02*
X119492Y-56613D01*
X119438Y-56468D02*
X119492Y-56324D01*
X119595Y-56234D01*
X119733Y-56180D01*
X120986Y-55554D01*
X121107Y-55482D01*
X121227Y-55554D01*
X121282Y-56005D01*
X121083Y-56420D02*
X121282Y-56005D01*
X121083Y-56420D02*
X121179Y-56516D01*
X118817Y-54158D02*
X119926Y-53677D01*
X118558Y-54218D02*
X118817Y-54158D01*
X118335Y-54062D02*
X118558Y-54218D01*
X118335Y-54062D02*
Y-54014D01*
X118239Y-54062D02*
X118335Y-54014D01*
X118239Y-54062D02*
X118576Y-54880D01*
X118673Y-54832D01*
X118624Y-54784D02*
X118673Y-54832D01*
X118624Y-54784D02*
X118685Y-54561D01*
X118962Y-54447D01*
X120071Y-53966D01*
X120330Y-53905D01*
X120553Y-54062D01*
Y-54110D02*
Y-54062D01*
Y-54110D02*
X120649Y-54062D01*
X120311Y-53243D02*
X120649Y-54062D01*
X120215Y-53292D02*
X120311Y-53243D01*
X120197Y-53538D02*
X120215Y-53292D01*
X119926Y-53677D02*
X120197Y-53538D01*
X118143Y-51655D02*
X119588Y-51366D01*
X117902Y-53003D02*
X119588Y-51366D01*
X117902Y-53003D02*
X117950Y-53243D01*
X119637Y-52907D01*
X119974Y-52858D01*
X120064Y-52961D01*
X120119Y-53099D01*
X120215D01*
X120022Y-52329D02*
X120215Y-53099D01*
X119926Y-52329D02*
X120022D01*
X119926D02*
X119974Y-52377D01*
X119968Y-52545D02*
X119974Y-52377D01*
X119890Y-52636D02*
X119968Y-52545D01*
X119757Y-52682D02*
X119890Y-52636D01*
X119588Y-52714D02*
X119757Y-52682D01*
X118384Y-53003D02*
X119588Y-52714D01*
X118384Y-53003D02*
X119878Y-51559D01*
X119733Y-50837D02*
X119878Y-51559D01*
X119637Y-50885D02*
X119733Y-50837D01*
X119637Y-50933D02*
Y-50885D01*
X119558Y-51174D02*
X119637Y-50933D01*
X119299Y-51270D02*
X119558Y-51174D01*
X118094Y-51511D02*
X119299Y-51270D01*
X117968Y-51529D02*
X118094Y-51511D01*
X117805D02*
X117968Y-51529D01*
X117697Y-51451D02*
X117805Y-51511D01*
X117660Y-51318D02*
X117697Y-51451D01*
X117564Y-51318D02*
X117660D01*
X117564D02*
X117709Y-52088D01*
X117805D01*
Y-51992D01*
X117883Y-51751D01*
X118143Y-51655D01*
X134531Y-62918D02*
X134772Y-63496D01*
X132651Y-62870D02*
X134531Y-62918D01*
X132651Y-62966D02*
Y-62870D01*
Y-62966D02*
X132699D01*
X132928Y-63111D01*
X132940Y-63399D01*
X132892Y-64603D02*
X132940Y-63399D01*
X132892Y-64892D02*
Y-64603D01*
X132790Y-64976D02*
X132892Y-64892D01*
X132651Y-64988D02*
X132790Y-64976D01*
X132603Y-64988D02*
X132651D01*
X132603Y-65084D02*
Y-64988D01*
Y-65084D02*
X134531Y-65132D01*
X134820Y-64459D01*
X134724Y-64410D02*
X134820Y-64459D01*
X134241Y-64844D02*
X134724Y-64410D01*
X133615Y-64988D02*
X134241Y-64844D01*
X133428Y-64976D02*
X133615Y-64988D01*
X133277Y-64892D02*
X133428Y-64976D01*
X133235Y-64771D02*
X133277Y-64892D01*
X133229Y-64651D02*
X133235Y-64771D01*
X133229Y-64651D02*
X133277Y-63977D01*
X133470Y-64025D01*
X133675Y-64043D01*
X133808Y-64170D01*
X133904Y-64459D01*
X134000D01*
X134049Y-63448D01*
X133904D02*
X134049D01*
X133863Y-63657D02*
X133904Y-63448D01*
X133796Y-63785D02*
X133863Y-63657D01*
X133674Y-63840D02*
X133796Y-63785D01*
X133470Y-63833D02*
X133674Y-63840D01*
X133277Y-63833D02*
X133470D01*
X133277D02*
Y-63352D01*
X133290Y-63213D01*
X133374Y-63111D01*
X133525Y-63026D01*
X133711Y-63015D01*
X134241Y-63171D01*
X134627Y-63544D01*
X134772Y-63496D01*
X119685Y-50692D02*
Y-49874D01*
X119540D02*
X119685D01*
X119540Y-49970D02*
Y-49874D01*
X119438Y-50199D02*
X119540Y-49970D01*
X119155Y-50211D02*
X119438Y-50199D01*
X118384Y-50259D02*
X119155Y-50211D01*
X118052Y-50265D02*
X118384Y-50259D01*
X117757Y-50163D02*
X118052Y-50265D01*
X117564Y-49934D02*
X117757Y-50163D01*
X117516Y-49634D02*
X117564Y-49934D01*
X117516Y-49634D02*
X117558Y-49327D01*
X117709Y-49056D01*
X118022Y-48972D01*
X118335Y-48960D01*
X119107D01*
X119275Y-48941D01*
X119444Y-48960D01*
X119528Y-49062D01*
X119540Y-49200D01*
Y-49248D02*
Y-49200D01*
Y-49248D02*
X119637D01*
X119588Y-48286D02*
X119637Y-49248D01*
X119492Y-48286D02*
X119588D01*
X119492Y-48382D02*
Y-48286D01*
X119390Y-48593D02*
X119492Y-48382D01*
X119107Y-48623D02*
X119390Y-48593D01*
X118094Y-48671D02*
X119107Y-48623D01*
X117745Y-48725D02*
X118094Y-48671D01*
X117468Y-48960D02*
X117745Y-48725D01*
X117383Y-49273D02*
X117468Y-48960D01*
X117371Y-49585D02*
X117383Y-49273D01*
X117371Y-49585D02*
X117413Y-49940D01*
X117564Y-50259D01*
X117817Y-50428D01*
X118143Y-50452D01*
X119155Y-50404D01*
X119492Y-50452D01*
X119588Y-50644D01*
Y-50692D02*
Y-50644D01*
Y-50692D02*
X119685D01*
X131687Y-32787D02*
X131832Y-34231D01*
X131687Y-32787D02*
X133133Y-34616D01*
X133374D01*
X133229Y-32883D02*
X133374Y-34616D01*
X133211Y-32721D02*
X133229Y-32883D01*
X133211Y-32721D02*
X133229Y-32594D01*
X133470Y-32450D01*
Y-32354D01*
X132699Y-32450D02*
X133470Y-32354D01*
X132699Y-32546D02*
Y-32450D01*
Y-32546D02*
X132747Y-32498D01*
X133000Y-32625D01*
X133037Y-32931D01*
X133181Y-34183D01*
X131928Y-32498D02*
X133181Y-34183D01*
X131205Y-32594D02*
X131928Y-32498D01*
X131205Y-32691D02*
Y-32594D01*
Y-32691D02*
X131253D01*
X131420Y-32697D01*
X131506Y-32775D01*
X131538Y-32907D01*
X131542Y-33076D01*
X131639Y-34279D01*
X131675Y-34405D01*
X131639Y-34568D02*
X131675Y-34405D01*
X131578Y-34658D02*
X131639Y-34568D01*
X131446Y-34712D02*
X131578Y-34658D01*
X131398Y-34712D02*
X131446D01*
X131398Y-34808D02*
Y-34712D01*
Y-34808D02*
X132217Y-34712D01*
Y-34616D01*
X132121D02*
X132217D01*
X131904Y-34514D02*
X132121Y-34616D01*
X131832Y-34231D02*
X131904Y-34514D01*
X130675Y-32642D02*
X131012Y-33124D01*
X128843D02*
X130675Y-32642D01*
X128843Y-33172D02*
Y-33124D01*
Y-33172D02*
X128891D01*
X129059Y-33177D01*
X129150Y-33250D01*
X129196Y-33368D01*
X129229Y-33509D01*
X129566Y-34712D01*
X129584Y-34839D01*
X129566Y-35001D02*
X129584Y-34839D01*
X129506Y-35109D02*
X129566Y-35001D01*
X129373Y-35146D02*
X129506Y-35109D01*
X129373Y-35242D02*
Y-35146D01*
Y-35242D02*
X131253Y-34808D01*
X131349Y-34038D01*
X131253D02*
X131349D01*
X130904Y-34574D02*
X131253Y-34038D01*
X130337Y-34857D02*
X130904Y-34574D01*
X130150Y-34911D02*
X130337Y-34857D01*
X130000D02*
X130150Y-34911D01*
X129910Y-34760D02*
X130000Y-34857D01*
X129855Y-34664D02*
X129910Y-34760D01*
X129711Y-34038D02*
X129855Y-34664D01*
X129711Y-34038D02*
X129903Y-33990D01*
X130114Y-33942D01*
X130289Y-34038D01*
X130434Y-34279D01*
X130578Y-34231D01*
X130337Y-33316D02*
X130578Y-34231D01*
X130193Y-33316D02*
X130337D01*
X130175Y-33665D02*
X130193Y-33316D01*
X129903Y-33798D02*
X130175Y-33665D01*
X129663Y-33894D02*
X129903Y-33798D01*
X129566Y-33364D02*
X129663Y-33894D01*
X129566Y-33364D02*
Y-33124D01*
X129692Y-33015D01*
X129855Y-32979D01*
X130422Y-32973D01*
X130916Y-33220D01*
X131012Y-33124D01*
X127734Y-36012D02*
X127879Y-35964D01*
X127734Y-33798D02*
X127879Y-35964D01*
X127734Y-33798D02*
X128409Y-35146D01*
X128476Y-35272D01*
X128506Y-35434D01*
X128451Y-35549D02*
X128506Y-35434D01*
X128361Y-35627D02*
X128451Y-35549D01*
X128313Y-35627D02*
X128361D01*
X128313D02*
X128361Y-35723D01*
X129180Y-35338D01*
X129132Y-35242D02*
X129180Y-35338D01*
X129084Y-35242D02*
X129132D01*
X128837Y-35230D02*
X129084Y-35242D01*
X128699Y-35001D02*
X128837Y-35230D01*
X128168Y-33894D02*
X128699Y-35001D01*
X128072Y-33605D02*
X128168Y-33894D01*
X128072Y-33605D02*
X128216Y-33413D01*
X128265D01*
X128216Y-33316D02*
X128265Y-33413D01*
X127542Y-33653D02*
X128216Y-33316D01*
X127542Y-33653D02*
X127638Y-35434D01*
X126337Y-34231D02*
X127638Y-35434D01*
X125662Y-34568D02*
X126337Y-34231D01*
X125662Y-34568D02*
X125710Y-34616D01*
X125758D01*
X126005Y-34628D01*
X126144Y-34857D01*
X126674Y-35964D01*
X126770Y-36253D01*
X126716Y-36367D02*
X126770Y-36253D01*
X126626Y-36445D02*
X126716Y-36367D01*
X126578Y-36445D02*
X126626D01*
X126578D02*
X126626Y-36541D01*
X127349Y-36204D01*
Y-36108D01*
X127252D02*
X127349D01*
X127150Y-36162D02*
X127252Y-36108D01*
X127011D02*
X127150Y-36162D01*
X126921Y-36006D02*
X127011Y-36108D01*
X126867Y-35868D02*
X126921Y-36006D01*
X126144Y-34472D02*
X126867Y-35868D01*
X126144Y-34472D02*
X127734Y-36012D01*
X125469Y-34712D02*
X125951Y-35049D01*
X123878Y-35771D02*
X125469Y-34712D01*
X123878Y-35771D02*
X124071Y-36349D01*
X124168Y-36301D01*
X124210Y-35855D01*
X124505Y-35482D01*
X124619Y-35476D01*
X124698Y-35579D01*
X125517Y-36734D01*
X125662Y-37023D01*
X125608Y-37137D02*
X125662Y-37023D01*
X125517Y-37215D02*
X125608Y-37137D01*
X125469Y-37263D02*
X125517Y-37215D01*
X125469Y-37263D02*
X125517Y-37360D01*
X126337Y-36782D01*
X126288Y-36686D02*
X126337Y-36782D01*
X126240Y-36734D02*
X126288Y-36686D01*
X125951Y-36782D02*
X126240Y-36734D01*
X125758Y-36541D02*
X125951Y-36782D01*
X124987Y-35386D02*
X125758Y-36541D01*
X124933Y-35266D02*
X124987Y-35386D01*
X124933Y-35266D02*
X124987Y-35146D01*
X125421Y-35037D01*
X125855Y-35146D01*
X125951Y-35049D01*
X123155Y-37793D02*
X123541Y-37456D01*
X122722Y-37311D02*
X123155Y-37793D01*
X122655Y-37215D02*
X122722Y-37311D01*
X122625Y-37119D02*
X122655Y-37215D01*
X122625Y-37119D02*
X122746Y-36950D01*
X122866Y-36782D01*
X123054Y-36645D01*
X123252Y-36553D01*
X123449Y-36552D01*
X123637Y-36686D01*
X123782Y-36860D01*
Y-37071D02*
Y-36860D01*
X123679Y-37299D02*
X123782Y-37071D01*
X123541Y-37456D02*
X123679Y-37299D01*
X123878Y-37263D02*
X124746Y-37456D01*
X123878Y-37263D02*
X124047Y-36854D01*
X123927Y-36445D02*
X124047Y-36854D01*
X123667Y-36285D02*
X123927Y-36445D01*
X123408Y-36283D02*
X123667Y-36285D01*
X123167Y-36398D02*
X123408Y-36283D01*
X122963Y-36590D02*
X123167Y-36398D01*
X121999Y-37456D02*
X122963Y-36590D01*
X121999Y-37456D02*
X122047Y-37552D01*
X122095Y-37504D01*
X122372Y-37432D01*
X122577Y-37648D01*
X123396Y-38515D01*
X123511Y-38617D01*
X123589Y-38756D01*
X123577Y-38876D02*
X123589Y-38756D01*
X123493Y-38996D02*
X123577Y-38876D01*
X123444Y-38996D02*
X123493D01*
X123444D02*
X123541Y-39092D01*
X124216Y-38419D01*
X124168Y-38370D02*
X124216Y-38419D01*
X124119D02*
X124168Y-38370D01*
X123860Y-38455D02*
X124119Y-38419D01*
X123637Y-38274D02*
X123860Y-38455D01*
X123252Y-37889D02*
X123637Y-38274D01*
X123252Y-37889D02*
X123589Y-37552D01*
X124842Y-37841D01*
X125276Y-37456D01*
X125180Y-37408D02*
X125276Y-37456D01*
X124981Y-37486D02*
X125180Y-37408D01*
X124746Y-37456D02*
X124981Y-37486D01*
X121661Y-39911D02*
X122095Y-39333D01*
X121083Y-39044D02*
X121661Y-39911D01*
X121083Y-39044D02*
X122095Y-39333D01*
X120986Y-38707D02*
X122770Y-39189D01*
X120794Y-38948D02*
X120986Y-38707D01*
X120794Y-38948D02*
X121613Y-40248D01*
X121751Y-40446D01*
X121854Y-40681D01*
X121926Y-40873D01*
X121854Y-41066D02*
X121926Y-40873D01*
X121854Y-41114D02*
Y-41066D01*
Y-41114D02*
X121950Y-41162D01*
X122480Y-40440D01*
X122384Y-40392D02*
X122480Y-40440D01*
X122233Y-40512D02*
X122384Y-40392D01*
X122047Y-40488D02*
X122233Y-40512D01*
X121854Y-40296D02*
X122047Y-40488D01*
X121709Y-40055D02*
X121854Y-40296D01*
X121709Y-40055D02*
X122239Y-39381D01*
X122625Y-39477D01*
X122818Y-39574D01*
X122848Y-39700D01*
X122770Y-39862D02*
X122848Y-39700D01*
X122770Y-39862D02*
X122866Y-39911D01*
X123396Y-39189D01*
X123348Y-39141D02*
X123396Y-39189D01*
X123077Y-39255D02*
X123348Y-39141D01*
X122770Y-39189D02*
X123077Y-39255D01*
X120601Y-41210D02*
X120794Y-40873D01*
X119926D02*
X120601Y-41210D01*
X119781Y-40729D02*
X119926Y-40873D01*
X119781Y-40729D02*
X119836Y-40536D01*
X119926Y-40344D01*
X120034Y-40187D01*
X120215Y-40103D01*
X120649Y-40151D01*
X120890Y-40440D01*
X120794Y-40873D02*
X120890Y-40440D01*
X120697Y-41258D02*
X121083Y-41499D01*
X120697Y-41258D02*
X120938Y-40873D01*
X121065Y-40602D01*
X121083Y-40296D01*
X120992Y-40043D02*
X121083Y-40296D01*
X120794Y-39862D02*
X120992Y-40043D01*
X120504Y-39754D02*
X120794Y-39862D01*
X120215D02*
X120504Y-39754D01*
X119986Y-40037D02*
X120215Y-39862D01*
X119829Y-40248D02*
X119986Y-40037D01*
X119299Y-41210D02*
X119829Y-40248D01*
X119299Y-41210D02*
X119396Y-41258D01*
Y-41210D01*
X119619Y-41084D01*
X119878Y-41210D01*
X120938Y-41788D01*
X121179Y-41980D01*
Y-42221D02*
Y-41980D01*
Y-42269D02*
Y-42221D01*
Y-42269D02*
X121227Y-42317D01*
X121709Y-41451D01*
X121613Y-41403D02*
X121709Y-41451D01*
X121613D02*
Y-41403D01*
X121511Y-41583D02*
X121613Y-41451D01*
X121372Y-41643D02*
X121511Y-41583D01*
X121083Y-41499D02*
X121372Y-41643D01*
X118866Y-41884D02*
X119492D01*
X118239Y-43665D02*
X118866Y-41884D01*
X118239Y-43665D02*
X118287Y-43713D01*
X118335Y-43665D01*
X118522Y-43491D01*
X118817Y-43569D01*
X119926Y-44002D01*
X120089Y-44038D01*
X120215Y-44146D01*
Y-44387D02*
Y-44146D01*
Y-44387D02*
X120311Y-44435D01*
X120986Y-42654D01*
X120456Y-42125D02*
X120986Y-42654D01*
X120360Y-42221D02*
X120456Y-42125D01*
X120360Y-42221D02*
X120601Y-42811D01*
X120553Y-43472D02*
X120601Y-42811D01*
X120468Y-43629D02*
X120553Y-43472D01*
X120311Y-43713D02*
X120468Y-43629D01*
X120209Y-43731D02*
X120311Y-43713D01*
X120071D02*
X120209Y-43731D01*
X119492Y-43472D02*
X120071Y-43713D01*
X119492Y-43472D02*
X119540Y-43280D01*
X119631Y-43099D01*
X119829Y-42991D01*
X120119D01*
X120167Y-42895D01*
X119203Y-42558D02*
X120167Y-42895D01*
X119203Y-42654D02*
Y-42558D01*
Y-42654D02*
X119462Y-42865D01*
X119396Y-43184D02*
X119462Y-42865D01*
X119347Y-43424D02*
X119396Y-43184D01*
X118866Y-43232D02*
X119347Y-43424D01*
X118733Y-43178D02*
X118866Y-43232D01*
X118673Y-43088D02*
X118733Y-43178D01*
X118661Y-42919D02*
X118673Y-43088D01*
X118661Y-42919D02*
X118721Y-42750D01*
X119016Y-42263D01*
X119492Y-42028D01*
Y-41884D01*
X118191Y-45735D02*
X119444Y-46023D01*
X118070Y-45705D02*
X118191Y-45735D01*
X117950Y-45638D02*
X118070Y-45705D01*
X117895Y-45470D02*
X117950Y-45638D01*
X117895Y-45470D02*
X117950Y-45302D01*
X118064Y-44929D01*
X118287Y-44628D01*
X118673Y-44507D01*
X119058Y-44531D01*
X119464Y-44685D01*
X119739Y-44929D01*
X119878Y-45263D01*
X119878Y-45687D02*
X119878Y-45263D01*
X119805Y-45831D02*
X119878Y-45687D01*
X119733Y-45976D02*
X119805Y-45831D01*
X119444Y-46023D02*
X119733Y-45976D01*
X119685Y-46698D02*
X119781D01*
X119974Y-45735D01*
X120064Y-45254D01*
X119974Y-44772D02*
X120064Y-45254D01*
X119643Y-44375D02*
X119974Y-44772D01*
X119203Y-44195D02*
X119643Y-44375D01*
X118661Y-44188D02*
X119203Y-44195D01*
X118191Y-44435D02*
X118661Y-44188D01*
X117926Y-44832D02*
X118191Y-44435D01*
X117805Y-45302D02*
X117926Y-44832D01*
X117612Y-46264D02*
X117805Y-45302D01*
X117612Y-46264D02*
X117709D01*
Y-46216D01*
X117871Y-46036D01*
X118143Y-46072D01*
X119347Y-46312D01*
X119510Y-46360D01*
X119637Y-46409D01*
X119685Y-46649D01*
Y-46698D02*
Y-46649D01*
X148171Y-46023D02*
X148557Y-45976D01*
X149425Y-46360D01*
X149720Y-46499D01*
X149907Y-46745D01*
X150003D01*
X149907Y-45927D02*
X150003Y-46745D01*
X149810Y-45976D02*
X149907Y-45927D01*
X149774Y-46132D02*
X149810Y-45976D01*
X149666Y-46216D02*
X149774Y-46132D01*
X149521Y-46168D02*
X149666Y-46216D01*
X148750Y-45879D02*
X149521Y-46168D01*
X148750Y-45879D02*
X149377Y-45302D01*
X149521Y-45205D01*
X149636Y-45289D01*
X149714Y-45446D01*
X149810Y-45398D01*
X149617Y-44483D02*
X149810Y-45398D01*
X149521Y-44531D02*
X149617Y-44483D01*
X149449Y-44784D02*
X149521Y-44531D01*
X149232Y-44965D02*
X149449Y-44784D01*
X148509Y-45638D02*
X149232Y-44965D01*
X148075Y-45687D02*
X148509Y-45638D01*
X147949Y-45729D02*
X148075Y-45687D01*
X147786Y-45735D02*
X147949Y-45729D01*
X147641Y-45494D02*
X147786Y-45735D01*
X147641Y-45494D02*
Y-45446D01*
X147545D02*
X147641D01*
X147545D02*
X147690Y-46457D01*
X147786D01*
Y-46360D01*
X147792Y-46193D01*
X147870Y-46102D01*
X148003Y-46056D01*
X148171Y-46023D01*
X148895Y-44579D02*
X149473Y-44146D01*
X149425Y-44050D02*
X149473Y-44146D01*
X149280Y-44050D02*
X149425D01*
X149280D02*
X149316Y-43713D01*
X149280Y-43376D02*
X149316Y-43713D01*
X149039Y-42991D02*
X149280Y-43376D01*
X148653Y-42750D02*
X149039Y-42991D01*
X148262Y-42636D02*
X148653Y-42750D01*
X147834Y-42702D02*
X148262Y-42636D01*
X147422Y-42942D02*
X147834Y-42702D01*
X147141Y-43280D02*
X147422Y-42942D01*
X147014Y-43691D02*
X147141Y-43280D01*
X147014Y-43691D02*
X147063Y-44146D01*
X147250Y-44513D01*
X147545Y-44772D01*
X147352Y-44965D02*
X147545Y-44772D01*
X147352Y-44965D02*
X147449Y-45109D01*
X147930Y-44916D01*
X148099Y-44856D01*
X148268Y-44868D01*
X148358Y-44923D01*
X148413Y-45013D01*
Y-45061D02*
Y-45013D01*
Y-45061D02*
X148509Y-45013D01*
X148220Y-44146D02*
X148509Y-45013D01*
X148123Y-44195D02*
X148220Y-44146D01*
X148123Y-44195D02*
X148135Y-44441D01*
X147930Y-44579D02*
X148135Y-44441D01*
X147689Y-44613D02*
X147930Y-44579D01*
X147479Y-44525D02*
X147689Y-44613D01*
X147314Y-44356D02*
X147479Y-44525D01*
X147207Y-44146D02*
X147314Y-44356D01*
X147207Y-44146D02*
Y-43791D01*
X147352Y-43472D01*
X147623Y-43244D01*
X147930Y-43088D01*
X148275Y-43012D01*
X148623Y-43027D01*
X148927Y-43169D01*
X149135Y-43472D01*
X149093Y-43996D02*
X149135Y-43472D01*
X148798Y-44483D02*
X149093Y-43996D01*
X148798Y-44483D02*
X148895Y-44579D01*
X147159Y-41162D02*
X147352Y-41595D01*
X147159Y-41162D02*
X147738Y-40873D01*
X147930D01*
X148069Y-41018D01*
X148171Y-41162D01*
X148265Y-41384D01*
X148304Y-41601D01*
X148253Y-41791D02*
X148304Y-41601D01*
X148075Y-41932D02*
X148253Y-41791D01*
X147641Y-41932D02*
X148075D01*
X147479Y-41800D02*
X147641Y-41932D01*
X147352Y-41595D02*
X147479Y-41800D01*
X147015Y-42799D02*
X147449Y-41980D01*
X147780Y-42287D01*
X148220Y-42269D01*
X148452Y-42065D01*
X148527Y-41824D01*
X148484Y-41565D02*
X148527Y-41824D01*
X148364Y-41306D02*
X148484Y-41565D01*
X147786Y-40151D02*
X148364Y-41306D01*
X147690Y-40199D02*
X147786Y-40151D01*
X147690Y-40199D02*
X147738Y-40248D01*
X147720Y-40494D02*
X147738Y-40248D01*
X147449Y-40633D02*
X147720Y-40494D01*
X146388Y-41210D02*
X147449Y-40633D01*
X146099Y-41306D02*
X146388Y-41210D01*
X145984Y-41252D02*
X146099Y-41306D01*
X145906Y-41162D02*
X145984Y-41252D01*
X145858Y-41114D02*
X145906Y-41162D01*
X145810D02*
X145858Y-41114D01*
X145810Y-41162D02*
X146244Y-42028D01*
X146340Y-41980D01*
X146292Y-41884D02*
X146340Y-41980D01*
X146292Y-41884D02*
X146304Y-41637D01*
X146533Y-41499D01*
X147015Y-41258D01*
X147256Y-41643D01*
X146629Y-42799D02*
X147256Y-41643D01*
X146629Y-42799D02*
X146870Y-43280D01*
X146966Y-43232D01*
X146936Y-42997D02*
X146966Y-43232D01*
X146936Y-42997D02*
X147015Y-42799D01*
Y-40103D02*
X147352Y-39574D01*
X146244Y-38081D02*
X147352Y-39574D01*
X146195Y-38130D02*
X146244Y-38081D01*
X146195Y-38178D02*
Y-38130D01*
Y-38178D02*
X146225Y-38431D01*
X146002Y-38611D02*
X146225Y-38431D01*
X145038Y-39333D02*
X146002Y-38611D01*
X144912Y-39423D02*
X145038Y-39333D01*
X144749Y-39477D02*
X144912Y-39423D01*
X144556Y-39381D02*
X144749Y-39477D01*
X144508Y-39333D02*
X144556Y-39381D01*
X144460D02*
X144508Y-39333D01*
X144460Y-39381D02*
X145569Y-40921D01*
X146340Y-40777D01*
X146292Y-40633D02*
X146340Y-40777D01*
X145659Y-40530D02*
X146292Y-40633D01*
X145135Y-40103D02*
X145659Y-40530D01*
X145051Y-39977D02*
X145135Y-40103D01*
X145038Y-39814D02*
X145051Y-39977D01*
X145038Y-39814D02*
X145093Y-39700D01*
X145183Y-39622D01*
X145713Y-39237D01*
X145858Y-39381D01*
X145960Y-39574D01*
X145954Y-39766D02*
X145960Y-39574D01*
X145761Y-40007D02*
X145954Y-39766D01*
X145761Y-40007D02*
X145858Y-40103D01*
X146629Y-39526D01*
X146581Y-39429D02*
X146629Y-39526D01*
X146256Y-39525D02*
X146581Y-39429D01*
X146002Y-39333D02*
X146256Y-39525D01*
X145858Y-39141D02*
X146002Y-39333D01*
X145858Y-39141D02*
X146244Y-38852D01*
X146533Y-38756D01*
X146774Y-38996D01*
X146991Y-39507D01*
X146918Y-40055D02*
X146991Y-39507D01*
X146918Y-40055D02*
X147015Y-40103D01*
X143544Y-37841D02*
X144556Y-36782D01*
X144074Y-39044D02*
X144556Y-36782D01*
X144074Y-39044D02*
X144267Y-39237D01*
X145472Y-38034D01*
X145575Y-37919D01*
X145713Y-37841D01*
X145834Y-37829D01*
X145954Y-37889D01*
Y-37937D02*
Y-37889D01*
Y-37937D02*
X146051Y-37889D01*
X145472Y-37311D02*
X146051Y-37889D01*
X145376Y-37360D02*
X145472Y-37311D01*
X145376Y-37360D02*
X145424Y-37408D01*
X145502Y-37685D01*
X145328Y-37889D02*
X145502Y-37685D01*
X144460Y-38804D02*
X145328Y-37889D01*
X144460Y-38804D02*
X144942Y-36782D01*
X144412Y-36253D02*
X144942Y-36782D01*
X144364Y-36349D02*
X144412Y-36253D01*
X144364Y-36397D02*
Y-36349D01*
Y-36397D02*
X144442Y-36632D01*
X144267Y-36830D02*
X144442Y-36632D01*
X143400Y-37696D02*
X144267Y-36830D01*
X143297Y-37811D02*
X143400Y-37696D01*
X143159Y-37889D02*
X143297Y-37811D01*
X143038Y-37895D02*
X143159Y-37889D01*
X142918Y-37793D02*
X143038Y-37895D01*
X142821Y-37841D02*
X142918Y-37793D01*
X142821Y-37841D02*
X143400Y-38419D01*
X143496Y-38370D01*
X143448Y-38322D02*
X143496Y-38370D01*
X143369Y-38045D02*
X143448Y-38322D01*
X143369Y-38045D02*
X143544Y-37841D01*
X143785Y-36493D02*
X143930Y-35916D01*
X142387Y-34808D02*
X143930Y-35916D01*
X142339Y-34857D02*
X142387Y-34808D01*
X142339Y-34857D02*
X142387Y-34905D01*
X142490Y-35145D01*
X142339Y-35386D02*
X142490Y-35145D01*
X141665Y-36349D02*
X142339Y-35386D01*
X141423Y-36590D02*
X141665Y-36349D01*
X141303Y-36602D02*
X141423Y-36590D01*
X141182Y-36541D02*
X141303Y-36602D01*
X141086Y-36590D02*
X141182Y-36541D01*
X141086Y-36590D02*
X142676Y-37745D01*
X143303Y-37311D01*
X143255Y-37215D02*
X143303Y-37311D01*
X142610Y-37323D02*
X143255Y-37215D01*
X142002Y-37071D02*
X142610Y-37323D01*
X141869Y-36969D02*
X142002Y-37071D01*
X141809Y-36830D02*
X141869Y-36969D01*
X141809Y-36830D02*
X141905Y-36590D01*
X142243Y-36060D01*
X142436Y-36204D01*
X142604Y-36313D01*
X142629Y-36493D01*
X142532Y-36782D02*
X142629Y-36493D01*
X142532Y-36782D02*
X142629Y-36830D01*
X143207Y-36060D01*
X143110Y-36012D02*
X143207Y-36060D01*
X142857Y-36198D02*
X143110Y-36012D01*
X142532Y-36060D02*
X142857Y-36198D01*
X142339Y-35916D02*
X142532Y-36060D01*
X142339Y-35916D02*
X142629Y-35530D01*
X142870Y-35386D01*
X143032Y-35422D01*
X143159Y-35530D01*
X143532Y-35940D01*
X143689Y-36493D01*
X143785D01*
X140989Y-34616D02*
Y-34038D01*
X139351Y-33316D02*
X140989Y-34038D01*
X139303Y-33413D02*
X139351Y-33316D01*
X139303Y-33413D02*
X139351D01*
X139502Y-33635D01*
X139399Y-33894D02*
X139502Y-33635D01*
X138917Y-35001D02*
X139399Y-33894D01*
X138772Y-35290D02*
X138917Y-35001D01*
X138483Y-35290D02*
X138772D01*
X138483D02*
Y-35242D01*
X138435Y-35338D02*
X138483Y-35242D01*
X138435Y-35338D02*
X139303Y-35723D01*
X139351Y-35627D01*
X139303D02*
X139351D01*
X139110Y-35404D02*
X139303Y-35627D01*
X139110Y-35404D02*
X139206Y-35146D01*
X139447Y-34568D01*
X139640Y-34664D01*
X139905Y-34857D01*
X139881Y-35194D02*
X139905Y-34857D01*
X139881Y-35194D02*
X139977Y-35242D01*
X140363Y-34375D01*
X140267Y-34327D02*
X140363Y-34375D01*
X140014Y-34586D02*
X140267Y-34327D01*
X139688Y-34520D02*
X140014Y-34586D01*
X139495Y-34424D02*
X139688Y-34520D01*
X139495Y-34424D02*
X139688Y-33990D01*
X139767Y-33870D01*
X139881Y-33750D01*
X140032Y-33780D01*
X140218Y-33846D01*
X140622Y-34141D01*
X140845Y-34616D01*
X140989D01*
X136989Y-33798D02*
X137134Y-33413D01*
X137350Y-33142D01*
X137640Y-33006D01*
X138001Y-33028D01*
X138300Y-33174D01*
X138477Y-33443D01*
X138537Y-33792D01*
X138483Y-34183D02*
X138537Y-33792D01*
X138339Y-34526D02*
X138483Y-34183D01*
X138122Y-34802D02*
X138339Y-34526D01*
X137832Y-34961D02*
X138122Y-34802D01*
X137471Y-34953D02*
X137832Y-34961D01*
X137152Y-34779D02*
X137471Y-34953D01*
X136977Y-34502D02*
X137152Y-34779D01*
X136929Y-34161D02*
X136977Y-34502D01*
X136929Y-34161D02*
X136989Y-33798D01*
X138869Y-34279D02*
X138890Y-33817D01*
X138748Y-33395D02*
X138890Y-33817D01*
X138462Y-33054D02*
X138748Y-33395D01*
X138049Y-32835D02*
X138462Y-33054D01*
X137559Y-32815D02*
X138049Y-32835D01*
X137127Y-32961D02*
X137559Y-32815D01*
X136795Y-33261D02*
X137127Y-32961D01*
X136603Y-33701D02*
X136795Y-33261D01*
X136562Y-34163D02*
X136603Y-33701D01*
X136562Y-34163D02*
X136706Y-34580D01*
X137003Y-34906D01*
X137423Y-35097D01*
X137906Y-35146D01*
X138327Y-35013D01*
X138656Y-34718D01*
X138869Y-34279D01*
X135591Y-32450D02*
X135736Y-33028D01*
X133711Y-32354D02*
X135591Y-32450D01*
X133470Y-32931D02*
X133711Y-32354D01*
X133470Y-32931D02*
X133567Y-32979D01*
X133898Y-32630D01*
X134338Y-32498D01*
X134464Y-32576D01*
X134483Y-32691D01*
X134386Y-34135D02*
X134483Y-32691D01*
X134380Y-34261D02*
X134386Y-34135D01*
X134338Y-34424D02*
X134380Y-34261D01*
X134235Y-34508D02*
X134338Y-34424D01*
X134097Y-34520D02*
X134235Y-34508D01*
X134000Y-34520D02*
X134097D01*
X134000Y-34616D02*
Y-34520D01*
Y-34616D02*
X135013Y-34664D01*
X135061Y-34568D01*
X134965D02*
X135061D01*
X134724Y-34424D02*
X134965Y-34568D01*
X134724Y-34424D02*
Y-34135D01*
X134820Y-32739D01*
X134832Y-32588D01*
X134916Y-32546D01*
X135350Y-32703D01*
X135639Y-33076D01*
X135736Y-33028D01*
X130205Y-45223D02*
X130289Y-45398D01*
X130048Y-44868D02*
X130205Y-45223D01*
X129982Y-45049D02*
X130048Y-44868D01*
X129807Y-45446D02*
X129982Y-45049D01*
X129783Y-45416D02*
X129807Y-45446D01*
X129759Y-45205D02*
X129783Y-45416D01*
X129711Y-44952D02*
X129759Y-45205D01*
X129518Y-44772D02*
X129711Y-44952D01*
X129518Y-44772D02*
X129542Y-44796D01*
X129566Y-45109D01*
X129524Y-45259D02*
X129566Y-45109D01*
X129518Y-45590D02*
X129524Y-45259D01*
X129435Y-45558D02*
X129518Y-45590D01*
X129253Y-45440D02*
X129435Y-45558D01*
X129070Y-45313D02*
X129253Y-45440D01*
X128988Y-45253D02*
X129070Y-45313D01*
X128988Y-45253D02*
X129036Y-45398D01*
X129229Y-45831D01*
X129168Y-45843D02*
X129229Y-45831D01*
X129036Y-45783D02*
X129168Y-45843D01*
X128692Y-45674D02*
X129036Y-45783D01*
X128457D02*
X128692Y-45674D01*
X128457Y-45783D02*
X128524Y-45759D01*
X128699Y-45879D01*
X128831Y-46030D01*
X129036Y-46216D01*
X128903Y-46258D02*
X129036Y-46216D01*
X128554Y-46409D02*
X128903Y-46258D01*
X128554Y-46409D02*
X128624Y-46432D01*
X128789Y-46487D01*
X128981Y-46551D01*
X129132Y-46601D01*
X128988Y-46649D02*
X129132Y-46601D01*
X128699Y-46745D02*
X128988Y-46649D01*
X128554Y-47131D02*
X128699Y-46745D01*
X128554Y-47131D02*
X128662Y-47016D01*
X128988Y-46938D01*
X129096Y-46974D01*
X129277Y-46938D01*
X129229Y-47100D02*
X129277Y-46938D01*
X129036Y-47516D02*
X129229Y-47100D01*
X129036Y-47516D02*
X129106Y-47477D01*
X129271Y-47383D01*
X129463Y-47272D01*
X129614Y-47179D01*
X129608Y-47239D02*
X129614Y-47179D01*
X129566Y-47371D02*
X129608Y-47239D01*
X129506Y-47611D02*
X129566Y-47371D01*
X129506Y-47611D02*
X129566Y-47892D01*
X129614Y-47997D01*
X129638Y-47859D01*
X129807Y-47612D01*
X129897Y-47413D01*
X129952Y-47323D01*
X130018Y-47480D01*
X130193Y-47853D01*
X130247Y-47636D01*
X130337Y-47275D01*
X130346Y-47266D01*
X130419Y-47356D01*
X130482Y-47564D01*
X130657Y-47798D01*
X130868Y-47853D01*
X130777Y-47750D02*
X130868Y-47853D01*
X130723Y-47467D02*
X130777Y-47750D01*
X130717Y-47245D02*
X130723Y-47467D01*
X130675Y-47131D02*
X130717Y-47245D01*
X130675Y-47131D02*
X130789Y-47155D01*
X131157Y-47323D01*
X131103Y-47227D02*
X131157Y-47323D01*
X130868Y-46842D02*
X131103Y-47227D01*
X130868Y-46842D02*
X130871Y-46802D01*
X130898Y-46775D01*
X130969Y-46795D01*
X131109Y-46890D01*
X131428Y-46980D01*
X131639Y-46890D01*
X131524Y-46884D02*
X131639Y-46890D01*
X131301Y-46698D02*
X131524Y-46884D01*
X131060Y-46505D02*
X131301Y-46698D01*
X131060Y-46505D02*
X131187Y-46415D01*
X131494Y-46216D01*
X131331Y-46174D02*
X131494Y-46216D01*
X130916Y-46023D02*
X131331Y-46174D01*
X130916Y-46023D02*
X130952Y-46000D01*
X131205Y-45976D01*
X131434Y-45873D01*
X131590Y-45590D01*
X131500Y-45681D02*
X131590Y-45590D01*
X131157Y-45735D02*
X131500Y-45681D01*
X130994Y-45717D02*
X131157Y-45735D01*
X130868D02*
X130994Y-45717D01*
X130868Y-45735D02*
X130879Y-45663D01*
X130964Y-45302D01*
X130831Y-45362D02*
X130964Y-45302D01*
X130482Y-45494D02*
X130831Y-45362D01*
X130482Y-45494D02*
X130506Y-45488D01*
X130675Y-45302D01*
X130753Y-45067D01*
X130723Y-44724D02*
X130753Y-45067D01*
X130723Y-44724D02*
X130726Y-44716D01*
X130711Y-44808D02*
X130726Y-44716D01*
X130641Y-44954D02*
X130711Y-44808D01*
X130482Y-45109D02*
X130641Y-44954D01*
X130385Y-45181D02*
X130482Y-45109D01*
X130289Y-45398D02*
X130385Y-45181D01*
X140459Y-45013D02*
Y-44195D01*
X139254D02*
X140459D01*
X133760Y-50259D02*
X139254Y-44195D01*
X133760Y-50259D02*
X134531Y-50404D01*
X132458Y-53436D02*
X134531Y-50404D01*
X132458Y-53436D02*
X133277Y-53484D01*
X130482Y-57335D02*
X133277Y-53484D01*
X130482Y-57335D02*
X135157Y-52570D01*
X134241Y-52522D02*
X135157Y-52570D01*
X134241Y-52522D02*
X137278Y-49104D01*
X136603Y-49056D02*
X137278Y-49104D01*
X136603Y-49056D02*
X140459Y-45013D01*
X138049Y-51559D02*
Y-51511D01*
Y-51559D02*
X138435Y-51896D01*
X138531Y-51751D01*
X138049Y-51511D02*
X138531Y-51751D01*
X138098Y-51463D02*
X138339Y-51559D01*
Y-51607D02*
Y-51559D01*
X138098Y-51463D02*
X138339Y-51607D01*
X137905Y-51655D02*
X138146Y-52136D01*
X138290Y-52040D01*
X137905Y-51655D02*
X138290Y-52040D01*
X137953Y-51607D02*
X138001D01*
X138194Y-51799D01*
X138146Y-51848D02*
X138194Y-51799D01*
X137953Y-51607D02*
X138146Y-51848D01*
X138098Y-51366D02*
X138580Y-51559D01*
X138628Y-51415D01*
X138098Y-51366D02*
X138628Y-51415D01*
X138098Y-51270D02*
X138387D01*
Y-51318D02*
Y-51270D01*
X138098D02*
X138387Y-51318D01*
X138098Y-51222D02*
Y-51174D01*
Y-51222D02*
X138628D01*
X138580Y-51029D02*
X138628Y-51222D01*
X138098Y-51174D02*
X138580Y-51029D01*
X137808Y-51703D02*
X137953Y-51944D01*
X137905Y-51992D02*
X137953Y-51944D01*
X137808Y-51703D02*
X137905Y-51992D01*
X137374Y-51655D02*
X137423Y-51703D01*
X137037Y-52040D02*
X137374Y-51655D01*
X137037Y-52040D02*
X137182Y-52185D01*
X137423Y-51703D01*
X137374Y-51992D02*
X137471Y-51703D01*
X137326Y-51944D02*
X137374Y-51992D01*
X137326Y-51944D02*
X137471Y-51703D01*
X136796Y-51799D02*
X137278Y-51559D01*
X136796Y-51799D02*
X136893Y-51944D01*
X137278Y-51559D01*
X137134Y-51848D02*
X137326Y-51607D01*
X137085Y-51799D02*
X137134Y-51848D01*
X137085Y-51799D02*
X137326Y-51607D01*
X137374Y-52233D02*
X137567Y-51751D01*
X137374Y-52233D02*
X137519Y-52281D01*
X137567Y-51751D01*
X137616D02*
X137664D01*
Y-52040D02*
Y-51751D01*
X137616Y-52040D02*
X137664D01*
X137616D02*
Y-51751D01*
X137712D02*
X137760D01*
X137712Y-52281D02*
Y-51751D01*
Y-52281D02*
X137905Y-52233D01*
X137760Y-51751D02*
X137905Y-52233D01*
X136989Y-51607D02*
X137230Y-51463D01*
X136941Y-51559D02*
X136989Y-51607D01*
X136941Y-51559D02*
X137230Y-51463D01*
Y-51078D02*
Y-51029D01*
X136893Y-50692D02*
X137230Y-51029D01*
X136748Y-50837D02*
X136893Y-50692D01*
X136748Y-50837D02*
X137230Y-51078D01*
X137182Y-51126D02*
X137230D01*
X136941Y-51029D02*
X137182Y-51126D01*
X136941Y-51029D02*
X136989Y-50981D01*
X137230Y-51126D01*
X137374Y-50933D02*
X137423Y-50885D01*
X137182Y-50452D02*
X137423Y-50885D01*
X137037Y-50548D02*
X137182Y-50452D01*
X137037Y-50548D02*
X137374Y-50933D01*
X137085Y-50789D02*
X137326Y-50981D01*
X137085Y-50789D02*
X137134Y-50740D01*
X137326Y-50981D01*
X136700Y-51029D02*
X137182Y-51222D01*
X136652Y-51174D02*
X136700Y-51029D01*
X136652Y-51174D02*
X137182Y-51222D01*
Y-51318D02*
Y-51270D01*
X136893Y-51318D02*
X137182D01*
X136893D02*
Y-51270D01*
X137182D01*
X136652Y-51415D02*
X137182Y-51366D01*
X136652Y-51415D02*
X136700Y-51559D01*
X137182Y-51366D01*
X137471Y-50885D02*
Y-50837D01*
X137326Y-50644D02*
X137471Y-50885D01*
X137326Y-50644D02*
X137374Y-50596D01*
X137471Y-50837D01*
X137857Y-50885D02*
X137905D01*
X138242Y-50500D01*
X138098Y-50404D02*
X138242Y-50500D01*
X137857Y-50885D02*
X138098Y-50404D01*
X137808Y-50837D02*
X137905Y-50596D01*
X137953D01*
X137808Y-50837D02*
X137953Y-50596D01*
X138001Y-51029D02*
X138049Y-51078D01*
X138483Y-50837D01*
X138387Y-50644D02*
X138483Y-50837D01*
X138001Y-51029D02*
X138387Y-50644D01*
X137953Y-50981D02*
X138146Y-50740D01*
X138194Y-50789D01*
X137953Y-50981D02*
X138194Y-50789D01*
X137712Y-50837D02*
X137905Y-50356D01*
X137760Y-50307D02*
X137905Y-50356D01*
X137712Y-50837D02*
X137760Y-50307D01*
X137616Y-50837D02*
X137664D01*
X137616D02*
Y-50548D01*
X137664D01*
Y-50837D02*
Y-50548D01*
X137519Y-50307D02*
X137567Y-50837D01*
X137374Y-50356D02*
X137519Y-50307D01*
X137374Y-50356D02*
X137567Y-50837D01*
X138049Y-51126D02*
X138098D01*
X138049D02*
X138290Y-50981D01*
X138339Y-51029D01*
X138098Y-51126D02*
X138339Y-51029D01*
X137567Y-51318D02*
X137598Y-51378D01*
X137664Y-51366D01*
X137724Y-51336D01*
X137712Y-51270D02*
X137724Y-51336D01*
X137616Y-51222D02*
X137712Y-51270D01*
X137555Y-51252D02*
X137616Y-51222D01*
X137555Y-51252D02*
X137567Y-51318D01*
X137471Y-51415D02*
X137567Y-51463D01*
X137326Y-51559D02*
X137471Y-51415D01*
X137326Y-51559D02*
X137519Y-51655D01*
X137567Y-51463D01*
X137760D02*
X137808Y-51366D01*
X137760Y-51463D02*
X137905Y-51607D01*
X138001Y-51415D01*
X137808Y-51366D02*
X138001Y-51415D01*
X137471Y-51222D02*
X137519Y-51174D01*
X137374Y-50981D02*
X137519Y-51174D01*
X137278D02*
X137374Y-50981D01*
X137278Y-51174D02*
X137471Y-51222D01*
X137712Y-51126D02*
X137808Y-51174D01*
X137953Y-51029D01*
X137760Y-50933D02*
X137953Y-51029D01*
X137712Y-51126D02*
X137760Y-50933D01*
X137471Y-51366D02*
Y-51270D01*
X137278Y-51463D02*
X137471Y-51366D01*
X137230Y-51270D02*
X137278Y-51463D01*
X137230Y-51270D02*
X137471D01*
X137808Y-51318D02*
Y-51222D01*
Y-51318D02*
X138001D01*
Y-51126D01*
X137808Y-51222D02*
X138001Y-51126D01*
X137616Y-51463D02*
X137712D01*
X137616Y-51655D02*
Y-51463D01*
Y-51655D02*
X137808Y-51607D01*
X137712Y-51463D02*
X137808Y-51607D01*
X137567Y-51126D02*
X137664Y-51078D01*
Y-50885D01*
X137471Y-50933D02*
X137664Y-50885D01*
X137471Y-50933D02*
X137567Y-51126D01*
X138724Y-51463D02*
Y-51415D01*
X139447Y-51511D01*
Y-51559D02*
Y-51511D01*
X138724Y-51463D02*
X139447Y-51559D01*
X138724Y-51174D02*
Y-51126D01*
X139399Y-51029D01*
X139447Y-51078D01*
X138724Y-51174D02*
X139447Y-51078D01*
X138724Y-51366D02*
Y-51222D01*
Y-51366D02*
X139447Y-51415D01*
Y-51174D01*
X138724Y-51222D02*
X139447Y-51174D01*
X133663Y-45350D02*
X133760Y-45446D01*
X133808Y-45350D01*
X133760Y-45253D02*
X133808Y-45350D01*
X133663D02*
X133760Y-45253D01*
X133663Y-46409D02*
X133711Y-46505D01*
X133808Y-46409D01*
X133711Y-46360D02*
X133808Y-46409D01*
X133663D02*
X133711Y-46360D01*
X134254Y-46396D02*
X134386Y-46457D01*
X134193Y-46264D02*
X134254Y-46396D01*
X134193Y-46264D02*
X134254Y-46156D01*
X134386Y-46120D01*
X134531Y-46264D01*
X134494Y-46396D02*
X134531Y-46264D01*
X134386Y-46457D02*
X134494Y-46396D01*
X134627Y-46842D02*
X134724Y-46890D01*
X134820Y-46842D01*
X134724Y-46745D02*
X134820Y-46842D01*
X134627D02*
X134724Y-46745D01*
X129421Y-54254D02*
X129470D01*
X129421Y-54351D02*
Y-54254D01*
Y-54351D02*
X129663D01*
Y-54254D01*
X129566D02*
X129663D01*
X129566D02*
Y-54206D01*
X129470D02*
X129566D01*
X129470Y-54254D02*
Y-54206D01*
X129759Y-54351D02*
X130434D01*
X129759D02*
Y-54254D01*
X129903D01*
Y-54158D01*
X130000D01*
Y-53869D01*
X130048Y-53677D01*
X130144Y-53869D01*
Y-54158D02*
Y-53869D01*
Y-54158D02*
X130241D01*
Y-54254D02*
Y-54158D01*
Y-54254D02*
X130434D01*
Y-54351D02*
Y-54254D01*
X130000Y-53051D02*
X130048Y-53003D01*
X130000Y-53051D02*
X130048Y-53099D01*
X130144Y-53051D01*
X130048Y-53003D02*
X130144Y-53051D01*
X130344Y-65457D02*
X133808Y-65806D01*
X127121Y-64455D02*
X130344Y-65457D01*
X124206Y-62869D02*
X127121Y-64455D01*
X121667Y-60770D02*
X124206Y-62869D01*
X119574Y-58227D02*
X121667Y-60770D01*
X117994Y-55308D02*
X119574Y-58227D01*
X116996Y-52084D02*
X117994Y-55308D01*
X116648Y-48623D02*
X116996Y-52084D01*
X116648Y-48623D02*
X116996Y-45178D01*
X117994Y-41965D01*
X119574Y-39055D01*
X121667Y-36517D01*
X124206Y-34422D01*
X127121Y-32838D01*
X130344Y-31837D01*
X133808Y-31487D01*
X137271Y-31837D01*
X140495Y-32838D01*
X143410Y-34422D01*
X145948Y-36517D01*
X148041Y-39055D01*
X149621Y-41965D01*
X150619Y-45178D01*
X150967Y-48623D01*
X150619Y-52084D02*
X150967Y-48623D01*
X149621Y-55308D02*
X150619Y-52084D01*
X148041Y-58227D02*
X149621Y-55308D01*
X145948Y-60770D02*
X148041Y-58227D01*
X143410Y-62869D02*
X145948Y-60770D01*
X140495Y-64455D02*
X143410Y-62869D01*
X137271Y-65457D02*
X140495Y-64455D01*
X133808Y-65806D02*
X137271Y-65457D01*
D17*
X135495Y-55969D02*
X135736Y-56035D01*
X135254Y-55939D02*
X135495Y-55969D01*
X135447Y-55169D02*
X135736Y-55313D01*
X136266Y-55650D02*
X136314Y-55939D01*
X136121Y-55506D02*
X136218Y-55843D01*
X135977Y-55554D02*
X136121Y-55843D01*
X135784Y-56757D02*
X136025D01*
X135832Y-56035D02*
X136025Y-56132D01*
X135832Y-55891D02*
X136073Y-56035D01*
X135784Y-56565D02*
X135977D01*
X136844Y-56853D02*
X137182D01*
X133181Y-57527D02*
X136507Y-57672D01*
X137182Y-56853D01*
Y-57239D02*
Y-56853D01*
X136507Y-58105D02*
X137182Y-57239D01*
X133181Y-57912D02*
X136507Y-58105D01*
X133181Y-57912D02*
Y-57527D01*
X133711Y-57191D01*
X136266Y-56324D02*
X136748D01*
X136266Y-56565D02*
X136700D01*
X136314Y-56276D02*
X136748D01*
X136290Y-56318D02*
X136314Y-56276D01*
X136266Y-56468D02*
X136290Y-56318D01*
X136266Y-56468D02*
X136314Y-56613D01*
X136748Y-56661D01*
X136844Y-56709D02*
X136893Y-56661D01*
X136736Y-56643D02*
X136844Y-56709D01*
X136700Y-56468D02*
X136736Y-56643D01*
X136700Y-56468D02*
X136736Y-56294D01*
X136844Y-56228D01*
Y-56324D02*
X136959Y-56360D01*
X137037Y-56468D01*
X136983Y-56559D02*
X137037Y-56468D01*
X136893Y-56613D02*
X136983Y-56559D01*
X136844Y-56228D02*
X136893Y-56324D01*
X135784Y-56516D02*
X136218D01*
X135977Y-56420D02*
X136170D01*
X135977Y-56516D02*
X136170D01*
X135977Y-56565D02*
X136170D01*
X135977D02*
X136170D01*
X135977Y-56324D02*
X136170D01*
X135977D02*
X136170D01*
X136410Y-56853D02*
X136700D01*
X136410D02*
X136700D01*
Y-57142D02*
X136844Y-56998D01*
X136700Y-57142D02*
X136844Y-56998D01*
Y-57046D02*
Y-56709D01*
Y-57046D02*
Y-56709D01*
X135447Y-57239D02*
X135929D01*
X135447D02*
X135929D01*
X135543Y-57191D02*
X135880Y-57094D01*
X135543Y-57191D02*
X135880Y-57094D01*
X135495D02*
X135832Y-57046D01*
X135495Y-57094D02*
X135832Y-57046D01*
X135447Y-57191D02*
X135929D01*
X135447D02*
X135929D01*
X135447Y-56998D02*
X135832Y-56950D01*
X135447Y-56998D02*
X135832Y-56950D01*
X135254Y-56468D02*
X135543D01*
X135254D02*
X135543D01*
X135350Y-56324D02*
X135543Y-56372D01*
X135350Y-56324D02*
X135543Y-56372D01*
X135350Y-56180D02*
X135543Y-56228D01*
X135350Y-56180D02*
X135543Y-56228D01*
X135447Y-55265D02*
X135929Y-55602D01*
X135705Y-55379D02*
X135929Y-55602D01*
X135447Y-55265D02*
X135705Y-55379D01*
X135254Y-55987D02*
X135784Y-56083D01*
X135254Y-55987D02*
X135784Y-56083D01*
X135302Y-56902D02*
X135784Y-56805D01*
X135302Y-56902D02*
X135784Y-56805D01*
X136266Y-57239D02*
X136410Y-55939D01*
X136356Y-55746D02*
X136410Y-55939D01*
X136266Y-55554D02*
X136356Y-55746D01*
X136013Y-55295D02*
X136266Y-55554D01*
X135832Y-55217D02*
X136013Y-55295D01*
X135684Y-55324D02*
X135832Y-55217D01*
X135549Y-55602D02*
X135684Y-55324D01*
X135459Y-55989D02*
X135549Y-55602D01*
X135447Y-56420D02*
X135459Y-55989D01*
X135447Y-56420D02*
X135543Y-57052D01*
X135784Y-57287D01*
X136266Y-57239D01*
Y-56420D02*
X136362Y-55987D01*
X136278Y-56168D02*
X136362Y-55987D01*
X136266Y-56420D02*
X136278Y-56168D01*
X134386Y-55409D02*
X134916D01*
X134386D02*
X134916D01*
X134386Y-55506D02*
X134868D01*
X134386D02*
X134868D01*
X133952Y-55602D02*
X134338D01*
X133952D02*
X134338D01*
X134868D01*
X134338D02*
X134868D01*
X134290Y-57383D02*
X135254Y-54880D01*
X134772D02*
X135254D01*
X134574Y-55000D02*
X134772Y-54880D01*
X134422Y-55331D02*
X134574Y-55000D01*
X134324Y-55834D02*
X134422Y-55331D01*
X134290Y-56468D02*
X134324Y-55834D01*
X134290Y-57124D02*
Y-56468D01*
Y-57383D02*
Y-57124D01*
X134772Y-57383D02*
X135543Y-55073D01*
X135416Y-54922D02*
X135543Y-55073D01*
X135254Y-54880D02*
X135416Y-54922D01*
X135077Y-55000D02*
X135254Y-54880D01*
X134922Y-55331D02*
X135077Y-55000D01*
X134813Y-55834D02*
X134922Y-55331D01*
X134772Y-56468D02*
X134813Y-55834D01*
X134772Y-56774D02*
Y-56468D01*
Y-57294D02*
Y-56774D01*
Y-57383D02*
Y-57294D01*
X134193Y-57383D02*
X134531Y-55024D01*
X133904Y-57383D02*
X134193D01*
X133899Y-57137D02*
X133904Y-57383D01*
X133898Y-56571D02*
X133899Y-57137D01*
X133898Y-56571D02*
X133924Y-55941D01*
X134000Y-55506D01*
X134193Y-55211D01*
X134531Y-55024D01*
X135097Y-54862D02*
X135109Y-54880D01*
X135013D02*
X135097Y-54862D01*
X134916Y-54976D02*
X135013Y-54880D01*
X134916Y-54976D02*
X134918Y-54901D01*
X134928Y-54736D01*
X135013Y-54495D01*
X135097Y-54688D01*
X135109Y-54880D01*
X133808Y-57046D02*
Y-56324D01*
X133470Y-56372D02*
X133711D01*
Y-57239D02*
X133904D01*
X133711D02*
Y-57114D01*
Y-56487D01*
Y-56228D01*
X133808Y-56059D01*
X133904Y-56035D01*
X133519Y-56709D02*
X133711Y-56661D01*
X133494Y-56643D02*
X133519Y-56709D01*
X133470Y-56468D02*
X133494Y-56643D01*
X133470Y-56468D02*
X133494Y-56312D01*
X133519Y-56228D01*
X133711Y-56276D01*
X133181Y-56324D02*
X133374D01*
X133229Y-56228D02*
X133374D01*
X132892Y-56420D02*
X133181D01*
X133627Y-56811D02*
X133663Y-56661D01*
X133519Y-56853D02*
X133627Y-56811D01*
X133410Y-56733D02*
X133519Y-56853D01*
X133374Y-56468D02*
X133410Y-56733D01*
X133374Y-56468D02*
X133410Y-56204D01*
X133519Y-56083D01*
X133663Y-56228D01*
X133374Y-56853D02*
X133519D01*
X133241Y-56751D02*
X133374Y-56853D01*
X133181Y-56468D02*
X133241Y-56751D01*
X133181Y-56468D02*
Y-56420D01*
X133241Y-56180D01*
X133374Y-56083D01*
X133446D01*
X133519D01*
X132988Y-56228D02*
X133229D01*
X132940Y-56294D02*
X132988Y-56228D01*
X132892Y-56468D02*
X132940Y-56294D01*
X132892Y-56468D02*
X132946Y-56625D01*
X133037Y-56709D01*
X133229D01*
X135669Y-55067D02*
X135832Y-55217D01*
X135543Y-55024D02*
X135669Y-55067D01*
X135373Y-55155D02*
X135543Y-55024D01*
X135236Y-55458D02*
X135373Y-55155D01*
X135143Y-55904D02*
X135236Y-55458D01*
X135109Y-56468D02*
X135143Y-55904D01*
X135109Y-56468D02*
X135205Y-57287D01*
X135832D01*
X135447Y-55024D02*
X135495D01*
X135277Y-55142D02*
X135447Y-55024D01*
X135139Y-55458D02*
X135277Y-55142D01*
X135047Y-55918D02*
X135139Y-55458D01*
X135013Y-56468D02*
X135047Y-55918D01*
X135013Y-56468D02*
X135043Y-56914D01*
X135109Y-57287D01*
X135929Y-55361D02*
X136121D01*
X135705Y-55680D02*
X135929Y-55361D01*
X135591Y-56324D02*
X135705Y-55680D01*
X135591Y-56324D02*
X135633Y-56836D01*
X135784Y-57239D01*
Y-56661D02*
X136218D01*
X136428Y-56035D02*
X136507Y-56276D01*
X136314Y-55939D02*
X136428Y-56035D01*
X136206Y-56095D02*
X136314Y-55939D01*
X136170Y-56468D02*
X136206Y-56095D01*
X136170Y-56468D02*
X136206Y-56799D01*
X136314Y-56950D01*
X136428Y-56877D01*
X136507Y-56661D01*
X136278Y-55891D02*
X136314Y-55939D01*
X136170Y-55843D02*
X136278Y-55891D01*
X136037Y-56047D02*
X136170Y-55843D01*
X135977Y-56468D02*
X136037Y-56047D01*
X135977Y-56468D02*
X136037Y-56847D01*
X136170Y-57046D01*
X136314Y-56950D01*
X136507Y-58105D02*
Y-57672D01*
X136206Y-55494D02*
X136266Y-55554D01*
X136073Y-55506D02*
X136206Y-55494D01*
X135832Y-55801D02*
X136073Y-55506D01*
X135736Y-56420D02*
X135832Y-55801D01*
X135736Y-56420D02*
X135790Y-56902D01*
X135880Y-57239D01*
X134290Y-57383D02*
X134675D01*
X136025Y-56613D02*
X136170D01*
X136314Y-56661D02*
X136748D01*
X130096Y-49682D02*
X130193Y-49874D01*
X129903D02*
X130000Y-49682D01*
X129518Y-54158D02*
X129663Y-52714D01*
X129725Y-52865D01*
X129729Y-53201D01*
X129723Y-53547D02*
X129729Y-53201D01*
X129723Y-53547D02*
X129759Y-53725D01*
X129885Y-53713D01*
X129903Y-53629D01*
X130048Y-53532D01*
X130096Y-50356D02*
X130289Y-50596D01*
X130144D02*
X130337Y-50837D01*
X129855Y-50307D02*
X130000Y-50067D01*
X129807Y-50596D02*
X130000Y-50356D01*
X130096Y-50837D02*
X130385Y-51078D01*
X129759Y-51126D02*
X130000Y-50837D01*
X129566Y-52329D02*
X130000Y-51703D01*
X129663D02*
X129807Y-51992D01*
X129566Y-52329D02*
X129759Y-52666D01*
X129470Y-53051D02*
X129711Y-53436D01*
X130289Y-51992D02*
X130434Y-51703D01*
X130337Y-52666D02*
X130530Y-52377D01*
X130385Y-53436D02*
X130626Y-53051D01*
X130096Y-50067D02*
X130289Y-50307D01*
X129470Y-53051D02*
X130000Y-52377D01*
X130096Y-51126D02*
X130385Y-51366D01*
X129663D02*
X130000Y-51126D01*
X130144Y-51703D02*
X130530Y-52377D01*
X130144D02*
X130626Y-53051D01*
X130434Y-51703D02*
X130771Y-54399D01*
X130241Y-50019D02*
X130434Y-51559D01*
X130193Y-49682D02*
X130241Y-49922D01*
X129952Y-49682D02*
X130193D01*
X129903Y-49922D02*
X129952Y-49682D01*
X129663Y-51511D02*
X129903Y-50019D01*
X129277Y-54351D02*
X129663Y-51703D01*
X129277Y-54351D02*
X131109D01*
Y-53966D01*
X130385D02*
X131109D01*
X130385Y-54351D02*
Y-53966D01*
X129807Y-50837D02*
X130000Y-50596D01*
X129855Y-50307D02*
X130289D01*
X129855Y-50596D02*
X130337D01*
X129807Y-50837D02*
X130337D01*
X129759Y-51126D02*
X130337D01*
X129663Y-51366D02*
X130385D01*
X129663Y-51703D02*
X130434D01*
X129614Y-51992D02*
X130482D01*
X129566Y-52329D02*
X130530Y-52377D01*
X129518Y-52666D02*
X130578D01*
X129470Y-53051D02*
X130626D01*
X129421Y-53484D02*
X130626Y-53436D01*
X130048Y-53051D02*
X130723Y-53869D01*
X129373D02*
X130048Y-53051D01*
X129373Y-53869D02*
X130723D01*
X130048Y-53725D02*
Y-53051D01*
X137374Y-53436D02*
X137857D01*
X137374Y-53677D02*
X137905D01*
X137423Y-53243D02*
X137857D01*
X137423Y-53003D02*
X137808D01*
X137326Y-54206D02*
X137905D01*
X137374Y-53966D02*
X137905D01*
X137423Y-52810D02*
X137808D01*
X137471Y-52666D02*
X137808D01*
X137760Y-52473D02*
X137953Y-54351D01*
X137616D02*
Y-52473D01*
X137326Y-54351D02*
X137471Y-52473D01*
X137857D02*
X138049Y-54351D01*
X137374Y-52473D02*
X137857D01*
X137182Y-54351D02*
X137374Y-52473D01*
X137616Y-52377D02*
Y-52281D01*
D18*
X129132Y-54351D02*
Y-54254D01*
X129421D01*
X133663Y-45350D02*
X133711Y-45398D01*
X133760Y-45446D01*
X133808Y-45350D01*
X133784Y-45301D02*
X133808Y-45350D01*
X133760Y-45253D02*
X133784Y-45301D01*
X133711D02*
X133760Y-45253D01*
X133663Y-45350D02*
X133711Y-45301D01*
X133663Y-46409D02*
X133687Y-46457D01*
X133711Y-46505D01*
X133760Y-46457D01*
X133808Y-46409D01*
X133711Y-46360D02*
X133808Y-46409D01*
X133663D02*
X133711Y-46360D01*
X134254Y-46396D02*
X134386Y-46457D01*
X134193Y-46264D02*
X134254Y-46396D01*
X134193Y-46264D02*
X134254Y-46156D01*
X134386Y-46120D01*
X134531Y-46264D01*
X134494Y-46396D02*
X134531Y-46264D01*
X134386Y-46457D02*
X134494Y-46396D01*
X134627Y-46842D02*
X134675Y-46866D01*
X134724Y-46890D01*
X134820Y-46842D01*
X134772Y-46794D02*
X134820Y-46842D01*
X134724Y-46745D02*
X134772Y-46794D01*
X134675D02*
X134724Y-46745D01*
X134627Y-46842D02*
X134675Y-46794D01*
X129421Y-54254D02*
X129470D01*
X129421Y-54351D02*
Y-54254D01*
Y-54351D02*
X129663D01*
Y-54254D01*
X129566D02*
X129663D01*
X129566D02*
Y-54206D01*
X129470D02*
X129566D01*
X129470Y-54254D02*
Y-54206D01*
X130000Y-53051D02*
X130048Y-53003D01*
X130000Y-53051D02*
X130048Y-53099D01*
X130144Y-53051D01*
X130096Y-53027D02*
X130144Y-53051D01*
X130048Y-53003D02*
X130096Y-53027D01*
D19*
X129807Y-50019D02*
Y-49922D01*
Y-50019D02*
X130337D01*
Y-49922D01*
X129807D02*
X130337D01*
X129566Y-51703D02*
Y-51511D01*
Y-51703D02*
X130578D01*
Y-51511D01*
X129566D02*
X130578D01*
D20*
X130000Y-53099D02*
Y-51703D01*
Y-51559D02*
Y-50019D01*
Y-49922D02*
Y-49682D01*
X130096Y-51655D02*
X130144Y-53051D01*
X130096Y-51559D02*
Y-50019D01*
Y-49922D02*
Y-49682D01*
D21*
X136748Y-54351D02*
X138435D01*
X137278Y-52377D02*
X138001D01*
D22*
X133808Y-44195D02*
X140459D01*
X140487Y-46416D01*
X140496Y-49008D01*
X140378Y-51491D02*
X140496Y-49008D01*
X140025Y-53388D02*
X140378Y-51491D01*
X138744Y-56207D02*
X140025Y-53388D01*
X137146Y-58472D02*
X138744Y-56207D01*
X135457Y-60096D02*
X137146Y-58472D01*
X133904Y-60993D02*
X135457Y-60096D01*
X132382D02*
X133904Y-60993D01*
X130620Y-58472D02*
X132382Y-60096D01*
X128922Y-56207D02*
X130620Y-58472D01*
X127590Y-53388D02*
X128922Y-56207D01*
X127265Y-51491D02*
X127590Y-53388D01*
X127162Y-49008D02*
X127265Y-51491D01*
X127162Y-49008D02*
X127176Y-46416D01*
X127204Y-44195D01*
X133808D01*
D23*
X137857Y-42702D02*
X137971Y-42654D01*
X138049Y-42606D01*
X138339D01*
X138724Y-42817D01*
X139110Y-43136D01*
X138977Y-43009D02*
X139110Y-43136D01*
X138628Y-42702D02*
X138977Y-43009D01*
X138628Y-42702D02*
X139110Y-42660D01*
X139447Y-42793D01*
X139604Y-43061D01*
X139544Y-43424D02*
X139604Y-43061D01*
X139463Y-43533D02*
X139544Y-43424D01*
X139260Y-43611D02*
X139463Y-43533D01*
X138995Y-43607D02*
X139260Y-43611D01*
X138724Y-43472D02*
X138995Y-43607D01*
X138628Y-43328D02*
X138724Y-43472D01*
X138628Y-43328D02*
X138658Y-43382D01*
X138724Y-43472D01*
X138778Y-43539D01*
X138869Y-43569D01*
X138531Y-43605D02*
X138869Y-43569D01*
X138339D02*
X138531Y-43605D01*
X138167Y-43457D02*
X138339Y-43569D01*
X137977Y-43250D02*
X138167Y-43457D01*
X137823Y-43034D02*
X137977Y-43250D01*
X137760Y-42895D02*
X137823Y-43034D01*
X137760Y-42895D02*
X137808Y-42799D01*
X137857Y-42702D01*
X136218D02*
X136338Y-42654D01*
X136459Y-42606D01*
X136700Y-42654D01*
X137085Y-42823D01*
X137471Y-43136D01*
X137338Y-43015D02*
X137471Y-43136D01*
X136989Y-42750D02*
X137338Y-43015D01*
X136989Y-42750D02*
X137421Y-42723D01*
X137700Y-42889D01*
X137924Y-43190D01*
X138194Y-43569D01*
X137640Y-43665D02*
X138194Y-43569D01*
X137085Y-43472D02*
X137640Y-43665D01*
X137001Y-43382D02*
X137085Y-43472D01*
X136989Y-43328D02*
X137001Y-43382D01*
X136989Y-43328D02*
X137037Y-43382D01*
X137085Y-43472D01*
X137176Y-43545D01*
X137230Y-43617D01*
X136892Y-43611D02*
X137230Y-43617D01*
X136700Y-43569D02*
X136892Y-43611D01*
X136528Y-43457D02*
X136700Y-43569D01*
X136338Y-43250D02*
X136528Y-43457D01*
X136185Y-43034D02*
X136338Y-43250D01*
X136121Y-42895D02*
X136185Y-43034D01*
X136121Y-42895D02*
X136170Y-42799D01*
X136218Y-42702D01*
X134627D02*
X134705Y-42654D01*
X134820Y-42606D01*
X135013Y-42630D01*
X135061Y-42654D01*
X135465Y-42823D01*
X135832Y-43136D01*
X135699Y-43015D02*
X135832Y-43136D01*
X135350Y-42750D02*
X135699Y-43015D01*
X135350Y-42750D02*
X135789Y-42723D01*
X136079Y-42889D01*
X136306Y-43190D01*
X136555Y-43569D01*
X136001Y-43665D02*
X136555Y-43569D01*
X135447Y-43472D02*
X136001Y-43665D01*
X135380Y-43382D02*
X135447Y-43472D01*
X135350Y-43328D02*
X135380Y-43382D01*
X135350Y-43328D02*
X135398Y-43382D01*
X135447Y-43472D01*
X135543Y-43545D01*
X135639Y-43617D01*
X135260Y-43611D02*
X135639Y-43617D01*
X135061Y-43569D02*
X135260Y-43611D01*
X134897Y-43457D02*
X135061Y-43569D01*
X134724Y-43250D02*
X134897Y-43457D01*
X134586Y-43034D02*
X134724Y-43250D01*
X134531Y-42895D02*
X134586Y-43034D01*
X134531Y-42895D02*
X134579Y-42799D01*
X134627Y-42702D01*
X132940D02*
X133061Y-42654D01*
X133181Y-42606D01*
X133374D01*
X133422D01*
X133808Y-42817D01*
X134193Y-43136D01*
X134061Y-43009D02*
X134193Y-43136D01*
X133711Y-42702D02*
X134061Y-43009D01*
X133711Y-42702D02*
X134150Y-42674D01*
X134440Y-42841D01*
X134667Y-43142D01*
X134916Y-43521D01*
X134362Y-43659D02*
X134916Y-43521D01*
X133808Y-43472D02*
X134362Y-43659D01*
X133711Y-43328D02*
X133808Y-43472D01*
X133711Y-43328D02*
X133760Y-43382D01*
X133808Y-43472D01*
X133898Y-43539D01*
X133952Y-43569D01*
X133615Y-43605D02*
X133952Y-43569D01*
X133422D02*
X133615Y-43605D01*
X133250Y-43457D02*
X133422Y-43569D01*
X133061Y-43250D02*
X133250Y-43457D01*
X132907Y-43034D02*
X133061Y-43250D01*
X132844Y-42895D02*
X132907Y-43034D01*
X132844Y-42895D02*
X132892Y-42799D01*
X132940Y-42702D01*
X131349D02*
X131428Y-42654D01*
X131542Y-42606D01*
X131783D01*
X132187Y-42817D01*
X132554Y-43136D01*
X132422Y-43009D02*
X132554Y-43136D01*
X132072Y-42702D02*
X132422Y-43009D01*
X132072Y-42702D02*
X132512Y-42674D01*
X132807Y-42841D01*
X133048Y-43142D01*
X133326Y-43521D01*
X132729Y-43659D02*
X133326Y-43521D01*
X132169Y-43472D02*
X132729Y-43659D01*
X132072Y-43328D02*
X132169Y-43472D01*
X132072Y-43328D02*
X132121Y-43382D01*
X132169Y-43472D01*
X132265Y-43539D01*
X132362Y-43569D01*
X131982Y-43605D02*
X132362Y-43569D01*
X131783D02*
X131982Y-43605D01*
X131619Y-43457D02*
X131783Y-43569D01*
X131446Y-43250D02*
X131619Y-43457D01*
X131309Y-43034D02*
X131446Y-43250D01*
X131253Y-42895D02*
X131309Y-43034D01*
X131253Y-42895D02*
X131301Y-42799D01*
X131349Y-42702D01*
X129711D02*
X129807Y-42654D01*
X129903Y-42606D01*
X130144D01*
X130548Y-42817D01*
X130916Y-43136D01*
X130783Y-43009D02*
X130916Y-43136D01*
X130434Y-42702D02*
X130783Y-43009D01*
X130434Y-42702D02*
X130873Y-42674D01*
X131169Y-42841D01*
X131410Y-43142D01*
X131687Y-43521D01*
X131114Y-43659D02*
X131687Y-43521D01*
X130578Y-43472D02*
X131114Y-43659D01*
X130470Y-43364D02*
X130578Y-43472D01*
X130434Y-43328D02*
X130470Y-43364D01*
X130434Y-43328D02*
X130488Y-43382D01*
X130578Y-43472D01*
X130632Y-43539D01*
X130723Y-43569D01*
X130379Y-43605D02*
X130723Y-43569D01*
X130144D02*
X130379Y-43605D01*
X130000Y-43457D02*
X130144Y-43569D01*
X129825Y-43250D02*
X130000Y-43457D01*
X129677Y-43034D02*
X129825Y-43250D01*
X129614Y-42895D02*
X129677Y-43034D01*
X129614Y-42895D02*
X129663Y-42799D01*
X129711Y-42702D01*
X128072D02*
X128192Y-42654D01*
X128313Y-42606D01*
X128488Y-42630D01*
X128554Y-42654D01*
X128939Y-42823D01*
X129325Y-43136D01*
X129192Y-43015D02*
X129325Y-43136D01*
X128843Y-42750D02*
X129192Y-43015D01*
X128843Y-42750D02*
X129275Y-42723D01*
X129554Y-42889D01*
X129778Y-43190D01*
X130048Y-43569D01*
X129476Y-43665D02*
X130048Y-43569D01*
X128939Y-43472D02*
X129476Y-43665D01*
X128855Y-43382D02*
X128939Y-43472D01*
X128843Y-43328D02*
X128855Y-43382D01*
X128843Y-43328D02*
X128891Y-43382D01*
X128939Y-43472D01*
X129030Y-43545D01*
X129084Y-43617D01*
X128747Y-43611D02*
X129084Y-43617D01*
X128554Y-43569D02*
X128747Y-43611D01*
X128307Y-43464D02*
X128554Y-43569D01*
X128138Y-43340D02*
X128307Y-43464D01*
X128032Y-43163D02*
X128138Y-43340D01*
X127975Y-42895D02*
X128032Y-43163D01*
X127975Y-42895D02*
X128024Y-42799D01*
X128072Y-42702D01*
D24*
X130358Y-65459D02*
X133808Y-65806D01*
X127141Y-64462D02*
X130358Y-65459D01*
X124227Y-62885D02*
X127141Y-64462D01*
X121685Y-60794D02*
X124227Y-62885D01*
X119587Y-58259D02*
X121685Y-60794D01*
X118001Y-55349D02*
X119587Y-58259D01*
X116998Y-52129D02*
X118001Y-55349D01*
X116648Y-48671D02*
X116998Y-52129D01*
X116648Y-48671D02*
X116998Y-45212D01*
X118001Y-41993D01*
X119587Y-39082D01*
X121685Y-36547D01*
X124227Y-34457D01*
X127141Y-32879D01*
X130358Y-31883D01*
X133808Y-31535D01*
X137271Y-31883D01*
X140495Y-32879D01*
X143410Y-34457D01*
X145948Y-36547D01*
X148041Y-39082D01*
X149621Y-41993D01*
X150619Y-45212D01*
X150967Y-48671D01*
X150619Y-52129D02*
X150967Y-48671D01*
X149621Y-55349D02*
X150619Y-52129D01*
X148041Y-58259D02*
X149621Y-55349D01*
X145948Y-60794D02*
X148041Y-58259D01*
X143410Y-62885D02*
X145948Y-60794D01*
X140495Y-64462D02*
X143410Y-62885D01*
X137271Y-65459D02*
X140495Y-64462D01*
X133808Y-65806D02*
X137271Y-65459D01*
X131115Y-61829D02*
X133808Y-62100D01*
X128603Y-61052D02*
X131115Y-61829D01*
X126327Y-59821D02*
X128603Y-61052D01*
X124342Y-58189D02*
X126327Y-59821D01*
X122703Y-56210D02*
X124342Y-58189D01*
X121465Y-53937D02*
X122703Y-56210D01*
X120681Y-51422D02*
X121465Y-53937D01*
X120408Y-48719D02*
X120681Y-51422D01*
X120408Y-48719D02*
X120681Y-46032D01*
X121465Y-43529D01*
X122703Y-41264D01*
X124342Y-39291D01*
X126327Y-37663D01*
X128603Y-36434D01*
X131115Y-35657D01*
X133808Y-35386D01*
X136515Y-35657D01*
X139033Y-36434D01*
X141309Y-37663D01*
X143291Y-39291D01*
X144925Y-41264D01*
X146158Y-43529D01*
X146936Y-46032D01*
X147207Y-48719D01*
X146936Y-51422D02*
X147207Y-48719D01*
X146158Y-53937D02*
X146936Y-51422D01*
X144925Y-56210D02*
X146158Y-53937D01*
X143291Y-58189D02*
X144925Y-56210D01*
X141309Y-59821D02*
X143291Y-58189D01*
X139033Y-61052D02*
X141309Y-59821D01*
X136515Y-61829D02*
X139033Y-61052D01*
X133808Y-62100D02*
X136515Y-61829D01*
D25*
X129759Y-54351D02*
X130434D01*
X129759D02*
Y-54254D01*
X129903D01*
Y-54158D01*
X130000D01*
Y-53869D01*
X130048Y-53677D01*
X130144Y-53869D01*
Y-54158D02*
Y-53869D01*
Y-54158D02*
X130241D01*
Y-54254D02*
Y-54158D01*
Y-54254D02*
X130434D01*
Y-54351D02*
Y-54254D01*
D26*
X402181Y79858D02*
Y83008D01*
X400181Y79858D02*
Y83008D01*
X424787Y20803D02*
Y23953D01*
X426787Y20803D02*
Y23953D01*
X414945Y20803D02*
Y23953D01*
X416945Y20803D02*
Y23953D01*
X405102Y20803D02*
Y23953D01*
X407102Y20803D02*
Y23953D01*
X395260Y20803D02*
Y23953D01*
X397260Y20803D02*
Y23953D01*
X386402Y20803D02*
Y23953D01*
X388402Y20803D02*
Y23953D01*
X376559Y20803D02*
Y23953D01*
X378559Y20803D02*
Y23953D01*
X436630Y60173D02*
Y63323D01*
X434630Y60173D02*
Y63323D01*
X444473Y60173D02*
Y63323D01*
X446473Y60173D02*
Y63323D01*
X426787Y60173D02*
Y63323D01*
X424787Y60173D02*
Y63323D01*
X414945Y60173D02*
Y63323D01*
X416945Y60173D02*
Y63323D01*
X405102Y60173D02*
Y63323D01*
X407102Y60173D02*
Y63323D01*
X395260Y60173D02*
Y63323D01*
X397260Y60173D02*
Y63323D01*
X387417Y60173D02*
Y63323D01*
X385417Y60173D02*
Y63323D01*
X377575Y60173D02*
Y63323D01*
X375575Y60173D02*
Y63323D01*
X451394Y40488D02*
Y43638D01*
X449394Y40488D02*
Y43638D01*
X439551Y40488D02*
Y43638D01*
X441551Y40488D02*
Y43638D01*
X429709Y40488D02*
Y43638D01*
X431709Y40488D02*
Y43638D01*
X419866Y40488D02*
Y43638D01*
X421866Y40488D02*
Y43638D01*
X412024Y40488D02*
Y43638D01*
X410024Y40488D02*
Y43638D01*
X402181Y40488D02*
Y43638D01*
X400181Y40488D02*
Y43638D01*
X390339Y40488D02*
Y43638D01*
X392339Y40488D02*
Y43638D01*
X382496Y40488D02*
Y43638D01*
X380496Y40488D02*
Y43638D01*
X451394Y79858D02*
Y83008D01*
X449394Y79858D02*
Y83008D01*
X441551Y79858D02*
Y83008D01*
X439551Y79858D02*
Y83008D01*
X431709Y79858D02*
Y83008D01*
X429709Y79858D02*
Y83008D01*
X421866Y79858D02*
Y83008D01*
X419866Y79858D02*
Y83008D01*
X410024Y79858D02*
Y83008D01*
X412024Y79858D02*
Y83008D01*
X392339Y79858D02*
Y83008D01*
X390339Y79858D02*
Y83008D01*
X382496Y79858D02*
Y83008D01*
X380496Y79858D02*
Y83008D01*
X446473Y20803D02*
Y23953D01*
X444473Y20803D02*
Y23953D01*
X436630Y20803D02*
Y23953D01*
X434630Y20803D02*
Y23953D01*
X15795Y-75127D02*
Y-70129D01*
X19127Y-75127D01*
Y-70129D01*
X20794Y-75127D02*
Y-71795D01*
X22460Y-70129D01*
X24126Y-71795D01*
Y-75127D01*
Y-72628D01*
X20794D01*
X25792Y-70129D02*
X29124D01*
X27458D01*
Y-75127D01*
X30790Y-70129D02*
X32456D01*
X31623D01*
Y-75127D01*
X30790D01*
X32456D01*
X37455Y-70129D02*
X35789D01*
X34956Y-70962D01*
Y-74294D01*
X35789Y-75127D01*
X37455D01*
X38288Y-74294D01*
Y-70962D01*
X37455Y-70129D01*
X39954Y-75127D02*
Y-70129D01*
X43286Y-75127D01*
Y-70129D01*
X44952Y-75127D02*
Y-71795D01*
X46619Y-70129D01*
X48285Y-71795D01*
Y-75127D01*
Y-72628D01*
X44952D01*
X49951Y-70129D02*
Y-75127D01*
X53283D01*
X59948D02*
Y-71795D01*
X61614Y-70129D01*
X63280Y-71795D01*
Y-75127D01*
Y-72628D01*
X59948D01*
X68278Y-70962D02*
X67445Y-70129D01*
X65779D01*
X64946Y-70962D01*
Y-74294D01*
X65779Y-75127D01*
X67445D01*
X68278Y-74294D01*
X73277Y-70962D02*
X72443Y-70129D01*
X70777D01*
X69944Y-70962D01*
Y-74294D01*
X70777Y-75127D01*
X72443D01*
X73277Y-74294D01*
X78275Y-70129D02*
X74943D01*
Y-75127D01*
X78275D01*
X74943Y-72628D02*
X76609D01*
X79941Y-70129D02*
Y-75127D01*
X83273D01*
X88272Y-70129D02*
X84939D01*
Y-75127D01*
X88272D01*
X84939Y-72628D02*
X86606D01*
X89938Y-75127D02*
Y-70129D01*
X92437D01*
X93270Y-70962D01*
Y-72628D01*
X92437Y-73461D01*
X89938D01*
X91604D02*
X93270Y-75127D01*
X94936D02*
Y-71795D01*
X96602Y-70129D01*
X98269Y-71795D01*
Y-75127D01*
Y-72628D01*
X94936D01*
X99935Y-70129D02*
X103267D01*
X101601D01*
Y-75127D01*
X107432Y-70129D02*
X105766D01*
X104933Y-70962D01*
Y-74294D01*
X105766Y-75127D01*
X107432D01*
X108265Y-74294D01*
Y-70962D01*
X107432Y-70129D01*
X109931Y-75127D02*
Y-70129D01*
X112431D01*
X113264Y-70962D01*
Y-72628D01*
X112431Y-73461D01*
X109931D01*
X111598D02*
X113264Y-75127D01*
X119928Y-70129D02*
Y-75127D01*
X123260D01*
X124926D02*
Y-71795D01*
X126593Y-70129D01*
X128259Y-71795D01*
Y-75127D01*
Y-72628D01*
X124926D01*
X129925Y-70129D02*
Y-75127D01*
X132424D01*
X133257Y-74294D01*
Y-73461D01*
X132424Y-72628D01*
X129925D01*
X132424D01*
X133257Y-71795D01*
Y-70962D01*
X132424Y-70129D01*
X129925D01*
X137422D02*
X135756D01*
X134923Y-70962D01*
Y-74294D01*
X135756Y-75127D01*
X137422D01*
X138256Y-74294D01*
Y-70962D01*
X137422Y-70129D01*
X139922Y-75127D02*
Y-70129D01*
X142421D01*
X143254Y-70962D01*
Y-72628D01*
X142421Y-73461D01*
X139922D01*
X141588D02*
X143254Y-75127D01*
X144920D02*
Y-71795D01*
X146586Y-70129D01*
X148252Y-71795D01*
Y-75127D01*
Y-72628D01*
X144920D01*
X149918Y-70129D02*
X153251D01*
X151584D01*
Y-75127D01*
X157416Y-70129D02*
X155750D01*
X154917Y-70962D01*
Y-74294D01*
X155750Y-75127D01*
X157416D01*
X158249Y-74294D01*
Y-70962D01*
X157416Y-70129D01*
X159915Y-75127D02*
Y-70129D01*
X162414D01*
X163247Y-70962D01*
Y-72628D01*
X162414Y-73461D01*
X159915D01*
X161581D02*
X163247Y-75127D01*
X164913Y-70129D02*
Y-70962D01*
X166580Y-72628D01*
X168246Y-70962D01*
Y-70129D01*
X166580Y-72628D02*
Y-75127D01*
X-8760Y120571D02*
Y121571D01*
X-7760D01*
Y120571D01*
X-8760D01*
D27*
X39548Y-39044D02*
D03*
D28*
Y-47541D02*
D03*
D29*
X446473Y23953D02*
D03*
X444473D02*
D03*
X451394Y43638D02*
D03*
X449394D02*
D03*
X436630Y23953D02*
D03*
X434630D02*
D03*
X441551Y43638D02*
D03*
X439551D02*
D03*
X426787Y23953D02*
D03*
X424787D02*
D03*
X431709Y43638D02*
D03*
X429709D02*
D03*
X416945Y23953D02*
D03*
X414945D02*
D03*
X421866Y43638D02*
D03*
X419866D02*
D03*
X407102Y23953D02*
D03*
X405102D02*
D03*
X412024Y43638D02*
D03*
X410024D02*
D03*
X397260Y23953D02*
D03*
X395260D02*
D03*
X402181Y43638D02*
D03*
X400181D02*
D03*
X388402Y23953D02*
D03*
X386402D02*
D03*
X392339Y43638D02*
D03*
X390339D02*
D03*
X378559Y23953D02*
D03*
X376559D02*
D03*
X382496Y43638D02*
D03*
X380496D02*
D03*
X375575Y63323D02*
D03*
X377575D02*
D03*
X380496Y83008D02*
D03*
X382496D02*
D03*
X385417Y63323D02*
D03*
X387417D02*
D03*
X390339Y83008D02*
D03*
X392339D02*
D03*
X395260Y63323D02*
D03*
X397260D02*
D03*
X400181Y83008D02*
D03*
X402181D02*
D03*
X405102Y63323D02*
D03*
X407102D02*
D03*
X410024Y83008D02*
D03*
X412024D02*
D03*
X414945Y63323D02*
D03*
X416945D02*
D03*
X419866Y83008D02*
D03*
X421866D02*
D03*
X424787Y63323D02*
D03*
X426787D02*
D03*
X429709Y83008D02*
D03*
X431709D02*
D03*
X434630Y63323D02*
D03*
X436630D02*
D03*
X439551Y83008D02*
D03*
X441551D02*
D03*
X444473Y63323D02*
D03*
X446473D02*
D03*
X451394Y83008D02*
D03*
X449394D02*
D03*
D35*
X452559Y7874D02*
D03*
Y102362D02*
D03*
D36*
X445472Y27953D02*
D03*
X450394Y47638D02*
D03*
X435630Y27953D02*
D03*
X440551Y47638D02*
D03*
X425787Y27953D02*
D03*
X430709Y47638D02*
D03*
X415945Y27953D02*
D03*
X420866Y47638D02*
D03*
X406102Y27953D02*
D03*
X411024Y47638D02*
D03*
X396260Y27953D02*
D03*
X401181Y47638D02*
D03*
X387402Y27953D02*
D03*
X391339Y47638D02*
D03*
X377559Y27953D02*
D03*
X381496Y47638D02*
D03*
X376575Y67323D02*
D03*
X381496Y87008D02*
D03*
X386417Y67323D02*
D03*
X391339Y87008D02*
D03*
X396260Y67323D02*
D03*
X401181Y87008D02*
D03*
X406102Y67323D02*
D03*
X411024Y87008D02*
D03*
X415945Y67323D02*
D03*
X420866Y87008D02*
D03*
X425787Y67323D02*
D03*
X430709Y87008D02*
D03*
X435630Y67323D02*
D03*
X440551Y87008D02*
D03*
X445472Y67323D02*
D03*
X450394Y87008D02*
D03*
D37*
X402181Y79858D02*
D03*
X400181D02*
D03*
X424787Y20803D02*
D03*
X426787D02*
D03*
X414945D02*
D03*
X416945D02*
D03*
X405102D02*
D03*
X407102D02*
D03*
X395260D02*
D03*
X397260D02*
D03*
X386402D02*
D03*
X388402D02*
D03*
X376559D02*
D03*
X378559D02*
D03*
X436630Y60173D02*
D03*
X434630D02*
D03*
X444473D02*
D03*
X446473D02*
D03*
X426787D02*
D03*
X424787D02*
D03*
X414945D02*
D03*
X416945D02*
D03*
X405102D02*
D03*
X407102D02*
D03*
X395260D02*
D03*
X397260D02*
D03*
X387417D02*
D03*
X385417D02*
D03*
X377575D02*
D03*
X375575D02*
D03*
X451394Y40488D02*
D03*
X449394D02*
D03*
X439551D02*
D03*
X441551D02*
D03*
X429709Y40488D02*
D03*
X431709D02*
D03*
X419866D02*
D03*
X421866D02*
D03*
X412024D02*
D03*
X410024D02*
D03*
X402181D02*
D03*
X400181D02*
D03*
X390339D02*
D03*
X392339D02*
D03*
X382496D02*
D03*
X380496D02*
D03*
X451394Y79858D02*
D03*
X449394D02*
D03*
X441551D02*
D03*
X439551D02*
D03*
X431709D02*
D03*
X429709D02*
D03*
X421866D02*
D03*
X419866D02*
D03*
X410024D02*
D03*
X412024D02*
D03*
X392339D02*
D03*
X390339D02*
D03*
X382496D02*
D03*
X380496D02*
D03*
X446473Y20803D02*
D03*
X444473D02*
D03*
X436630D02*
D03*
X434630D02*
D03*
M02*
