M48
;Layer_Color=9474304
;FILE_FORMAT=2:5
INCH,LZ
;TYPE=PLATED
T2F00S00C0.00800
T3F00S00C0.09000
;TYPE=NON_PLATED
%
T02
X004061Y002262
X0044076Y0023327
X0046476
X0050059Y002262
X0059508
X0062973Y0023327
X0065373
X0068957Y002262
X0078405
X0081871Y0023327
X0084271
X0087854Y002262
X0097303
X0100768Y0023327
X0103168
X0106752Y002262
X0116201
X0119666Y0023327
X0122066
X0125649Y002262
X0135098
X0138564Y0023327
X0140964
X0144547Y002262
X0153996
X0157461Y0023327
X0159861
X0163445Y002262
X0172894
X0172835Y0033563
X0163386
X015992Y0032857
X015752
X0153937Y0033563
X0144488
X0141023Y0032857
X0138623
X0135039Y0033563
X0125591
X0122125Y0032857
X0119725
X0116142Y0033563
X0106693
X0103227Y0032857
X0100827
X0097244Y0033563
X0087795
X008433Y0032857
X008193
X0078347Y0033563
X0068898
X0065432Y0032857
X0063032
X0059449Y0033563
X005
X0046534Y0032857
X0044135
X0040551Y0033563
X0031102
X0027637Y0032857
X0025237
X0021654Y0033563
X0021712Y002262
X0025178Y0023327
X0027578
X0031161Y002262
T03
X000748Y0007874
Y0048031
M30
