M48
;Layer_Color=9474304
;FILE_FORMAT=2:5
INCH,LZ
;TYPE=PLATED
T1F00S00C0.00600
T2F00S00C0.00800
T4F00S00C0.09500
;TYPE=NON_PLATED
T5F00S00C0.03268
T6F00S00C0.05709
%
T01
X0376559Y0020803
X0378559
X0386402
X0388402
X039526
X039726
X0405102
X0407102
X0414945
X0416945
X0424787
X0426787
X043463
X043663
X0444473
X0446473
X0449394Y0040488
X0451394
X0441551
X0439551
X0431709Y0040488
X0429709
X0421866
X0419866
X0412024
X0410024
X0402181
X0400181
X0392339
X0390339
X0382496
X0380496
X0377575Y0060173
X0375575
X0385417
X0387417
X039526
X039726
X0405102
X0407102
X0414945
X0416945
X0424787
X0426787
X043463
X043663
X0444473
X0446473
X0449394Y0079858
X0451394
X0441551
X0439551
X0431709
X0429709
X0421866
X0419866
X0412024
X0410024
X0402181
X0400181
X0392339
X0390339
X0382496
X0380496
T02
X0377559Y0027953
X0387402
X039626
X0406102
X0415945
X0425787
X043563
X0445472
X0450394Y0047638
X0440551
X0430709Y0047638
X0420866
X0411024
X0401181
X0391339
X0381496
X0376575Y0067323
X0386417
X039626
X0406102
X0415945
X0425787
X043563
X0445472
X0440551Y0087008
X0430709
X0420866
X0411024
X0401181
X0391339
X0381496
X0450394
T04
X0452559Y0007874
Y0102362
T05
X0189006Y0028092
X0008691
T06
X01831Y0033997
X0014596
M30
